<svg width="200" height="93" viewBox="0 0 200 93" fill="none" xmlns="http://www.w3.org/2000/svg">
<g opacity="0.8">
<path d="M89.2819 34.2755H83.3819V33.2985C83.3819 32.6955 82.9629 32.1735 82.0049 32.1345C81.4369 32.1075 80.8169 32.7765 80.7759 33.3515C80.7359 34.2215 81.7889 34.7035 82.9899 35.0515C87.1349 36.2415 89.4559 37.0985 89.3749 40.4555C89.3079 43.2525 86.5539 45.0055 81.9639 44.9915C78.8459 44.9785 74.4579 44.5765 74.3909 39.8815H80.4929C80.4929 40.1485 80.5059 40.4295 80.4929 40.7115C80.4389 41.4465 81.1819 41.9015 81.7619 41.9145C82.7069 41.9415 83.1519 41.2465 83.1919 40.6035C83.2599 39.5065 81.9509 39.0915 81.1269 38.9435C76.9149 38.2475 74.4579 36.6555 74.6329 33.8865C74.8889 29.8595 79.2229 29.1365 82.2069 29.1095C85.1379 29.0965 89.1339 30.4615 89.2819 34.2755ZM130.985 47.7075H133.712C137.612 47.7075 140.812 50.8655 140.812 54.7315V56.6845C140.812 60.5515 137.612 63.7105 133.712 63.7105H130.985C127.083 63.7105 123.895 60.5525 123.895 56.6845V54.7315C123.897 50.8655 127.083 47.7075 130.985 47.7075ZM90.2809 48.5365V57.9555C90.2809 61.0995 87.6889 63.6685 84.5169 63.6685H80.5209C77.3609 63.6685 74.7699 61.0995 74.7699 57.9555V48.5365H81.0339V58.0895C81.0339 58.9055 81.7089 59.5745 82.5189 59.5745C82.9141 59.575 83.2935 59.4191 83.5742 59.1409C83.8548 58.8627 84.014 58.4847 84.0169 58.0895V48.5365H90.2809ZM114.109 63.3215H120.481V48.5365H114.109V63.3215ZM144.133 48.5365H151.896L154.583 55.5085V48.5365H159.618V63.3215H152.207L149.116 55.3205V63.3205H144.133V48.5375V48.5365ZM94.5329 48.5365H102.283L104.969 55.5085V48.5365H110.005V63.3215H102.58L99.5009 55.3205V63.3205H94.5339V48.5375L94.5329 48.5365ZM144.217 29.7395H151.991L154.679 36.7095V29.7395H159.701V44.5235H152.288L149.21 36.5225V44.5225H144.217V29.7405V29.7395ZM132.984 39.4265H131.512V44.5235H125.383V29.7395H136.723C138.425 29.7395 140.18 30.7435 140.247 33.4325C140.288 34.9975 139.68 36.3085 137.385 37.1775C139.275 37.5795 140.165 38.9715 140.165 40.3885V42.8765C140.165 43.4395 140.233 43.9735 140.585 44.5225H134.495C134.104 44.0815 133.982 43.4255 133.982 42.8365V41.0435C133.983 40.2815 133.617 39.4265 132.984 39.4265ZM91.1719 29.7395H105.469V33.3505H101.473V44.5225H95.1549V33.3505H91.1719V29.7405V29.7395ZM108.399 29.7395H120.926V33.2575H114.446V35.1975H120.926V38.8905H114.446V40.8305H120.926V44.5235H108.399V29.7395ZM58.6359 29.7395H71.1789V33.2575H64.6989V35.1975H71.1789V38.8905H64.6989V40.8305H71.1789V44.5235H58.6359V29.7395ZM44.6099 36.1605L43.1249 44.5225H36.6849L33.3789 29.7395H38.6439L40.1419 37.3655L41.4509 29.7395H47.8229L49.1859 37.3655L50.4829 29.7395H55.8419L52.6289 44.5235H46.1089L44.6089 36.1615L44.6099 36.1605ZM164.356 29.7785H165.436V62.9065H164.356V29.7785Z" fill="#10283F"/>
<path d="M132.347 51.2261C133.952 51.2261 134.196 53.2461 134.196 55.7091C134.196 58.1831 133.952 60.1901 132.346 60.1901C130.753 60.1901 130.496 58.1831 130.496 55.7091C130.496 53.2461 130.753 51.2261 132.346 51.2261H132.347ZM132.913 36.0401H131.537V32.8301H132.914C133.846 32.8301 134.291 33.6321 134.291 34.4351C134.291 35.2371 133.818 36.0401 132.914 36.0401H132.913Z" fill="#FBFCFF"/>
</g>
</svg>
