<svg width="200" height="93" viewBox="0 0 200 93" fill="none" xmlns="http://www.w3.org/2000/svg">
<g opacity="0.8">
<path d="M82.5433 39.5258C83.7009 39.446 84.5392 39.2864 85.3774 39.3263C87.0141 39.3263 88.1717 40.6831 88.2116 42.5188C88.2515 45.7911 88.2116 49.0235 88.3313 52.2958C88.3712 53.1737 88.7704 54.0516 89.0099 54.9695C89.2095 55.0094 89.449 55.0094 89.6486 55.0493C90.0478 54.4507 90.5667 53.8521 90.8461 53.2136C95.8757 42.2395 100.825 31.2653 105.855 20.331C106.214 19.5329 106.733 18.4554 107.412 18.1761C108.17 17.8569 109.647 17.9766 110.086 18.4954C110.645 19.1738 110.964 20.6503 110.645 21.4484C109.408 24.3615 107.891 27.155 106.454 29.9484C101.983 38.608 97.4324 47.2277 93.0016 55.8873C92.0037 57.8427 90.3671 58.7206 88.3712 58.7606C86.2955 58.8005 84.5392 57.8427 83.8207 55.8075C83.3417 54.5305 83.3018 53.0939 83.182 51.7371C82.9824 47.7066 82.7828 43.716 82.5433 39.5258Z" fill="#10283F"/>
<path d="M54.8808 46.15C55.6792 43.3965 55.5195 42.9176 53.0047 42.6782C50.3702 42.4387 47.7357 42.6383 44.7818 42.6383C44.9814 41.5209 45.141 40.7228 45.3007 39.8049C49.3723 39.8049 53.3241 39.5655 57.2359 39.8848C59.8705 40.1242 61.1478 42.3589 60.6289 44.9927C59.8306 49.0632 58.9125 53.1336 57.9145 57.204C57.7948 57.7228 56.9964 58.3613 56.5174 58.4012C53.1644 58.6406 49.7714 58.88 46.3785 58.8002C42.4267 58.7204 40.5905 56.2462 41.4288 52.4552C42.8658 45.9106 46.2986 45.2322 52.6455 45.9106C53.364 45.9505 54.1224 46.0702 54.8808 46.15ZM54.5216 48.5045C53.1644 48.5045 52.0467 48.5045 50.929 48.5045C48.0151 48.5045 45.5402 52.4552 46.8575 55.089C47.0172 55.3683 47.4562 55.6876 47.7756 55.7275C49.5319 55.7674 51.2883 55.7674 53.0047 55.7674C53.5236 53.2533 54.0027 50.9786 54.5216 48.5045Z" fill="#10283F"/>
<path d="M115.555 55.6873C115.675 58.0019 114.796 58.6803 112.721 58.5606C110.166 58.4408 107.571 58.8399 104.977 58.8399C100.746 58.8798 98.8295 56.6052 99.6278 52.4948C100.067 50.2202 100.546 47.9455 101.025 45.6709C101.704 42.5183 103.5 40.5629 106.653 39.685C109.767 38.8071 112.801 38.6873 115.834 39.7249C117.551 40.2836 118.788 41.5207 118.748 43.3564C118.588 49.2624 116.672 53.0535 110.086 52.3751C109.048 52.2554 107.891 52.415 106.933 52.0559C105.416 51.4972 104.857 52.016 104.697 53.4127C104.498 54.8892 105.136 55.6873 106.693 55.6873C109.607 55.6873 112.561 55.6873 115.555 55.6873ZM105.575 49.3822C107.292 49.3822 108.609 49.462 109.887 49.3822C112.242 49.2225 114.277 45.1521 113.08 43.1169C112.96 42.9174 112.761 42.7179 112.521 42.5582C110.765 41.5606 107.452 42.5981 106.813 44.4737C106.294 45.9502 106.015 47.5465 105.575 49.3822Z" fill="#10283F"/>
<path d="M163.416 58.9999C161.859 58.8003 160.182 58.8802 158.745 58.3614C156.23 57.4834 155.352 55.6877 155.791 52.8144C156.19 50.2604 156.709 47.7464 157.388 45.2722C158.186 42.2792 160.062 40.0844 163.216 39.7651C166.17 39.4858 169.243 39.6454 172.197 39.9647C173.954 40.1243 175.111 41.6806 174.991 43.3567C174.672 47.5468 174.353 51.8567 172.038 55.528C170.082 58.6407 166.808 58.9999 163.416 58.9999ZM163.894 55.7276C165.85 55.9271 167.327 55.0891 167.806 53.0539C168.445 50.2205 169.084 47.3872 169.483 44.5539C169.563 43.9553 168.724 42.8778 168.086 42.5985C165.451 41.521 163.136 43.1173 162.537 46.2299C162.138 48.345 161.699 50.4999 161.26 52.6149C160.701 54.9694 161.3 55.7276 163.894 55.7276Z" fill="#10283F"/>
<path d="M154.953 42.1597C153.316 42.1597 151.64 42.1197 150.003 42.1597C149.085 42.1996 148.087 42.2395 147.289 42.6385C146.61 42.9977 145.932 43.7958 145.772 44.5141C145.692 44.993 146.491 45.7911 147.089 46.1503C148.726 47.1479 150.522 47.8662 152.119 48.9437C152.718 49.3427 153.277 50.3404 153.277 51.0986C153.316 55.169 150.961 58.0423 146.57 58.6808C143.617 59.1197 140.543 58.7606 137.549 58.7606C137.27 55.8873 137.35 55.8075 139.705 55.7676C141.301 55.7676 142.898 55.7676 144.495 55.7676C146.052 55.7676 146.89 54.8897 147.329 53.4531C147.808 51.9366 146.491 51.7371 145.612 51.2582C144.175 50.4601 142.738 49.6221 141.222 48.9836C139.824 48.385 139.385 47.5071 139.625 46.0305C140.144 42.439 142.06 40.0845 146.052 39.4859C148.766 39.0869 151.6 39.3662 154.354 39.5658C154.833 39.6057 155.193 40.8827 155.592 41.601C155.352 41.7606 155.153 41.9601 154.953 42.1597Z" fill="#10283F"/>
<path d="M133.518 47.1081C133.278 46.5893 133.198 46.4696 133.198 46.3499C133.478 42.918 131.921 41.6011 128.608 42.5987C128.209 42.7184 127.809 43.3968 127.69 43.8757C126.732 48.2255 125.854 52.5353 124.935 56.8851C124.816 57.4438 124.656 58.0424 124.456 58.641C122.82 58.641 121.223 58.641 119.347 58.641C119.666 56.8053 119.946 55.1691 120.305 53.4931C121.183 49.3428 122.061 45.1926 123.019 41.0823C123.139 40.5635 123.818 39.8851 124.297 39.8053C126.532 39.4461 128.767 39.1668 131.003 39.1269C132.48 39.087 134.116 39.2466 135.434 39.8053C138.867 41.2818 138.707 43.6363 137.23 46.1105C136.791 46.9485 134.755 46.8288 133.518 47.1081Z" fill="#10283F"/>
<path d="M38.5946 55.7272C39.1534 57.922 38.1954 58.8399 36.3991 58.7601C33.8045 58.6404 31.1301 58.5605 28.5754 58.0418C26.6993 57.6427 25.7413 55.9667 26.0606 54.0512C26.5795 50.8587 27.2182 47.7061 28.0565 44.5934C29.0145 41.1615 31.8087 39.7648 35.042 39.3657C36.9979 39.1263 38.9938 39.3258 40.9896 39.4855C41.4287 39.5254 42.227 40.3634 42.1472 40.5629C41.9476 41.1615 41.4287 41.9995 40.9098 42.0793C39.2732 42.3587 37.5967 42.2789 35.9601 42.4385C34.6428 42.5582 33.7646 43.2366 33.4852 44.6333C32.8465 47.6662 32.1679 50.6991 31.6091 53.7319C31.3696 55.0488 32.0881 55.7272 33.4054 55.7272C35.0819 55.7272 36.7983 55.7272 38.5946 55.7272Z" fill="#10283F"/>
<path d="M66.6963 58.6807C64.8202 58.6807 63.3034 58.6807 61.4672 58.6807C61.9462 56.1268 62.3853 53.7324 62.8643 51.2981C63.9819 45.9507 65.3391 40.6033 66.2572 35.216C66.6564 33.0611 67.814 33.3404 69.2111 33.4601C70.8876 33.5798 71.8057 34.4179 71.4465 36.1737C70.8477 39.2066 70.1691 42.2394 69.4905 45.2723C68.5724 49.7418 67.6543 54.1714 66.6963 58.6807Z" fill="#10283F"/>
<path d="M75.7174 58.6808C74.001 58.6808 72.4841 58.6808 70.6879 58.6808C71.0072 56.8052 71.2866 55.0095 71.6459 53.2536C72.9232 47.0283 74.2405 40.8428 75.5178 34.6175C75.9569 32.5424 77.5137 33.54 78.5515 33.5001C80.0684 33.4602 80.9067 34.3381 80.6272 35.9344C80.268 38.0893 79.8289 40.2442 79.3898 42.3593C78.312 47.4273 77.2343 52.4555 76.1565 57.4836C76.1166 57.8827 75.8771 58.2419 75.7174 58.6808Z" fill="#10283F"/>
</g>
</svg>
