<svg width="200" height="93" viewBox="0 0 200 93" fill="none" xmlns="http://www.w3.org/2000/svg">
<g opacity="0.9">
<g clip-path="url(#clip0_1:264)">
<path d="M121.381 66.612V58.05H117.845V66.612H121.381ZM102.661 63.057V58.179H99.234V61.908C99.234 62.991 99.19 63.295 99.125 63.577C98.887 64.357 98.062 64.704 97.217 64.704C96.045 64.704 95.503 64.248 95.286 63.534C95.2272 63.2848 95.1911 63.0308 95.178 62.775C95.156 62.493 95.178 62.189 95.178 61.865V58.179H91.707V63.079C91.707 64.185 92.076 65.009 92.683 65.571C93.724 66.591 95.481 66.894 97.108 66.894C99.082 66.894 100.601 66.612 101.685 65.55C102.249 65.008 102.661 64.292 102.661 63.057ZM85.828 62.45C85.6563 62.4202 85.4823 62.4058 85.308 62.407H81.404C81.208 62.407 80.991 62.428 80.883 62.45C80.948 62.384 81.078 62.255 81.208 62.081L82.965 59.176C83.204 58.786 83.312 58.526 83.355 58.418C83.399 58.526 83.507 58.786 83.745 59.198L85.546 62.125C85.633 62.255 85.763 62.385 85.828 62.45ZM92.379 66.612L84.57 54.907H80.19L81.34 56.272C81.36 56.294 81.405 56.315 81.448 56.338C81.404 56.359 81.361 56.381 81.339 56.402L74.529 66.612H78.476L79.539 64.856C79.5748 64.7887 79.5969 64.7149 79.604 64.639C79.647 64.639 79.756 64.682 79.864 64.682H86.914C86.9955 64.6843 87.0765 64.6697 87.152 64.639C87.1481 64.7002 87.1635 64.761 87.196 64.813L88.302 66.612H92.379ZM116.891 62.212C116.891 61.258 116.501 60.152 115.286 58.612L112.358 54.906H108.279L110.6 57.508C110.991 57.941 111.49 58.331 111.49 58.331C110.926 58.006 110.21 57.876 109.646 57.876C108.301 57.876 106.934 58.158 105.72 58.83C104.418 59.545 103.55 60.737 103.55 62.32C103.55 63.534 104.093 64.466 104.787 65.181C106.349 66.741 109.19 66.894 110.232 66.894C111.772 66.894 114.179 66.547 115.547 65.311C116.349 64.574 116.891 63.556 116.891 62.211V62.212ZM113.507 62.32C113.507 63.209 112.921 63.88 112.184 64.249C111.576 64.574 110.86 64.661 110.232 64.661C109.602 64.661 108.865 64.531 108.258 64.227C107.52 63.859 106.956 63.144 106.956 62.363C106.956 61.431 107.672 60.693 108.518 60.325C109.038 60.087 109.668 60 110.166 60C110.644 60 111.338 60.065 111.88 60.282C112.857 60.694 113.507 61.474 113.507 62.32ZM120.258 27C117.719 26.9958 115.252 27.852 113.262 29.429C111.272 27.8519 108.806 26.9957 106.266 27C103.727 26.996 101.261 27.8522 99.27 29.429C97.2796 27.8518 94.8135 26.9956 92.274 27C89.7349 26.9962 87.2693 27.8524 85.279 29.429C83.2885 27.8521 80.8225 26.9959 78.283 27C72.05 27 67 32.047 67 38.275C67 44.502 72.05 49.55 78.283 49.55C80.823 49.554 83.288 48.697 85.279 47.12C87.2691 48.6971 89.7348 49.5536 92.274 49.55C94.814 49.554 97.28 48.698 99.27 47.12C101.26 48.6972 103.726 49.5538 106.266 49.55C108.806 49.554 111.272 48.698 113.262 47.12C115.252 48.6974 117.718 49.554 120.258 49.55C126.49 49.55 131.541 44.503 131.541 38.275C131.54 32.047 126.49 27 120.258 27ZM83.433 45.279C81.9378 46.3717 80.1349 46.9627 78.283 46.967C77.141 46.9681 76.0099 46.744 74.9546 46.3076C73.8992 45.8713 72.9402 45.2312 72.1324 44.4239C71.3245 43.6166 70.6838 42.6581 70.2467 41.603C69.8096 40.5479 69.5847 39.417 69.585 38.275C69.5847 37.133 69.8096 36.0021 70.2467 34.947C70.6838 33.892 71.3245 32.9334 72.1324 32.1261C72.9402 31.3189 73.8992 30.6788 74.9546 30.2424C76.0099 29.806 77.141 29.582 78.283 29.583C80.199 29.583 81.993 30.223 83.433 31.271C81.8477 33.2608 80.9868 35.7309 80.992 38.275C80.993 40.818 81.853 43.285 83.432 45.279H83.433ZM85.279 43.439C84.1705 41.9458 83.5735 40.1347 83.577 38.275C83.5722 36.4148 84.1692 34.6029 85.279 33.11C86.3885 34.6031 86.9856 36.4148 86.981 38.275C86.9844 40.1347 86.3875 41.9458 85.279 43.439ZM97.424 45.279C95.93 46.378 94.1227 46.9686 92.268 46.964C90.4174 46.9677 88.6146 46.377 87.125 45.279C88.7044 43.286 89.5642 40.8179 89.565 38.275C89.5703 35.7314 88.7098 33.2617 87.125 31.272C88.6144 30.1735 90.4173 29.5824 92.268 29.586C94.198 29.586 95.981 30.21 97.424 31.272C95.8392 33.2617 94.9787 35.7314 94.984 38.275C94.984 40.818 95.844 43.285 97.424 45.279ZM99.27 43.439C98.1615 41.9458 97.5645 40.1347 97.568 38.275C97.5634 36.4148 98.1605 34.6031 99.27 33.11C100.38 34.6029 100.977 36.4147 100.973 38.275C100.976 40.1348 100.379 41.946 99.27 43.439ZM111.416 45.279C109.922 46.378 108.115 46.9686 106.26 46.964C104.409 46.968 102.606 46.3773 101.116 45.279C102.696 43.2861 103.555 40.818 103.556 38.275C103.561 35.7314 102.701 33.2617 101.116 31.272C102.606 30.1733 104.409 29.5822 106.26 29.586C108.19 29.586 109.973 30.21 111.416 31.272C109.831 33.2618 108.971 35.7314 108.976 38.275C108.976 40.818 109.836 43.285 111.416 45.279ZM113.262 43.439C112.153 41.9458 111.557 40.1347 111.56 38.275C111.555 36.4148 112.152 34.6029 113.262 33.11C114.372 34.6031 114.969 36.4148 114.964 38.275C114.967 40.1347 114.37 41.9457 113.262 43.439ZM120.258 46.967C118.406 46.9629 116.603 46.3719 115.108 45.279C116.688 43.286 117.548 40.818 117.549 38.275C117.554 35.7314 116.694 33.2618 115.109 31.272C116.604 30.1791 118.407 29.5878 120.259 29.583C121.401 29.5821 122.532 29.8063 123.587 30.2427C124.642 30.6791 125.601 31.3192 126.409 32.1265C127.217 32.9337 127.857 33.8923 128.294 34.9473C128.731 36.0023 128.956 37.1331 128.956 38.275C128.956 39.417 128.731 40.5479 128.294 41.603C127.857 42.6581 127.216 43.6166 126.409 44.4239C125.601 45.2312 124.642 45.8713 123.586 46.3076C122.531 46.744 121.4 46.9681 120.258 46.967Z" fill="#10283F"/>
</g>
</g>
<defs>
<clipPath id="clip0_1:264">
<rect width="65" height="40" fill="white" transform="translate(67 27)"/>
</clipPath>
</defs>
</svg>
