<svg width="200" height="93" viewBox="0 0 200 93" fill="none" xmlns="http://www.w3.org/2000/svg">
<g opacity="0.9">
<path d="M57.366 55.3465C57.366 50.0385 57.379 46.6835 57.395 46.6705C57.44 46.6455 62.413 46.1475 62.445 46.1665C62.458 46.1765 62.471 50.1905 62.471 55.0925V63.9995H57.366V55.3465ZM68.635 51.5695C68.635 41.6515 68.645 39.1335 68.676 39.1245C68.756 39.0955 73.948 38.3845 73.973 38.4015C73.986 38.4075 73.996 44.1715 73.996 51.2085V63.9995H68.635V51.5695ZM74.927 61.1295C74.927 58.8595 74.937 58.2575 74.969 58.2445C75.033 58.2225 82.635 58.0065 82.667 58.0255C82.683 58.0355 82.696 59.3125 82.696 61.0225V63.9995H74.926V61.1295H74.927ZM84.654 50.4635C84.654 43.0145 84.667 36.9175 84.68 36.9075C84.731 36.8795 90.696 36.0615 90.741 36.0775C90.78 36.0925 90.786 38.1065 90.786 50.0475V63.9995H84.654V50.4635ZM91.846 60.8765C91.846 58.4025 91.856 57.7495 91.887 57.7365C91.952 57.7185 100.681 57.4675 100.709 57.4865C100.726 57.4965 100.739 58.9645 100.739 60.7525V63.9995H91.846V60.8765ZM102.504 49.2265C102.504 37.4405 102.514 34.4465 102.546 34.4245C102.594 34.3965 109.509 33.4325 109.544 33.4545C109.557 33.4605 109.567 40.3385 109.567 48.7345V63.9995H102.504V49.2265ZM110.794 60.5845L110.803 57.1665L115.875 57.0145C118.665 56.9315 120.967 56.8715 120.986 56.8805C121.018 56.8905 121.028 57.6265 121.028 60.4485V63.9995H110.787L110.793 60.5845H110.794ZM123.211 60.4195C123.211 57.6575 123.221 56.8295 123.25 56.8145C123.272 56.8015 128.431 56.6365 134.72 56.4495L146.576 56.0975L147 56.0815V63.9995H123.211V60.4195ZM124.707 55.5685C124.697 55.5525 125.019 55.2445 125.42 54.8805C130.284 50.4725 134.62 46.2235 136.085 44.4355C137.231 43.0335 137.966 41.5595 138.159 40.2755C138.226 39.8085 138.207 39.1395 138.11 38.7855C137.963 38.2235 137.777 37.8935 137.417 37.5385C136.884 37.0185 136.142 36.7425 135.192 36.7145L134.817 36.7045L134.807 32.9315C134.801 29.6975 134.807 29.1545 134.845 29.1235C134.875 29.0975 135.215 29.0665 135.786 29.0335C136.356 28.9933 136.927 28.9893 137.497 29.0215C138.627 29.0755 139.234 29.1715 140.13 29.4405C143.125 30.3345 145.385 32.5445 146.278 35.4495C146.56 36.3745 146.66 37.1545 146.638 38.2835C146.618 39.1275 146.57 39.6065 146.406 40.4875C145.616 44.7905 143.086 48.6495 137.359 54.2935L136.412 55.2255L130.752 55.4095C124.495 55.6125 124.73 55.6095 124.707 55.5685ZM74.953 54.0875C74.937 54.0745 74.927 52.7525 74.927 51.1515C74.927 48.8495 74.937 48.2335 74.969 48.2245C75.046 48.1995 79.974 47.7935 80.019 47.8095C80.057 47.8245 80.064 48.2785 80.064 50.8095V53.7895L79.993 53.8175C79.951 53.8305 78.908 53.8935 77.672 53.9605C76.8478 54.0015 76.0238 54.0459 75.2 54.0935C75.078 54.1065 74.965 54.1035 74.953 54.0875ZM110.809 52.1495C110.797 52.1405 110.787 50.5705 110.787 48.6625C110.787 45.9165 110.797 45.1895 110.829 45.1805C110.915 45.1515 117.429 44.6165 117.477 44.6355C117.525 44.6545 117.529 44.9555 117.522 48.2305L117.512 51.8075L114.479 51.9695C112.809 52.0615 111.307 52.1405 111.137 52.1535C110.967 52.1635 110.819 52.1635 110.809 52.1495ZM53 43.8515V41.3025L53.09 41.2825C53.41 41.2205 66.75 39.3905 66.789 39.4065C66.83 39.4225 66.837 39.7425 66.837 42.1495C66.837 44.1185 66.827 44.8825 66.801 44.8985C66.769 44.9175 53.234 46.4015 53.074 46.4015H53V43.8515ZM74.95 44.0015C74.937 43.9915 74.927 42.7015 74.927 41.1345C74.927 38.8925 74.937 38.2845 74.969 38.2615C75.02 38.2295 82.639 37.1735 82.67 37.1935C82.683 37.2025 82.696 38.5505 82.696 40.1895C82.696 42.5455 82.686 43.1735 82.658 43.1825C82.622 43.1955 75.075 44.0225 74.994 44.0225C74.9767 44.0212 74.9607 44.0133 74.949 44.0005L74.95 44.0015Z" fill="#10283F"/>
<path d="M123.543 43.9537C123.53 43.9317 123.513 43.5187 123.507 43.0337C123.462 39.9037 123.999 37.2917 125.122 35.1577C125.401 34.6136 125.73 34.0967 126.105 33.6137C127.678 31.5487 129.938 30.1417 132.837 29.4237C133.161 29.3457 133.44 29.2847 133.457 29.2977C133.472 29.3077 133.485 30.8867 133.485 33.1667V37.0157L133.19 37.1557C131.919 37.7547 131.29 38.7027 131.007 40.4497C130.946 40.8177 130.937 41.0137 130.933 42.1047C130.927 42.7837 130.913 43.3417 130.898 43.3477C130.872 43.3547 123.652 43.9917 123.591 43.9917C123.578 43.9917 123.559 43.9717 123.543 43.9537ZM110.803 40.0887C110.794 40.0627 110.791 38.5187 110.794 36.6507L110.804 33.2607L115.876 32.5547C118.666 32.1677 120.968 31.8567 120.99 31.8627C121.02 31.8727 121.029 32.6147 121.029 35.4307V38.9807L120.959 39.0107C120.917 39.0257 118.682 39.2767 115.989 39.5677C113.295 39.8597 111.032 40.1037 110.958 40.1137C110.858 40.1267 110.817 40.1197 110.804 40.0887H110.803Z" fill="#10283F"/>
</g>
</svg>
