<svg width="200" height="93" viewBox="0 0 200 93" fill="none" xmlns="http://www.w3.org/2000/svg">
<g opacity="0.9">
<path d="M47.5292 35.6367L42.3592 42.6487H70.5342C71.9582 42.6487 71.9402 43.1847 71.2442 44.1317C70.5372 45.0887 69.3542 46.7457 68.6332 47.7217C68.2672 48.2137 67.6062 49.1117 69.7952 49.1117H81.3162L84.7312 44.4787C86.8482 41.6097 84.9162 35.6407 77.3442 35.6407L47.5292 35.6367Z" fill="#10283F"/>
<path d="M40.2672 58.4817L50.6512 44.3937H63.5372C64.9622 44.3937 64.9442 44.9337 64.2472 45.8767L61.6182 49.4517C61.2522 49.9447 60.5922 50.8417 62.7802 50.8417H80.0402C78.6082 52.8067 73.9472 58.4817 65.5902 58.4817H40.2682H40.2672ZM99.7352 50.8387L94.1032 58.4817H79.2492L84.8802 50.8387H99.7352ZM122.487 49.1077H86.1592L96.0932 35.6377H110.94L105.249 43.3617H111.875L117.573 35.6367H132.421L122.487 49.1077ZM121.212 50.8377L115.58 58.4817H100.733L106.364 50.8387H121.212V50.8377ZM19.0742 53.8547H40.9512L39.7582 55.4747H19.0742V53.8547ZM19.0742 50.8397H43.1762L41.9792 52.4597H19.0742V50.8397ZM19.0742 56.8697H38.7312L37.5412 58.4827H19.0742V56.8687V56.8697ZM180.882 55.4747H159.082L160.279 53.8547H180.882V55.4747ZM180.882 58.4827H156.868L158.055 56.8687H180.882V58.4827ZM162.499 50.8397H180.882V52.4637H161.306L162.499 50.8397ZM152.985 35.6367L143.051 49.1077H127.315L137.256 35.6377H152.985V35.6367ZM126.043 50.8397C126.043 50.8397 124.96 52.3217 124.43 53.0317C122.569 55.5497 124.214 58.4797 130.3 58.4797H154.147L159.777 50.8397H126.043Z" fill="#10283F"/>
</g>
</svg>
