<svg width="200" height="93" viewBox="0 0 200 93" fill="none" xmlns="http://www.w3.org/2000/svg">
<g opacity="0.9">
<path d="M166.89 30L157.798 63.972H57.4683L55.7983 63.985C53.3953 64.015 50.6823 64.04 47.9683 63.635C43.9063 63.028 40.7253 61.563 38.2533 59.15C34.9333 55.914 33.1133 51.592 33.1133 46.985C33.1133 42.923 34.5093 39.125 37.1213 36.013C39.7303 32.941 43.9913 30.861 48.8153 30.303C50.9583 30.04 52.9183 30 56.7683 30H166.89ZM157.213 63.22L165.891 30.753H56.7683C53.1183 30.753 51.0863 30.785 48.9063 31.054C44.6693 31.554 40.3943 33.294 37.6783 36.497C35.3093 39.306 33.8763 43.011 33.8763 46.985C33.8763 51.533 35.7463 55.632 38.7863 58.605C43.9663 63.652 50.8513 63.221 57.4683 63.221H157.213V63.22Z" fill="#10283F"/>
<path d="M139.266 42.5995C138.733 42.5995 138.373 42.8325 137.999 43.2005C136.723 44.4525 135.255 48.2665 134.532 51.2165C134.199 52.6305 134.042 53.4265 134.042 54.2585C134.042 55.0465 134.402 55.4905 135.019 55.4905C135.504 55.4905 136.028 55.1535 136.394 54.7635C137.059 54.0755 137.518 53.0705 138.039 51.8245C139.283 48.8845 140.172 45.0575 140.172 43.8045C140.172 43.1945 139.984 42.5985 139.266 42.5985V42.5995ZM143.777 50.7455C142.212 55.1175 139.634 58.6545 134.564 58.6545C131.054 58.6545 129.054 56.9515 129.054 53.3425C129.054 51.7475 129.451 50.0465 129.954 48.5395C131.384 44.3395 134.496 39.4245 139.464 39.4245C143.181 39.4245 144.979 41.3015 144.979 44.9715C144.979 46.7415 144.385 49.0735 143.777 50.7455ZM86.4981 53.4475C86.4981 54.5815 87.0351 55.4845 88.2681 55.4845C88.7341 55.4845 89.1701 55.4845 89.6391 55.3825L91.2781 49.4035C89.0051 49.6775 86.4981 50.7785 86.4981 53.4475ZM96.9531 46.5695L93.8511 57.8235C91.6781 58.3885 89.4381 58.7175 87.1641 58.7175C84.2961 58.7175 81.4541 57.3215 81.4541 54.0825C81.4541 48.4445 87.5341 46.8415 92.0781 46.4095C92.3141 45.6725 92.5441 44.9075 92.5441 44.1375C92.5441 42.8745 91.4411 42.5675 90.3721 42.5675C88.8741 42.5675 86.8321 42.9725 85.4021 43.4345L86.2021 40.3615C87.7351 39.6965 90.0731 39.3995 91.7471 39.3995C94.4841 39.3995 97.4241 40.2715 97.4241 43.5365C97.4241 44.5665 97.2261 45.5725 96.9531 46.5695ZM133.233 39.9235C132.48 39.5155 131.196 39.4255 130.147 39.4255C128.05 39.4255 125.572 39.7975 123.676 40.7695L118.829 58.2195H123.709L127.868 43.0325C128.579 42.7807 129.329 42.6568 130.083 42.6665C130.713 42.6665 131.068 42.6985 131.351 42.7135L133.233 39.9235ZM83.6701 39.0765C83.6701 35.7705 81.4331 34.6035 78.4261 34.6035C75.3881 34.6035 72.8181 36.0005 70.8831 38.3045C68.1731 41.5395 65.9321 48.3915 65.9321 52.5575C65.9321 56.9295 67.7391 59.0375 72.1771 59.0375C78.3661 59.0375 79.8631 54.0235 81.3011 49.0505L75.9571 50.0555C75.5261 51.4525 74.4541 55.4955 72.5791 55.4955C71.4461 55.4955 71.2121 54.4315 71.2121 53.4985C71.2121 50.6925 72.8861 45.3485 73.8871 42.6815C74.4221 41.2765 75.7921 38.0365 77.6601 38.0365C78.0901 38.0365 78.3901 38.2675 78.5201 38.4905C78.6921 38.7495 78.7401 39.0505 78.7401 39.4225C78.7401 39.5695 78.7031 40.0085 78.6331 40.3245C78.5031 40.9875 77.5291 44.5115 77.5291 44.5115L82.6691 43.6145C83.0661 42.2345 83.6701 40.5045 83.6701 39.0765ZM110.509 39.9285C109.269 39.5645 107.907 39.3985 106.63 39.3985C102.861 39.3985 98.8671 41.4305 98.8321 45.6725C98.7991 49.5125 103.469 50.8085 103.445 52.9835C103.425 54.7545 101.853 55.4215 100.32 55.4215C99.0811 55.4215 97.7651 55.2545 96.5671 54.9205L95.7161 57.8565C97.2831 58.3595 99.1891 58.5895 100.817 58.5895C104.63 58.5895 108.153 56.4215 108.194 52.2835C108.233 48.2065 103.829 47.3115 103.844 44.9725C103.859 43.1625 105.671 42.6365 107.178 42.6365C107.972 42.6365 108.842 42.6995 109.646 42.8745L110.509 39.9285ZM122.021 40.0355H118.451L119.842 34.8875L114.704 35.7275L113.575 40.0355H111.8L110.998 42.8745H112.771C112.771 42.8745 110.028 52.8485 109.83 53.6785C109.697 54.2185 109.562 54.8835 109.562 55.4215C109.562 56.7565 110.434 57.7215 111.564 58.0245C111.992 58.1585 112.731 58.2205 113.575 58.2205H117.116L117.911 55.3525H116.113C115.313 55.3525 114.576 55.2825 114.576 54.3495C114.576 54.1165 114.643 53.8455 114.705 53.5185C114.805 53.1145 117.648 42.8745 117.648 42.8745H121.214L122.022 40.0345L122.021 40.0355ZM150.085 52.9485C149.977 53.4175 149.913 53.8215 149.913 54.1495C149.913 55.1495 150.682 55.3525 151.518 55.3525H153.192L152.518 58.2205H149.18C148.135 58.2205 147.306 58.1175 146.804 57.9225C145.672 57.4525 144.937 56.4515 144.937 54.9495C144.937 54.2795 145.071 53.5845 145.235 52.8845C145.437 52.0145 149.941 35.8605 149.941 35.8605L155.059 34.8875C155.059 34.8875 150.249 52.2095 150.085 52.9485ZM45.9931 47.9115C45.9517 47.9118 45.9107 47.9038 45.8725 47.8882C45.8342 47.8725 45.7994 47.8494 45.7701 47.8202C45.7408 47.791 45.7176 47.7563 45.7018 47.7181C45.686 47.6798 45.678 47.6389 45.6781 47.5975C45.6781 47.4215 45.8131 47.2805 45.9921 47.2805H46.8461C47.0121 47.2805 47.1631 47.4215 47.1631 47.5975C47.1631 47.7675 47.0131 47.9115 46.8461 47.9115H45.9921H45.9931ZM45.0561 46.8655C44.9989 46.8655 44.944 46.8429 44.9034 46.8027C44.8627 46.7624 44.8396 46.7077 44.8391 46.6505C44.8391 46.5275 44.9361 46.4335 45.0561 46.4335H45.5961C45.7121 46.4335 45.8091 46.5265 45.8091 46.6505C45.8091 46.7072 45.7867 46.7616 45.7468 46.8018C45.7069 46.8421 45.6528 46.865 45.5961 46.8655H45.0561ZM45.0231 48.7765H44.4951C44.4666 48.7763 44.4384 48.7703 44.4123 48.7591C44.3861 48.7479 44.3624 48.7315 44.3426 48.7111C44.3228 48.6906 44.3072 48.6664 44.2968 48.6399C44.2864 48.6133 44.2814 48.585 44.2821 48.5565C44.2821 48.4375 44.3781 48.3405 44.4951 48.3405H45.0231C45.1421 48.3405 45.2411 48.4375 45.2411 48.5555C45.2414 48.6137 45.2186 48.6696 45.1777 48.711C45.1369 48.7524 45.0813 48.776 45.0231 48.7765ZM43.9551 47.8095H43.4301C43.3731 47.809 43.3185 47.786 43.2783 47.7456C43.2381 47.7052 43.2154 47.6505 43.2151 47.5935C43.2151 47.4715 43.3091 47.3735 43.4301 47.3735H43.9551C44.0129 47.3735 44.0684 47.3965 44.1092 47.4374C44.1501 47.4782 44.1731 47.5337 44.1731 47.5915C44.1731 47.6493 44.1501 47.7048 44.1092 47.7457C44.0684 47.7865 44.0129 47.8095 43.9551 47.8095ZM42.9431 46.8655H42.4121C42.3836 46.8658 42.3554 46.8604 42.3291 46.8497C42.3027 46.8391 42.2787 46.8233 42.2584 46.8033C42.2382 46.7833 42.2221 46.7596 42.211 46.7333C42.2 46.7071 42.1942 46.679 42.1941 46.6505C42.1941 46.5275 42.2891 46.4335 42.4121 46.4335H42.9421C43.0641 46.4335 43.1641 46.5265 43.1641 46.6505C43.1628 46.7082 43.1389 46.763 43.0976 46.8032C43.0562 46.8434 43.0008 46.8658 42.9431 46.8655ZM42.3781 48.7765H41.8481C41.7893 48.7758 41.733 48.7526 41.6908 48.7117C41.6486 48.6708 41.6236 48.6152 41.6211 48.5565C41.6211 48.4375 41.7281 48.3405 41.8471 48.3405H42.3771C42.4971 48.3405 42.5911 48.4375 42.5911 48.5555C42.5911 48.6745 42.4971 48.7765 42.3781 48.7765ZM42.9811 44.5195H43.5081C43.6301 44.5195 43.7311 44.6175 43.7311 44.7395C43.7311 44.7687 43.7253 44.7975 43.7141 44.8244C43.7028 44.8513 43.6863 44.8757 43.6656 44.8961C43.6449 44.9166 43.6202 44.9328 43.5932 44.9436C43.5662 44.9545 43.5372 44.9599 43.5081 44.9595H42.9811C42.8561 44.9595 42.7611 44.8595 42.7611 44.7395C42.7611 44.6175 42.8561 44.5195 42.9811 44.5195ZM44.0041 45.4595H44.5401C44.6591 45.4595 44.7611 45.5575 44.7611 45.6795C44.7603 45.7375 44.7366 45.7929 44.6953 45.8335C44.6539 45.8741 44.5981 45.8968 44.5401 45.8965H44.0031C43.9741 45.897 43.9453 45.8918 43.9184 45.8812C43.8914 45.8706 43.8668 45.8547 43.846 45.8346C43.8252 45.8144 43.8086 45.7903 43.7971 45.7637C43.7856 45.7371 43.7795 45.7085 43.7791 45.6795C43.7791 45.5575 43.8801 45.4595 44.0031 45.4595H44.0041ZM45.6291 44.5195H46.1591C46.2791 44.5195 46.3791 44.6175 46.3791 44.7395C46.3791 44.8595 46.2791 44.9595 46.1591 44.9595H45.6291C45.5699 44.9601 45.5129 44.9373 45.4705 44.8961C45.428 44.8549 45.4034 44.7987 45.4021 44.7395C45.4021 44.6175 45.5061 44.5195 45.6291 44.5195ZM47.4021 45.3615C47.5801 45.3615 47.7201 45.5055 47.7201 45.6765C47.7201 45.8495 47.5801 45.9865 47.4021 45.9865H46.5511C46.4675 45.9873 46.3869 45.9553 46.3267 45.8973C46.2665 45.8394 46.2314 45.7601 46.2291 45.6765C46.2291 45.5055 46.3791 45.3615 46.5511 45.3615H47.4021Z" fill="#10283F"/>
<path d="M44.0008 45.8977H44.5368C44.5948 45.898 44.6506 45.8753 44.692 45.8347C44.7334 45.794 44.757 45.7387 44.7578 45.6807C44.7573 45.6223 44.7338 45.5665 44.6925 45.5254C44.6511 45.4842 44.5952 45.461 44.5368 45.4607H43.9998C43.9707 45.4604 43.9418 45.4659 43.9147 45.4768C43.8877 45.4877 43.8631 45.5039 43.8423 45.5243C43.8215 45.5447 43.8049 45.5691 43.7935 45.5959C43.7821 45.6227 43.7761 45.6515 43.7758 45.6807C43.7762 45.7097 43.7823 45.7383 43.7938 45.7649C43.8053 45.7915 43.8219 45.8156 43.8427 45.8358C43.8636 45.8559 43.8881 45.8718 43.9151 45.8824C43.9421 45.893 43.9709 45.8982 43.9998 45.8977H44.0008ZM45.6258 44.9597H46.1558C46.2758 44.9597 46.3758 44.8607 46.3758 44.7397C46.3756 44.6815 46.3523 44.6258 46.311 44.5848C46.2698 44.5437 46.214 44.5207 46.1558 44.5207H45.6258C45.5666 44.5199 45.5094 44.5426 45.4669 44.5838C45.4244 44.6251 45.3999 44.6815 45.3988 44.7407C45.3988 44.8607 45.5018 44.9607 45.6258 44.9607V44.9597ZM49.4728 44.2697H48.5828C48.488 44.2672 48.3946 44.2934 48.315 44.3449C48.2353 44.3964 48.1731 44.4708 48.1365 44.5583C48.1 44.6459 48.0907 44.7424 48.1101 44.8353C48.1294 44.9282 48.1764 45.013 48.2448 45.0787C48.3348 45.1687 48.4568 45.2187 48.5838 45.2177H49.2438L49.5308 44.2707H49.4728V44.2697ZM46.2258 45.6777C46.2258 45.8507 46.3758 45.9877 46.5478 45.9877H47.3988C47.4401 45.9885 47.4812 45.9811 47.5196 45.9659C47.558 45.9507 47.593 45.928 47.6226 45.8992C47.6522 45.8703 47.6758 45.8359 47.6919 45.7979C47.7081 45.7599 47.7166 45.719 47.7168 45.6777C47.7163 45.5938 47.6825 45.5135 47.6229 45.4545C47.5633 45.3954 47.4827 45.3624 47.3988 45.3627H46.5478C46.4638 45.3632 46.3832 45.3963 46.3231 45.4551C46.2631 45.5139 46.2282 45.5937 46.2258 45.6777ZM46.9698 48.5477C46.9698 48.8087 47.1878 49.0217 47.4448 49.0217H48.1228L48.4028 48.0737H47.4448C47.3191 48.074 47.1986 48.124 47.1096 48.2128C47.0206 48.3016 46.9704 48.422 46.9698 48.5477ZM47.5598 46.6437C47.5598 46.9077 47.7728 47.1317 48.0318 47.1317H48.6778V47.1277H48.6818L48.9688 46.1577H48.0318C47.9051 46.1608 47.7847 46.2135 47.6963 46.3043C47.6079 46.3951 47.5585 46.517 47.5588 46.6437H47.5598ZM45.0188 48.3417H44.4918C44.4352 48.3422 44.381 48.3651 44.3411 48.4054C44.3012 48.4456 44.2788 48.5 44.2788 48.5567C44.2788 48.6757 44.3678 48.7777 44.4918 48.7777H45.0198C45.0778 48.7772 45.1333 48.7538 45.1741 48.7126C45.2149 48.6714 45.2378 48.6157 45.2378 48.5577C45.2378 48.4387 45.1378 48.3417 45.0198 48.3417H45.0188ZM45.8058 46.6517C45.8062 46.6234 45.801 46.5954 45.7905 46.5691C45.78 46.5429 45.7644 46.519 45.7446 46.4988C45.7248 46.4786 45.7012 46.4626 45.6751 46.4516C45.6491 46.4406 45.6211 46.4348 45.5928 46.4347H45.0528C45.0243 46.4344 44.9959 46.4399 44.9695 46.4507C44.943 46.4615 44.919 46.4775 44.8988 46.4977C44.8786 46.5179 44.8626 46.5419 44.8518 46.5683C44.841 46.5948 44.8356 46.6231 44.8358 46.6517C44.8358 46.7697 44.9328 46.8667 45.0528 46.8667H45.5928C45.6209 46.8666 45.6487 46.8609 45.6747 46.85C45.7006 46.8392 45.7241 46.8233 45.7439 46.8033C45.7636 46.7834 45.7793 46.7597 45.7899 46.7337C45.8006 46.7077 45.806 46.6798 45.8058 46.6517ZM47.1598 47.5987C47.1585 47.5149 47.1246 47.4348 47.0652 47.3756C47.0058 47.3164 46.9257 47.2827 46.8418 47.2817H45.9888C45.9473 47.2814 45.9061 47.2895 45.8677 47.3053C45.8292 47.3212 45.7944 47.3446 45.7651 47.3741C45.7359 47.4037 45.7128 47.4387 45.6973 47.4773C45.6818 47.5159 45.6742 47.5571 45.6748 47.5987C45.6747 47.64 45.6827 47.6809 45.6985 47.719C45.7142 47.7572 45.7373 47.7918 45.7665 47.821C45.7957 47.8502 45.8304 47.8733 45.8685 47.8891C45.9067 47.9048 45.9476 47.9128 45.9888 47.9127H46.8418C46.9251 47.9114 47.0047 47.8781 47.0639 47.8196C47.1232 47.7611 47.1575 47.6819 47.1598 47.5987ZM42.9778 44.9597H43.5048C43.5349 44.9617 43.5651 44.9576 43.5935 44.9475C43.6219 44.9373 43.6479 44.9215 43.6699 44.9009C43.6919 44.8803 43.7095 44.8555 43.7215 44.8278C43.7335 44.8002 43.7397 44.7703 43.7397 44.7402C43.7397 44.7101 43.7335 44.6802 43.7215 44.6526C43.7095 44.6249 43.6919 44.6001 43.6699 44.5795C43.6479 44.5589 43.6219 44.5431 43.5935 44.533C43.5651 44.5228 43.5349 44.5187 43.5048 44.5207H42.9778C42.9488 44.5203 42.92 44.5257 42.8932 44.5366C42.8663 44.5475 42.8419 44.5637 42.8214 44.5842C42.8009 44.6047 42.7847 44.6292 42.7738 44.656C42.7628 44.6829 42.7574 44.7117 42.7578 44.7407C42.7578 44.8607 42.8528 44.9607 42.9778 44.9607" fill="#10283F"/>
<path d="M56.4631 45.0395H55.8641C55.795 45.0395 55.7288 45.0122 55.6799 44.9634C55.631 44.9147 55.6034 44.8486 55.6031 44.7795C55.6031 44.6355 55.7231 44.5195 55.8641 44.5195H56.4631C56.6041 44.5195 56.7151 44.6355 56.7151 44.7795C56.7151 44.9245 56.6041 45.0395 56.4631 45.0395ZM55.9011 46.8975H55.3011C55.2675 46.8977 55.2342 46.8912 55.2031 46.8784C55.1719 46.8657 55.1436 46.8469 55.1198 46.8233C55.0959 46.7996 55.0769 46.7714 55.064 46.7404C55.051 46.7094 55.0442 46.6761 55.0441 46.6425C55.0441 46.4965 55.1671 46.3815 55.3001 46.3815H55.9001C55.9346 46.3811 55.9688 46.3876 56.0007 46.4005C56.0327 46.4135 56.0618 46.4327 56.0862 46.457C56.1107 46.4813 56.1301 46.5102 56.1433 46.542C56.1565 46.5739 56.1632 46.608 56.1631 46.6425C56.1632 46.6767 56.1565 46.7105 56.1433 46.7419C56.1301 46.7734 56.1107 46.8019 56.0863 46.8257C56.0618 46.8495 56.0328 46.8681 56.001 46.8805C55.9692 46.8928 55.9352 46.8986 55.9011 46.8975ZM55.3401 48.7765H54.7481C54.7134 48.7767 54.679 48.7699 54.6469 48.7567C54.6148 48.7435 54.5857 48.724 54.5611 48.6995C54.5366 48.675 54.5171 48.6458 54.5039 48.6137C54.4907 48.5816 54.484 48.5472 54.4841 48.5125C54.4841 48.3695 54.5961 48.2535 54.7481 48.2535H55.3401C55.4881 48.2535 55.6031 48.3695 55.6031 48.5125C55.6031 48.5824 55.5754 48.6494 55.5261 48.6989C55.4768 48.7483 55.4099 48.7763 55.3401 48.7765ZM54.1271 47.8575H53.5321C53.4633 47.857 53.3975 47.8294 53.3488 47.7808C53.3002 47.7322 53.2726 47.6663 53.2721 47.5975C53.2721 47.4455 53.3911 47.3355 53.5321 47.3355H54.1271C54.2701 47.3355 54.3871 47.4455 54.3871 47.5975C54.3871 47.6317 54.3804 47.6655 54.3673 47.697C54.3542 47.7286 54.3351 47.7572 54.3109 47.7814C54.2868 47.8055 54.2581 47.8247 54.2266 47.8377C54.195 47.8508 54.1612 47.8575 54.1271 47.8575ZM52.9151 46.8975H52.3191C52.285 46.8989 52.251 46.8933 52.2192 46.881C52.1873 46.8688 52.1583 46.8501 52.134 46.8262C52.1096 46.8023 52.0904 46.7737 52.0775 46.7421C52.0647 46.7105 52.0584 46.6766 52.0591 46.6425C52.0591 46.4965 52.1711 46.3815 52.3191 46.3815H52.9151C53.0571 46.3815 53.1761 46.4965 53.1761 46.6425C53.1761 46.7905 53.0561 46.8975 52.9151 46.8975ZM52.3511 48.7765H51.7611C51.691 48.776 51.6238 48.7481 51.5739 48.6988C51.524 48.6495 51.4954 48.5827 51.4941 48.5125C51.4941 48.3695 51.6141 48.2535 51.7611 48.2535H52.3511C52.4971 48.2535 52.6181 48.3695 52.6181 48.5125C52.6165 48.5826 52.5878 48.6493 52.538 48.6985C52.4882 48.7478 52.4212 48.7758 52.3511 48.7765ZM50.3281 47.9455C50.2338 47.9474 50.1427 47.9118 50.0746 47.8466C50.0066 47.7813 49.9672 47.6918 49.9651 47.5975C49.9651 47.3975 50.1281 47.2345 50.3281 47.2355H51.2991C51.4941 47.2355 51.6591 47.3985 51.6591 47.5975C51.6567 47.6912 51.6177 47.7801 51.5503 47.8452C51.483 47.9103 51.3928 47.9463 51.2991 47.9455H50.3291H50.3281ZM50.8881 45.3195H51.8641C52.0581 45.3195 52.2171 45.4855 52.2171 45.6765C52.2171 45.8765 52.0591 46.0375 51.8641 46.0375H50.8871C50.8377 46.0412 50.7881 46.0347 50.7413 46.0183C50.6946 46.0019 50.6517 45.9761 50.6154 45.9424C50.5791 45.9087 50.5501 45.8679 50.5303 45.8225C50.5105 45.7771 50.5003 45.7281 50.5003 45.6785C50.5003 45.629 50.5105 45.58 50.5303 45.5346C50.5501 45.4892 50.5791 45.4484 50.6154 45.4147C50.6517 45.381 50.6946 45.3551 50.7413 45.3388C50.7881 45.3224 50.8377 45.3158 50.8871 45.3195H50.8881ZM52.8781 44.5195H53.4721C53.541 44.5195 53.6072 44.5469 53.6559 44.5957C53.7047 44.6444 53.7321 44.7106 53.7321 44.7795C53.7321 44.8485 53.7047 44.9146 53.6559 44.9634C53.6072 45.0121 53.541 45.0395 53.4721 45.0395H52.8791C52.8102 45.0393 52.7442 45.0118 52.6955 44.9631C52.6468 44.9144 52.6194 44.8484 52.6191 44.7795C52.6191 44.6355 52.7391 44.5195 52.8791 44.5195H52.8781ZM54.0931 45.4195H54.6831C54.7172 45.419 54.7511 45.4253 54.7828 45.4379C54.8145 45.4506 54.8434 45.4694 54.8678 45.4933C54.8921 45.5172 54.9115 45.5457 54.9248 45.5772C54.9381 45.6086 54.945 45.6424 54.9451 45.6765C54.9459 45.7113 54.9397 45.7458 54.927 45.7781C54.9142 45.8104 54.8951 45.8398 54.8707 45.8646C54.8464 45.8894 54.8174 45.9091 54.7853 45.9225C54.7532 45.9359 54.7188 45.9427 54.6841 45.9425H54.0931C54.0234 45.9415 53.957 45.9129 53.9083 45.8631C53.8596 45.8133 53.8326 45.7462 53.8331 45.6765C53.8331 45.5365 53.9511 45.4195 54.0931 45.4195ZM63.3781 44.2695H50.3281C50.5391 44.3295 50.6841 44.5205 50.6841 44.7395C50.6848 44.8018 50.6731 44.8637 50.6497 44.9215C50.6263 44.9792 50.5918 45.0318 50.548 45.0762C50.5042 45.1205 50.4521 45.1557 50.3946 45.1798C50.3371 45.2039 50.2754 45.2164 50.2131 45.2165H49.2481L48.9651 46.1565H49.6651C49.7937 46.1565 49.9171 46.2076 50.008 46.2986C50.099 46.3895 50.1501 46.5129 50.1501 46.6415C50.1501 46.7702 50.099 46.8935 50.008 46.9845C49.9171 47.0754 49.7937 47.1265 49.6651 47.1265H48.6851L48.6821 47.1305H48.6811L48.4051 48.0725H49.0731C49.3331 48.0725 49.5451 48.2825 49.5451 48.5465C49.5451 48.7805 49.3731 48.9765 49.1401 49.0265H63.5131C63.7502 47.4454 63.7049 45.8348 63.3791 44.2695H63.3781ZM42.3781 48.3395H41.8481C41.7281 48.3395 41.6211 48.4375 41.6211 48.5555C41.6211 48.6745 41.7281 48.7765 41.8471 48.7765H42.3771C42.4971 48.7765 42.5911 48.6745 42.5911 48.5565C42.5914 48.5283 42.586 48.5004 42.5755 48.4743C42.5649 48.4481 42.5493 48.4243 42.5295 48.4043C42.5097 48.3842 42.4861 48.3682 42.4601 48.3573C42.4342 48.3464 42.4063 48.3407 42.3781 48.3405V48.3395ZM43.9551 47.3735H43.4301C43.4015 47.3738 43.3733 47.3797 43.347 47.3909C43.3207 47.4021 43.2969 47.4184 43.2769 47.4389C43.2569 47.4593 43.2412 47.4835 43.2306 47.51C43.22 47.5366 43.2147 47.5649 43.2151 47.5935C43.2151 47.7085 43.3091 47.8095 43.4301 47.8095H43.9551C43.9837 47.8098 44.0121 47.8044 44.0387 47.7937C44.0652 47.783 44.0894 47.7672 44.1098 47.7471C44.1303 47.727 44.1465 47.7032 44.1577 47.6768C44.1689 47.6505 44.1748 47.6222 44.1751 47.5935C44.1755 47.5645 44.1701 47.5357 44.1592 47.5089C44.1483 47.482 44.1321 47.4576 44.1116 47.4371C44.091 47.4166 44.0666 47.4004 44.0398 47.3895C44.0129 47.3785 43.9841 47.3731 43.9551 47.3735ZM42.9431 46.4335H42.4121C42.3833 46.433 42.3547 46.4383 42.328 46.449C42.3013 46.4598 42.2771 46.4758 42.2567 46.4962C42.2364 46.5165 42.2203 46.5408 42.2096 46.5675C42.1988 46.5942 42.1936 46.6228 42.1941 46.6515C42.1941 46.7685 42.2891 46.8655 42.4121 46.8655H42.9421C42.9998 46.8661 43.0553 46.844 43.0969 46.8039C43.1384 46.7639 43.1625 46.7092 43.1641 46.6515C43.1641 46.5275 43.0641 46.4335 42.9431 46.4335Z" fill="#10283F"/>
<path d="M42.4977 51.0347C41.6317 51.0347 40.8997 50.9397 40.3927 50.7037C39.5877 50.3367 38.9677 49.5847 38.9677 48.3907C38.9677 47.3807 39.2557 46.4477 39.6047 45.2627L42.1707 36.2807C38.9107 38.7307 36.8047 42.6237 36.8047 47.0117C36.8047 54.4237 42.8147 60.4297 50.2317 60.4297C56.2477 60.4297 61.3367 56.4797 63.0467 51.0347H42.4977ZM50.2307 33.5957C48.6027 33.5957 47.0417 33.8847 45.5977 34.4137L43.3977 42.2457H62.7877C60.8617 37.1897 55.9667 33.5957 50.2317 33.5957H50.2307Z" fill="#10283F"/>
</g>
</svg>
