<svg width="200" height="93" viewBox="0 0 200 93" fill="none" xmlns="http://www.w3.org/2000/svg">
<g opacity="0.9">
<path d="M88.1754 39.8127H85.5257C80.2264 39.8127 75.7164 53.1024 81.9459 53.1024H85.9767C88.2881 53.1024 90.0075 53.9471 89.2465 56.1996L88.2035 59.325H83.9472L80.4801 59.2968C76.0547 59.2405 73.1795 57.0725 72.1648 53.8063C71.0373 50.2587 72.6158 42.8254 77.1822 38.067C79.8318 35.3077 83.4962 33.6465 88.2035 33.6465H96.9135L95.5323 37.4757C94.6585 39.9816 92.8545 39.8127 91.8397 39.8127H88.1754Z" fill="#10283F"/>
<path fill-rule="evenodd" clip-rule="evenodd" d="M136.179 43.3604C132.148 43.3604 126.2 43.3604 122.17 43.3604C119.858 43.3604 118.815 44.0079 118.392 45.3313L117.068 49.5829C121.098 49.5829 127.046 49.5829 131.077 49.5829C133.388 49.5829 134.431 48.9353 134.854 47.6119L136.179 43.3604Z" fill="#10283F"/>
<path fill-rule="evenodd" clip-rule="evenodd" d="M139.42 33.5908C135.39 33.5908 129.442 33.5908 125.411 33.5908C123.1 33.5908 122.057 34.2384 121.634 35.5618L120.309 39.8133C124.34 39.8133 130.288 39.8133 134.318 39.8133C136.63 39.8133 137.673 39.1658 138.096 37.8424L139.42 33.5908ZM132.768 53.1031C128.737 53.1031 122.79 53.1031 118.759 53.1031C116.447 53.1031 115.404 53.7507 114.982 55.074L113.657 59.3256C117.688 59.3256 123.635 59.3256 127.666 59.3256C129.977 59.3256 131.02 58.678 131.443 57.3547L132.768 53.1031Z" fill="#10283F"/>
<path d="M104.242 39.7844H107.737C110.697 39.7844 110.021 43.501 108.527 47.105C107.202 50.2866 104.862 53.1023 102.044 53.1023H96.2369C93.9255 53.1023 92.8544 53.7499 92.4034 55.0732L90.9658 59.3248H95.2222L99.3939 59.2966C103.086 59.2685 106.103 58.9869 109.654 55.8334C113.403 52.4828 117.744 43.7826 117.011 38.7426C116.419 34.8007 114.305 33.6182 109.147 33.6182H99.7885L94.3201 49.5827H97.7872C99.8449 49.5827 100.888 49.6109 101.987 46.6545L104.242 39.7844Z" fill="#10283F"/>
<path d="M133.839 59.3256H140.435L143.282 51.2166L146.242 48.7389L148.553 56.0595C149.258 58.312 150.019 59.3256 151.626 59.3256H156.671L151.456 44.9659L164 33.5908H155.882L148.271 41.6998C147.397 42.629 146.495 43.5581 145.593 44.6844H145.509L149.314 33.619H142.718L133.839 59.3256Z" fill="#10283F"/>
<path fill-rule="evenodd" clip-rule="evenodd" d="M51.5314 62C42.9342 62 36 55.0736 36 46.5141C36 37.9264 42.9342 31 51.5314 31C60.1004 31 67.0628 37.9264 67.0628 46.5141C67.0346 55.0736 60.1004 62 51.5314 62Z" fill="#10283F"/>
<path fill-rule="evenodd" clip-rule="evenodd" d="M45.1609 41.6145C47.0213 42.0368 48.9099 42.2902 50.9676 42.3465C54.3783 42.4592 58.0991 42.3747 62.5809 42.3465H64.1312C64.4976 42.3465 64.6104 42.7689 64.1876 42.8815L62.8064 43.2757C54.4347 45.8098 48.0643 48.9069 43.4415 56.481C43.2442 56.7907 42.9623 56.6217 42.9905 56.2557C43.4697 52.7643 43.9771 49.8643 45.5837 46.6826C44.6536 45.3874 44.9072 43.9514 43.9489 41.8397C43.8361 41.6145 43.7516 41.4174 43.6952 41.2485C43.5542 40.8824 43.7797 40.7416 44.0616 40.8543C44.7945 41.164 44.2871 41.4174 45.1609 41.6145Z" fill="#FBFCFF"/>
<path fill-rule="evenodd" clip-rule="evenodd" d="M45.1609 41.6145C47.0213 42.0369 48.9099 42.2903 50.9676 42.3466C54.0118 42.4592 57.2816 42.3747 61.1151 42.3466C53.589 44.768 47.5569 48.2031 43.216 54.8761C43.667 51.976 44.2307 49.4138 45.6119 46.6826C45.3864 46.3729 45.1609 46.0632 44.9354 45.7535C44.9918 45.6409 45.0482 45.5282 45.1045 45.4156C44.2307 44.2049 43.2442 42.8252 42.3422 40.9669C42.3704 40.7698 42.5395 40.7417 42.7368 40.8261C43.4415 41.1077 44.2871 41.4174 45.1609 41.6145Z" fill="#10283F"/>
<path fill-rule="evenodd" clip-rule="evenodd" d="M43.808 39.1374C45.6683 39.5598 47.5569 39.8132 49.6146 39.8695C53.0253 39.9821 56.7461 39.8976 61.2279 39.8695H62.7782C63.1447 39.8695 63.2574 40.2918 62.8346 40.4045L61.4534 40.7986C53.0817 43.3327 46.4576 46.9367 41.8348 54.5107C41.6375 54.8204 41.3274 54.7641 41.3838 54.3981C41.9758 50.9349 42.6241 47.3872 44.2308 44.2055C43.3006 42.9104 42.2013 41.3899 41.2429 39.2782C41.1301 39.0248 41.0456 38.884 40.9892 38.7151C40.8483 38.349 41.1019 38.1801 41.4402 38.3209C41.7785 38.518 42.9341 38.9403 43.808 39.1374Z" fill="#FBFCFF"/>
</g>
</svg>
