<svg width="200" height="93" viewBox="0 0 200 93" fill="none" xmlns="http://www.w3.org/2000/svg">
<g opacity="0.8">
<path fill-rule="evenodd" clip-rule="evenodd" d="M78.7344 47.3454C78.7344 35.5024 88.3544 25.9004 100.222 25.9004C112.089 25.9004 121.71 35.5014 121.71 47.3454C121.71 59.1904 112.089 68.7904 100.222 68.7904C88.3534 68.7904 78.7344 59.1904 78.7344 47.3464V47.3454Z" fill="#10283F"/>
<path fill-rule="evenodd" clip-rule="evenodd" d="M100.528 32.553C101.893 32.553 103.218 32.736 104.478 33.077L100.283 42.44L96.1694 33.193C97.5874 32.753 98.9664 32.553 100.529 32.553H100.528ZM97.8914 47.799L95.0194 54.169L88.2154 38.909C89.3681 37.2835 90.8283 35.8997 92.5134 34.836L98.0264 47.236H102.974L108.513 34.834C109.87 35.68 111.086 36.734 112.115 37.957C112.257 38.137 112.397 38.321 112.533 38.507L105.53 54.17L102.678 47.8H97.8914V47.799ZM93.4914 61.014C88.6854 58.48 85.4014 53.442 85.4014 47.651C85.4014 46.256 85.5714 44.945 85.9274 43.662L93.7174 61.125C93.6274 61.082 93.5824 61.057 93.4904 61.014H93.4914ZM100.261 62.604C98.9314 62.604 97.6164 62.433 96.3444 62.094L100.475 52.774L104.61 61.984C103.197 62.394 101.732 62.603 100.26 62.604H100.261ZM107.424 60.814L115.001 43.827C115.291 45.009 115.441 46.223 115.441 47.454C115.437 50.1975 114.689 52.8886 113.278 55.241C111.866 57.5935 109.843 59.5194 107.424 60.814ZM100.513 66.349C110.843 66.349 119.245 57.963 119.245 47.653C119.245 37.343 110.843 28.958 100.513 28.958C90.1834 28.958 81.7804 37.345 81.7804 47.653C81.7804 57.963 90.1834 66.349 100.512 66.349H100.513Z" fill="#10283F"/>
<path fill-rule="evenodd" clip-rule="evenodd" d="M84.8884 47.3453C84.8884 53.5553 88.5944 58.9013 93.9184 61.3013L85.6124 42.6833C85.1311 44.1904 84.8868 45.7632 84.8884 47.3453ZM87.7654 38.4203L94.9724 54.5743L97.9614 47.8853H102.485L105.475 54.5713L112.68 38.4203C111.457 36.7235 109.901 35.2937 108.107 34.2183L102.485 46.8063H97.9614L92.3414 34.2173C90.5458 35.2922 88.9887 36.7224 87.7654 38.4203ZM114.831 42.6833L106.525 61.3013C111.85 58.9013 115.554 53.5563 115.554 47.3453C115.554 45.7193 115.301 44.1543 114.831 42.6833ZM104.724 61.9793L100.224 51.8893L95.7244 61.9793C97.1464 62.4153 98.6564 62.6493 100.222 62.6493C101.79 62.6493 103.301 62.4143 104.724 61.9793ZM95.7244 32.7123L100.224 42.8023L104.724 32.7123C103.265 32.2665 101.748 32.0406 100.222 32.0423C98.6564 32.0423 97.1454 32.2763 95.7234 32.7123H95.7244ZM81.7034 47.3453C81.7034 37.1383 89.9934 28.8633 100.221 28.8633C110.448 28.8633 118.739 37.1373 118.739 47.3453C118.739 57.5533 110.45 65.8293 100.222 65.8293C89.9954 65.8293 81.7034 57.5543 81.7034 47.3463V47.3453Z" fill="#FBFCFF"/>
</g>
</svg>
