<svg width="200" height="93" viewBox="0 0 200 93" fill="none" xmlns="http://www.w3.org/2000/svg">
<g opacity="0.8">
<path d="M61.2616 51.9109H58.0952L53.5436 45.6733H49.4867V51.9109H47.013V35.0792H54.3352C58.0952 35.0792 60.569 37.0594 60.569 40.2277C60.569 42.703 58.9858 44.4851 56.4131 45.1782L61.2616 51.9109ZM49.3878 43.396H54.0383C56.3142 43.396 57.7984 42.2079 57.7984 40.4257C57.7984 38.6436 56.4131 37.5545 54.0383 37.5545H49.3878V43.396ZM71.6512 52.0099H69.1775V35.1782H71.6512V52.0099ZM83.8219 52.0099H81.3482V35.1782H93.6178V37.5545H83.8219V42.604H92.5294V44.9802H83.8219V52.0099ZM113.111 52.0099H101.534V35.1782H104.007V49.6337H113.111V52.0099ZM149.92 47.5545L144.576 39.5347V52.0099H143.389H142.202V35.1782H144.576L150.315 43.6931L156.054 35.1782H158.429V52.0099H157.143H155.857V39.5347L150.513 47.5545L150.315 47.8515L149.92 47.5545ZM179.901 52.0099H167.434V35.1782H179.802V37.5545H170.006V42.4059H178.813V44.7822H170.006V49.7327H180V52.0099H179.901ZM61.2616 51.9109H58.0952L53.5436 45.6733H49.4867V51.9109H47.013V35.0792H54.3352C58.0952 35.0792 60.569 37.0594 60.569 40.2277C60.569 42.703 58.9858 44.4851 56.4131 45.1782L61.2616 51.9109ZM49.3878 43.396H54.0383C56.3142 43.396 57.7984 42.2079 57.7984 40.4257C57.7984 38.6436 56.4131 37.5545 54.0383 37.5545H49.3878V43.396ZM61.2616 51.9109H58.0952L53.5436 45.6733H49.4867V51.9109H47.013V35.0792H54.3352C58.0952 35.0792 60.569 37.0594 60.569 40.2277C60.569 42.703 58.9858 44.4851 56.4131 45.1782L61.2616 51.9109ZM49.3878 43.396H54.0383C56.3142 43.396 57.7984 42.2079 57.7984 40.4257C57.7984 38.6436 56.4131 37.5545 54.0383 37.5545H49.3878V43.396ZM61.2616 51.9109H58.0952L53.5436 45.6733H49.4867V51.9109H47.013V35.0792H54.3352C58.0952 35.0792 60.569 37.0594 60.569 40.2277C60.569 42.703 58.9858 44.4851 56.4131 45.1782L61.2616 51.9109ZM49.3878 43.396H54.0383C56.3142 43.396 57.7984 42.2079 57.7984 40.4257C57.7984 38.6436 56.4131 37.5545 54.0383 37.5545H49.3878V43.396ZM144.378 60.2277H179.901V60.6238H144.378V60.2277ZM21.6821 60.2277H59.8763V60.6238H21.6821V60.2277ZM70.6617 60.2277C71.7502 60.4257 72.2449 60.8218 72.2449 61.6139C72.2449 62.5049 71.5523 63 70.5628 63C69.7712 63 69.1775 62.703 68.5838 62.2079L68.8806 61.8119C69.3754 62.3069 69.8701 62.5049 70.5628 62.5049C71.2554 62.5049 71.6512 62.2079 71.6512 61.7129C71.6512 61.2178 71.4533 61.0198 70.3649 60.8218C69.2764 60.6238 68.6827 60.2277 68.6827 59.4356C68.6827 58.6436 69.3754 58.1485 70.2659 58.1485C70.9586 58.1485 71.4533 58.3465 71.9481 58.7426L71.6512 59.1386C71.1565 58.7426 70.7607 58.6436 70.2659 58.6436C69.6722 58.6436 69.2764 59.0396 69.2764 59.4356C69.2764 59.7327 69.5733 60.0297 70.6617 60.2277ZM82.4366 58.0495H82.9314L84.2177 62.1089L85.603 58.0495H86.1967L84.4156 63H83.9208L82.6345 59.0396L81.2492 63H80.7545L78.9734 58.0495H79.5671L80.9524 62.1089L82.4366 58.0495ZM97.081 58.5446H94.1126V60.2277H96.7842V60.7228H94.1126V62.4059H97.081V62.901H93.5189V58.0495H97.081V58.5446ZM107.372 62.901H105.69V58.0495H107.372C108.856 58.0495 109.944 59.1386 109.944 60.5248C109.944 61.9109 108.856 62.901 107.372 62.901ZM107.372 58.5446H106.184V62.4059H107.372C108.559 62.4059 109.351 61.6139 109.351 60.5248C109.351 59.4356 108.559 58.5446 107.372 58.5446ZM121.917 58.5446H118.949V60.2277H121.62V60.7228H118.949V62.4059H121.917V62.901H118.355V58.0495H121.917V58.5446ZM134.583 58.0495H135.077V62.901H134.682L131.515 58.9406V62.901H131.02V58.0495H131.515L134.583 61.9109V58.0495ZM132.801 52.0099H135.572L127.953 34.9802H125.776L118.157 51.9109H120.829L122.709 47.5545H130.921L132.801 52.0099ZM123.698 45.3762L126.865 38.1485L130.031 45.3762H123.698ZM39.3939 42.604C39.3939 47.9505 35.0402 52.3069 29.697 52.3069C24.3537 52.2079 20 47.9505 20 42.604C20 37.7525 23.4632 33.7921 28.1138 33V33.099C24.5516 34.4851 22.3748 37.8515 22.3748 41.8119C22.3748 46.8614 25.9369 49.7327 29.697 49.7327C33.6549 49.7327 36.8213 46.5644 36.8213 42.604C36.8213 39.2376 34.1497 36.3663 30.6865 36.3663C26.6296 36.3663 24.7495 40.0297 24.7495 40.0297H24.6506C24.6506 40.0297 26.4317 34.7822 31.6759 34.7822C34.9412 34.7822 39.3939 37.3564 39.3939 42.604Z" fill="#10283F"/>
</g>
</svg>
