<svg width="200" height="93" viewBox="0 0 200 93" fill="none" xmlns="http://www.w3.org/2000/svg">
<g opacity="0.9">
<path d="M98.4528 66.683C98.4383 66.4283 98.4793 66.1735 98.5729 65.9361C98.6666 65.6986 98.8108 65.484 98.9956 65.3069C99.1805 65.1299 99.4016 64.9946 99.6439 64.9102C99.8862 64.8259 100.144 64.7945 100.4 64.8182C101.674 64.8182 102.254 65.6243 102.254 66.683C102.254 67.8111 101.558 68.5478 100.307 68.5478C99.0786 68.5478 98.4528 67.8111 98.4528 66.683ZM101.535 66.683C101.535 65.923 101.164 65.3706 100.353 65.3706C99.5189 65.3706 99.148 65.923 99.148 66.6602C99.148 67.3741 99.4955 67.9953 100.307 67.9953C101.187 67.9953 101.535 67.4197 101.535 66.683Z" fill="#10283F"/>
<path d="M103.644 65.4399H102.462V64.8643H105.521V65.4399H104.339V68.5021H103.644V65.4399Z" fill="#10283F"/>
<path d="M107.12 66.7067C107.103 66.4504 107.142 66.1935 107.235 65.9538C107.327 65.714 107.471 65.4969 107.656 65.3175C107.841 65.1381 108.063 65.0006 108.306 64.9145C108.55 64.8284 108.809 64.7957 109.067 64.8186C109.45 64.8087 109.831 64.8867 110.179 65.0467L109.996 65.5763C109.703 65.4813 109.399 65.4271 109.092 65.4153C108.924 65.3987 108.753 65.4194 108.594 65.476C108.435 65.5326 108.29 65.6237 108.17 65.7427C108.05 65.8616 107.959 66.0055 107.902 66.1639C107.845 66.3223 107.824 66.4914 107.84 66.6588C107.826 66.8358 107.851 67.0139 107.914 67.1801C107.977 67.3464 108.076 67.4967 108.205 67.6201C108.333 67.7435 108.488 67.8369 108.657 67.8937C108.827 67.9505 109.007 67.9691 109.184 67.9483C109.474 67.9488 109.762 67.9101 110.042 67.8334L110.204 68.363C109.856 68.4952 109.486 68.5572 109.115 68.5454C107.817 68.5454 107.121 67.8548 107.121 66.7035" fill="#10283F"/>
<path d="M110.851 64.8643H113.261V65.4167H111.569V67.9255H112.032C112.612 67.9255 112.844 67.6974 112.844 67.327C112.844 66.9357 112.566 66.7286 111.986 66.7286H111.615V66.1762H111.963C113.005 66.1762 113.562 66.5676 113.562 67.3275C113.562 68.0414 113.029 68.4556 112.055 68.4556H110.874V64.8643H110.851Z" fill="#10283F"/>
<path d="M114.095 64.8643H116.345V65.4167H114.792V66.4065H116.253V66.9361H114.792V67.9492H116.483V68.5017H114.095V64.8643Z" fill="#10283F"/>
<path d="M117.108 64.8647H118.429C118.6 64.8445 118.772 64.8615 118.936 64.9143C119.099 64.9672 119.249 65.0547 119.374 65.1708C119.5 65.2869 119.599 65.4289 119.664 65.5867C119.729 65.7446 119.758 65.9146 119.75 66.0849C119.75 66.7755 119.217 67.3512 118.151 67.3512H117.85V66.7988H118.174C118.73 66.7988 119.009 66.5224 119.009 66.1082C119.024 66.014 119.017 65.9175 118.988 65.8266C118.958 65.7358 118.907 65.6532 118.839 65.5857C118.771 65.5182 118.688 65.4678 118.597 65.4385C118.505 65.4093 118.408 65.4021 118.314 65.4176H117.827V68.4797H117.131V64.8647H117.108Z" fill="#10283F"/>
<path d="M120.167 64.8643H122.577V65.4167H120.885V67.9255H121.348C121.928 67.9255 122.16 67.6974 122.16 67.327C122.16 66.9357 121.882 66.7286 121.326 66.7286H120.955V66.1762H121.302C122.345 66.1762 122.901 66.5676 122.901 67.3275C122.901 68.0414 122.368 68.4556 121.372 68.4556H120.19V64.8643H120.167Z" fill="#10283F"/>
<path d="M124.547 64.8643H125.451L126.703 68.4788H125.961L125.567 67.3047H124.246L123.806 68.4788H123.087L124.547 64.8643ZM125.405 66.7984L124.965 65.325L124.455 66.7984H125.405Z" fill="#10283F"/>
<path d="M127.096 64.8643H127.792V66.407H129.506V64.8643H130.202V68.5021H129.506V66.9366H127.792V68.5021H127.096V64.8643Z" fill="#10283F"/>
<path d="M130.92 64.8643H131.615V66.5219L133.006 64.8643H133.886L132.403 66.568L133.979 68.5021H133.076L131.615 66.568V68.5021H130.92V64.8643Z" fill="#10283F"/>
<path d="M135.393 64.8643H136.298L137.572 68.4788H136.831L136.435 67.3047H135.114L134.674 68.4788H133.956L135.393 64.8643ZM136.25 66.7984L135.81 65.325L135.3 66.7984H136.25Z" fill="#10283F"/>
<path d="M71.7241 35.7513H61.5504L66.6469 30.709L71.7241 35.7513Z" fill="#229C54"/>
<path d="M66.6542 30.709L61.5577 35.7513L56.4575 30.709H66.6542Z" fill="#27A05E"/>
<path d="M81.918 35.7513H71.7213L76.8178 30.709L81.918 35.7513Z" fill="#44A154"/>
<path d="M102.26 35.7513H92.0865L97.1619 30.709L102.26 35.7513Z" fill="#DA613D"/>
<path d="M107.357 30.709L102.261 35.7513L97.1608 30.709H107.357Z" fill="#DF6645"/>
<path d="M112.454 35.7513H102.258L107.354 30.709L112.454 35.7513Z" fill="#D94849"/>
<path d="M127.722 30.709L122.626 35.7513L117.526 30.709H127.722Z" fill="#A04C8D"/>
<path d="M132.819 35.7513H122.623L127.719 30.709L132.819 35.7513Z" fill="#7C3782"/>
<path d="M122.625 35.7513H112.429L117.525 30.709L122.625 35.7513Z" fill="#AE4879"/>
<path d="M142.986 35.7513H132.79L137.886 30.709L142.986 35.7513Z" fill="#6C3680"/>
<path d="M61.5559 35.7513H51.3822L56.4576 30.709L61.5559 35.7513Z" fill="#069C5E"/>
<path d="M41 31.3944H51.1737L46.0965 26.3311L41 31.3944Z" fill="#1DA793"/>
<path d="M77.3307 27.0897H67.134L72.2305 22.0264L77.3307 27.0897Z" fill="#93B84F"/>
<path d="M105.826 20L110.922 25.0633L115.998 20H105.826Z" fill="#DF6E7C"/>
<path d="M41 31.4004L46.0965 36.4637L51.1737 31.4004H41Z" fill="#5EB4A1"/>
<path d="M72.7668 60.6055L67.6896 65.6688L62.5931 60.6055H72.7668Z" fill="#A5C882"/>
<path d="M85.1127 66.9344L90.2092 61.8711L95.3057 66.9344H85.1127Z" fill="#C8D36B"/>
<path d="M85.1127 66.9365L90.2092 71.9999L95.3057 66.9365H85.1127Z" fill="#DFDE7D"/>
<path d="M132.797 56.0195L127.719 61.0619L122.623 56.0195H132.797Z" fill="#C28EB5"/>
<path d="M61.5558 56.0195L56.4593 61.0619L51.3591 56.0195H61.5558Z" fill="#80C0AC"/>
<path d="M81.918 56.0195L76.8215 61.0619L71.7213 56.0195H81.918Z" fill="#BECF63"/>
<path d="M86.9923 61.0619H76.8186L81.9151 56.0195L86.9923 61.0619Z" fill="#D1D764"/>
<path d="M112.454 56.0195L107.358 61.0619L102.258 56.0195H112.454Z" fill="#F2BA63"/>
<path d="M107.357 61.0619H97.1608L102.257 56.0195L107.357 61.0619Z" fill="#F4C96A"/>
<path d="M102.26 56.0195L97.1638 61.0619L92.0865 56.0195H102.26Z" fill="#F2BE5B"/>
<path d="M122.626 56.0195L117.529 61.0619L112.452 56.0195H122.626Z" fill="#E698B2"/>
<path d="M137.894 61.0619H127.72L132.795 56.0195L137.894 61.0619Z" fill="#B78EB8"/>
<path d="M142.986 56.0195L137.89 61.0619L132.79 56.0195H142.986Z" fill="#A086B5"/>
<path d="M46.2838 50.9531H56.4575L51.3803 56.0165L46.2838 50.9531Z" fill="#56B29F"/>
<path d="M86.9923 50.9531L81.8958 56.0165L76.8186 50.9531H86.9923Z" fill="#ACC653"/>
<path d="M61.5558 56.0165H51.3591L56.4556 50.9531L61.5558 56.0165Z" fill="#69B9A2"/>
<path d="M66.6542 50.9531L61.5577 56.0165L56.4575 50.9531H66.6542Z" fill="#6EB78D"/>
<path d="M71.7241 56.0165H61.5504L66.6258 50.9531L71.7241 56.0165Z" fill="#8CC088"/>
<path d="M76.8211 50.9531L71.7246 56.0165L66.6244 50.9531H76.8211Z" fill="#95BD60"/>
<path d="M81.918 56.0165H71.7213L76.8178 50.9531L81.918 56.0165Z" fill="#A7C452"/>
<path d="M97.1863 50.9531L92.0861 56.0165L86.9896 50.9531H97.1863Z" fill="#EDAB44"/>
<path d="M81.8923 50.9531H92.089V56.0183H81.8923V50.9531Z" fill="url(#paint0_linear_1:267)"/>
<path d="M107.357 50.9531L102.261 56.0165L97.1608 50.9531H107.357Z" fill="#EDA23F"/>
<path d="M112.454 56.0165H102.258L107.354 50.9531L112.454 56.0165Z" fill="#EDAC56"/>
<path d="M102.26 56.0165H92.0865L97.1831 50.9531L102.26 56.0165Z" fill="#EEB144"/>
<path d="M117.528 50.9531L112.451 56.0165L107.355 50.9531H117.528Z" fill="#EB9669"/>
<path d="M122.626 56.0165H112.452L117.527 50.9531L122.626 56.0165Z" fill="#E58BA7"/>
<path d="M127.722 50.9531L122.626 56.0165L117.526 50.9531H127.722Z" fill="#BD71A2"/>
<path d="M132.819 56.0165H122.623L127.719 50.9531L132.819 56.0165Z" fill="#BC7AA8"/>
<path d="M137.894 50.9531L132.797 56.0165L127.72 50.9531H137.894Z" fill="#986FA3"/>
<path d="M142.986 56.0165H132.79L137.886 50.9531L142.986 56.0165Z" fill="#977EB0"/>
<path d="M148.085 50.9531L142.988 56.0165L137.888 50.9531H148.085Z" fill="#8F77AA"/>
<path d="M56.4575 50.9501H46.2838L51.3592 45.8867L56.4575 50.9501Z" fill="#46AE96"/>
<path d="M112.454 45.8867L107.358 50.9501L102.258 45.8867H112.454Z" fill="#E8913E"/>
<path d="M102.26 45.8867L97.1831 50.9501L92.0865 45.8867H102.26Z" fill="#E8913E"/>
<path d="M86.9923 50.9501H76.8186L81.894 45.8867L86.9923 50.9501Z" fill="#98BD50"/>
<path d="M66.6542 50.9501H56.4575L61.554 45.8867L66.6542 50.9501Z" fill="#4EAE82"/>
<path d="M61.5558 45.8867L56.4593 50.9501L51.3591 45.8867H61.5558Z" fill="#48AE92"/>
<path d="M76.8211 50.9501H66.6244L71.7209 45.8867L76.8211 50.9501Z" fill="#7EB24F"/>
<path d="M81.918 45.8867L76.8215 50.9501L71.7213 45.8867H81.918Z" fill="#71B25A"/>
<path d="M71.7241 45.8867L66.6276 50.9501L61.5504 45.8867H71.7241Z" fill="#80B550"/>
<path d="M81.8923 45.8867H92.089V50.9519H81.8923V45.8867Z" fill="url(#paint1_linear_1:267)"/>
<path d="M97.1863 50.9501H86.9896L92.0861 45.8867L97.1863 50.9501Z" fill="#EA993C"/>
<path d="M117.528 50.9501H107.355L112.451 45.8867L117.528 50.9501Z" fill="#E78565"/>
<path d="M107.357 50.9501H97.1608L102.257 45.8867L107.357 50.9501Z" fill="#EB9C3F"/>
<path d="M127.722 50.9501H117.526L122.622 45.8867L127.722 50.9501Z" fill="#B2699E"/>
<path d="M122.623 45.8867H132.82V50.9519H122.623V45.8867Z" fill="url(#paint2_linear_1:267)"/>
<path d="M122.626 45.8867L117.529 50.9501L112.452 45.8867H122.626Z" fill="#CB6A9B"/>
<path d="M137.894 50.9501H127.72L132.795 45.8867L137.894 50.9501Z" fill="#8E619B"/>
<path d="M142.986 45.8867L137.89 50.9501L132.79 45.8867H142.986Z" fill="#835E9B"/>
<path d="M148.085 50.9501H137.888L142.985 45.8867L148.085 50.9501Z" fill="#856AA1"/>
<path d="M148.826 43.4201L148.849 43.4657L153.877 48.4638L158.907 43.4657L158.953 43.4201L158.907 43.3973L153.877 38.4023L148.849 43.3986L148.826 43.4201Z" fill="#AC92BA"/>
<path d="M148.826 43.4647H159L153.923 38.4014L148.826 43.4647Z" fill="#997BAD"/>
<path d="M107.357 40.8193L102.261 45.8827L97.1608 40.8193H107.357Z" fill="#E07A3E"/>
<path d="M86.9923 40.8193L81.8958 45.8827L76.8186 40.8193H86.9923Z" fill="#71B158"/>
<path d="M66.6542 40.8193L61.5577 45.8827L56.4575 40.8193H66.6542Z" fill="#3EA670"/>
<path d="M56.4575 40.8193L51.361 45.8827L46.2838 40.8193H56.4575Z" fill="#0EA587"/>
<path d="M76.8211 40.8193L71.7246 45.8827L66.6244 40.8193H76.8211Z" fill="#57A751"/>
<path d="M97.1863 40.8193L92.0861 45.8827L86.9896 40.8193H97.1863Z" fill="#E68340"/>
<path d="M117.528 40.8193L112.451 45.8827L107.355 40.8193H117.528Z" fill="#DE5F6D"/>
<path d="M127.722 40.8193L122.626 45.8827L117.526 40.8193H127.722Z" fill="#A94E8C"/>
<path d="M137.894 40.8193L132.797 45.8827L127.72 40.8193H137.894Z" fill="#874F90"/>
<path d="M112.454 45.8827H102.258L107.354 40.8193L112.454 45.8827Z" fill="#E5813E"/>
<path d="M102.26 45.8827H92.0865L97.1831 40.8193L102.26 45.8827Z" fill="#E5813E"/>
<path d="M61.5558 45.8827H51.3591L56.4556 40.8193L61.5558 45.8827Z" fill="#1BA685"/>
<path d="M71.7241 45.8827H61.5504L66.6258 40.8193L71.7241 45.8827Z" fill="#62AB54"/>
<path d="M81.918 45.8827H71.7213L76.8178 40.8193L81.918 45.8827Z" fill="#66AD55"/>
<path d="M81.8923 40.8193H92.089V45.8845H81.8923V40.8193Z" fill="url(#paint3_linear_1:267)"/>
<path d="M122.623 40.8193H132.82V45.8845H122.623V40.8193Z" fill="url(#paint4_linear_1:267)"/>
<path d="M122.626 45.8827H112.452L117.527 40.8193L122.626 45.8827Z" fill="#C06196"/>
<path d="M142.986 45.8827H132.79L137.886 40.8193L142.986 45.8827Z" fill="#7E5696"/>
<path d="M148.085 40.8193L142.988 45.8827L137.888 40.8193H148.085Z" fill="#7A5595"/>
<path d="M107.357 40.8163H97.1608L102.257 35.7529L107.357 40.8163Z" fill="#E06F3E"/>
<path d="M66.6542 40.8163H56.4575L61.554 35.7529L66.6542 40.8163Z" fill="#21A163"/>
<path d="M86.9923 40.8163H76.8186L81.894 35.7529L86.9923 40.8163Z" fill="#64AB53"/>
<path d="M127.722 40.8163H117.526L122.622 35.7529L127.722 40.8163Z" fill="#A44789"/>
<path d="M61.5559 35.7529L56.4594 40.8163L51.3822 35.7529H61.5559Z" fill="#1FA36D"/>
<path d="M56.4575 40.8163H46.2838L51.3592 35.7529L56.4575 40.8163Z" fill="#0D9F7C"/>
<path d="M76.8211 40.8163H66.6244L71.7209 35.7529L76.8211 40.8163Z" fill="#33A258"/>
<path d="M71.7241 35.7529L66.6276 40.8163L61.5504 35.7529H71.7241Z" fill="#239F5A"/>
<path d="M81.918 35.7529L76.8215 40.8163L71.7213 35.7529H81.918Z" fill="#53A756"/>
<path d="M97.1863 40.8163H86.9896L92.0861 35.7529L97.1863 40.8163Z" fill="#E2763F"/>
<path d="M102.26 35.7529L97.1831 40.8163L92.0865 35.7529H102.26Z" fill="#DE683E"/>
<path d="M112.454 35.7529L107.358 40.8163L102.258 35.7529H112.454Z" fill="#DC5A57"/>
<path d="M117.528 40.8163H107.355L112.451 35.7529L117.528 40.8163Z" fill="#D34D64"/>
<path d="M122.625 35.7529L117.529 40.8163L112.429 35.7529H122.625Z" fill="#C14B79"/>
<path d="M132.819 35.7529L127.723 40.8163L122.623 35.7529H132.819Z" fill="#843F86"/>
<path d="M92.089 35.7529L86.9888 40.8163L81.8923 35.7529H92.089Z" fill="#7BB459"/>
<path d="M137.894 40.8163H127.72L132.795 35.7529L137.894 40.8163Z" fill="#80478C"/>
<path d="M142.986 35.7529L137.89 40.8163L132.79 35.7529H142.986Z" fill="#704288"/>
<path d="M148.085 40.8163H137.888L142.985 35.7529L148.085 40.8163Z" fill="#724B8E"/>
<path d="M80.4124 41.765C80.4329 41.6258 80.405 41.4838 80.3334 41.3624C80.2618 41.241 80.1507 41.1475 80.0185 41.0972C78.8134 40.7888 77.5766 40.6189 76.3325 40.5908H75.4055C74.1618 40.619 72.9255 40.7889 71.7209 41.0972C71.466 41.166 71.3269 41.3964 71.3269 41.765V50.9515H74.1773V42.9391C74.717 42.7723 75.2808 42.6952 75.8458 42.711C76.4237 42.677 77.0032 42.7387 77.5607 42.8935V50.952H80.4345V41.765H80.4124Z" fill="#FBFCFF"/>
<path d="M90.9535 43.2379C90.9535 42.6855 90.9076 41.8795 89.6096 41.235C88.6132 40.7286 87.1068 40.6826 86.2261 40.7286C85.0764 40.8226 83.9413 41.0466 82.8427 41.3964C82.6342 41.4653 82.4488 41.5333 82.4488 41.5333L82.8891 43.3752C82.9728 43.3479 83.0578 43.3249 83.1439 43.3064C83.4915 43.2151 84.3721 43.0299 84.9516 42.9378C85.702 42.816 86.4646 42.7854 87.2225 42.8466C87.6628 42.8922 88.1031 43.0997 88.1031 43.5604V44.5275C87.2913 44.5063 86.4789 44.5293 85.6697 44.5964C84.8789 44.6365 84.1016 44.8159 83.3739 45.126C82.5626 45.5406 81.9139 46.208 81.8909 47.7046C81.8283 48.2341 81.9247 48.7702 82.168 49.2455C82.4113 49.7207 82.7906 50.1138 83.2582 50.3754C84.2545 50.853 85.3503 51.0896 86.4562 51.066C87.4955 51.0944 88.5352 51.025 89.5614 50.8589C90.0345 50.7977 90.5002 50.6897 90.9516 50.5364V43.2379H90.9535ZM88.1261 48.9016C87.5995 49.0029 87.0616 49.0336 86.5269 48.9928C85.6462 48.97 84.6035 48.8779 84.6729 47.6576C84.6835 47.3954 84.7869 47.1454 84.965 46.9516C85.1431 46.7578 85.3844 46.6327 85.6462 46.5984C86.4748 46.4775 87.315 46.4544 88.149 46.5296V48.9016H88.1261Z" fill="#FBFCFF"/>
<path d="M129.506 40.7511C128.843 40.6897 128.175 40.6897 127.512 40.7511C126.214 40.9122 123.735 41.2807 123.735 44.8953V46.8983C123.735 50.5129 126.214 50.8582 127.512 51.0425C128.175 51.1039 128.843 51.1039 129.506 51.0425C130.804 50.8815 133.283 50.5129 133.283 46.8983V44.8953C133.283 41.2807 130.78 40.9122 129.506 40.7511ZM130.363 45.8624V47.0826C130.363 47.9347 130.247 49.0856 128.88 49.1549C128.834 49.1549 128.601 49.1777 128.509 49.1777C128.385 49.184 128.26 49.1764 128.138 49.1549C126.77 49.086 126.655 47.9114 126.655 47.0826V44.6878C126.655 43.8361 126.77 42.6848 128.138 42.6154C128.184 42.6154 128.416 42.5926 128.509 42.5926C128.633 42.5863 128.757 42.594 128.88 42.6154C130.247 42.6843 130.363 43.8589 130.363 44.6878V45.8624Z" fill="#FBFCFF"/>
<path d="M118.663 40.7505C118 40.6891 117.333 40.6891 116.67 40.7505C116.318 40.7836 115.969 40.8446 115.627 40.933C115.65 39.9659 115.835 39.4596 116.693 39.0221C117.945 38.3543 120.494 38.1933 121.907 38.0784L121.861 35.752C118.547 36.0512 116.161 36.3504 114.677 37.2714C113.611 37.962 112.893 39.1822 112.893 41.5999V46.8954C112.893 50.51 115.372 50.8553 116.67 51.0396C117.001 51.0777 117.334 51.093 117.667 51.0852C117.999 51.093 118.332 51.0777 118.663 51.0396C119.937 50.8786 122.44 50.51 122.44 46.8954V44.8924C122.44 41.2778 119.961 40.9093 118.663 40.7482V40.7505ZM119.521 45.8595V47.0797C119.521 47.9313 119.405 49.0827 118.038 49.152C117.992 49.152 117.759 49.1748 117.667 49.1748C117.542 49.1811 117.418 49.1735 117.296 49.152C115.928 49.0831 115.813 47.9085 115.813 47.0797V44.6849C115.813 43.8328 115.928 42.6819 117.296 42.6125C117.341 42.6125 117.574 42.5897 117.667 42.5897C117.791 42.5834 117.915 42.5911 118.038 42.6125C119.405 42.6814 119.521 43.856 119.521 44.6849V45.8595Z" fill="#FBFCFF"/>
<path d="M111.018 41.0274C110.95 40.9565 110.867 40.9029 110.774 40.8711C110.681 40.8393 110.582 40.8304 110.485 40.8449H109.117C108.891 40.8232 108.662 40.8466 108.445 40.9138C108.307 40.9827 108.098 41.3513 108.005 41.4662C107.611 42.1569 107.263 42.7558 106.985 43.2621C106.707 43.7684 106.429 44.2059 106.22 44.5745C106.151 44.7113 106.082 44.8276 106.012 44.9431C105.941 45.0585 105.85 45.1962 105.757 45.3805C105.665 45.5415 105.27 46.1633 105.038 46.5779H104.969V40.8203H102.096V50.099C102.096 50.3982 102.096 50.6053 102.233 50.7435C102.301 50.8144 102.384 50.8681 102.477 50.8998C102.57 50.9316 102.669 50.9406 102.766 50.926H104.11C104.352 50.9511 104.596 50.9277 104.829 50.8571C104.967 50.7882 105.084 50.5579 105.246 50.3047C105.547 49.8445 106.613 47.9783 106.891 47.519L107.656 46.2066C107.911 45.7692 107.957 45.677 108.236 45.2396H108.282V50.9493H111.155V41.8562C111.178 41.4416 111.178 41.1884 111.018 41.0274Z" fill="#FBFCFF"/>
<path d="M100.012 48.7179C99.257 48.92 98.4776 49.0206 97.6952 49.0171C96.7916 48.9943 95.5165 48.7179 95.3315 47.3362C95.2707 46.8704 95.24 46.4013 95.2397 45.9317V45.8404C95.2393 45.3708 95.27 44.9016 95.3315 44.4359C95.5152 43.2157 96.8146 42.7783 97.6952 42.755C98.4769 42.7614 99.255 42.8619 100.012 43.0542C100.115 43.0785 100.215 43.1089 100.314 43.1455L100.685 41.3268C100.012 41.1022 99.3225 40.9329 98.6222 40.8204C97.3629 40.625 96.0746 40.7357 94.8678 41.1429C92.6891 41.9718 92.365 44.1818 92.365 45.9326C92.365 47.6824 92.5734 49.7775 94.8678 50.7222C96.0496 51.2057 97.579 51.1597 98.6452 51.0447C99.3454 50.9323 100.035 50.7629 100.708 50.5384L100.337 48.7197C100.291 48.6285 100.107 48.6969 100.012 48.7197" fill="#FBFCFF"/>
<path d="M69.2442 48.7179C68.4887 48.92 67.7093 49.0206 66.9269 49.0171C66.0233 48.9943 64.7253 48.6025 64.5632 47.3362C64.5024 46.8704 64.4717 46.4013 64.4714 45.9317V45.8404C64.4594 45.3705 64.4901 44.9004 64.5632 44.4359C64.7928 43.1925 66.0233 42.7783 66.9269 42.755C67.7086 42.7614 68.4867 42.8619 69.2442 43.0542C69.3464 43.0785 69.447 43.1089 69.5454 43.1455L69.9164 41.3268C69.244 41.1022 68.5542 40.9329 67.8539 40.8204C66.5946 40.625 65.3063 40.7357 64.0995 41.1429C61.9213 41.9718 61.5967 44.1818 61.5967 45.9326C61.5967 47.6824 61.8051 49.7775 64.0995 50.7222C65.2813 51.2057 66.8107 51.1597 67.8768 51.0447C68.5771 50.9323 69.2669 50.7629 69.9393 50.5384L69.5683 48.7197C69.5224 48.6285 69.3388 48.6969 69.2437 48.7197" fill="#FBFCFF"/>
<path d="M71.7241 35.7513H61.5504L66.6469 30.709L71.7241 35.7513Z" fill="#229C54"/>
<path d="M66.6542 30.709L61.5577 35.7513L56.4575 30.709H66.6542Z" fill="#27A05E"/>
<path d="M81.918 35.7513H71.7213L76.8178 30.709L81.918 35.7513Z" fill="#44A154"/>
<path d="M102.26 35.7513H92.0865L97.1619 30.709L102.26 35.7513Z" fill="#DA613D"/>
<path d="M107.357 30.709L102.261 35.7513L97.1608 30.709H107.357Z" fill="#DF6645"/>
<path d="M112.454 35.7513H102.258L107.354 30.709L112.454 35.7513Z" fill="#D94849"/>
<path d="M127.722 30.709L122.626 35.7513L117.526 30.709H127.722Z" fill="#A04C8D"/>
<path d="M132.819 35.7513H122.623L127.719 30.709L132.819 35.7513Z" fill="#7C3782"/>
<path d="M122.625 35.7513H112.429L117.525 30.709L122.625 35.7513Z" fill="#AE4879"/>
<path d="M142.986 35.7513H132.79L137.886 30.709L142.986 35.7513Z" fill="#6C3680"/>
<path d="M61.5559 35.7513H51.3822L56.4576 30.709L61.5559 35.7513Z" fill="#069C5E"/>
<path d="M41 31.3944H51.1737L46.0965 26.3311L41 31.3944Z" fill="#1DA793"/>
<path d="M77.3307 27.0897H67.134L72.2305 22.0264L77.3307 27.0897Z" fill="#93B84F"/>
<path d="M105.826 20L110.922 25.0633L115.998 20H105.826Z" fill="#DF6E7C"/>
<path d="M41 31.4004L46.0965 36.4637L51.1737 31.4004H41Z" fill="#5EB4A1"/>
<path d="M72.7668 60.6055L67.6896 65.6688L62.5931 60.6055H72.7668Z" fill="#A5C882"/>
<path d="M85.1127 66.9344L90.2092 61.8711L95.3057 66.9344H85.1127Z" fill="#C8D36B"/>
<path d="M85.1127 66.9365L90.2092 71.9999L95.3057 66.9365H85.1127Z" fill="#DFDE7D"/>
<path d="M132.797 56.0195L127.719 61.0619L122.623 56.0195H132.797Z" fill="#C28EB5"/>
<path d="M61.5558 56.0195L56.4593 61.0619L51.3591 56.0195H61.5558Z" fill="#80C0AC"/>
<path d="M81.918 56.0195L76.8215 61.0619L71.7213 56.0195H81.918Z" fill="#BECF63"/>
<path d="M86.9923 61.0619H76.8186L81.9151 56.0195L86.9923 61.0619Z" fill="#D1D764"/>
<path d="M112.454 56.0195L107.358 61.0619L102.258 56.0195H112.454Z" fill="#10283F"/>
<path d="M91.707 56.0195L86.6105 61.0619L81.5104 56.0195H91.707Z" fill="#10283F"/>
<path d="M107.357 61.0619H97.1608L102.257 56.0195L107.357 61.0619Z" fill="#F4C96A"/>
<path d="M102.26 56.0195L97.1638 61.0619L92.0865 56.0195H102.26Z" fill="#F2BE5B"/>
<path d="M122.626 56.0195L117.529 61.0619L112.452 56.0195H122.626Z" fill="#E698B2"/>
<path d="M137.894 61.0619H127.72L132.795 56.0195L137.894 61.0619Z" fill="#B78EB8"/>
<path d="M142.986 56.0195L137.89 61.0619L132.79 56.0195H142.986Z" fill="#A086B5"/>
<path d="M46.2838 50.9531H56.4575L51.3803 56.0165L46.2838 50.9531Z" fill="#56B29F"/>
<path d="M86.9923 50.9531L81.8958 56.0165L76.8186 50.9531H86.9923Z" fill="#ACC653"/>
<path d="M61.5558 56.0165H51.3591L56.4556 50.9531L61.5558 56.0165Z" fill="#69B9A2"/>
<path d="M66.6542 50.9531L61.5577 56.0165L56.4575 50.9531H66.6542Z" fill="#6EB78D"/>
<path d="M71.7241 56.0165H61.5504L66.6258 50.9531L71.7241 56.0165Z" fill="#8CC088"/>
<path d="M76.8211 50.9531L71.7246 56.0165L66.6244 50.9531H76.8211Z" fill="#95BD60"/>
<path d="M81.918 56.0165H71.7213L76.8178 50.9531L81.918 56.0165Z" fill="#A7C452"/>
<path d="M97.1863 50.9531L92.0861 56.0165L86.9896 50.9531H97.1863Z" fill="#EDAB44"/>
<path d="M81.8923 50.9531H92.089V56.0183H81.8923V50.9531Z" fill="#10283F"/>
<path d="M107.357 50.9531L102.261 56.0165L97.1608 50.9531H107.357Z" fill="#EDA23F"/>
<path d="M112.454 56.0165H102.258L107.354 50.9531L112.454 56.0165Z" fill="#EDAC56"/>
<path d="M102.26 56.0165H92.0865L97.1831 50.9531L102.26 56.0165Z" fill="#EEB144"/>
<path d="M117.528 50.9531L112.451 56.0165L107.355 50.9531H117.528Z" fill="#EB9669"/>
<path d="M122.626 56.0165H112.452L117.527 50.9531L122.626 56.0165Z" fill="#E58BA7"/>
<path d="M127.722 50.9531L122.626 56.0165L117.526 50.9531H127.722Z" fill="#BD71A2"/>
<path d="M132.819 56.0165H122.623L127.719 50.9531L132.819 56.0165Z" fill="#BC7AA8"/>
<path d="M137.894 50.9531L132.797 56.0165L127.72 50.9531H137.894Z" fill="#986FA3"/>
<path d="M142.986 56.0165H132.79L137.886 50.9531L142.986 56.0165Z" fill="#977EB0"/>
<path d="M148.085 50.9531L142.988 56.0165L137.888 50.9531H148.085Z" fill="#8F77AA"/>
<path d="M56.4575 50.9501H46.2838L51.3592 45.8867L56.4575 50.9501Z" fill="#46AE96"/>
<path d="M112.454 45.8867L107.358 50.9501L102.258 45.8867H112.454Z" fill="#E8913E"/>
<path d="M102.26 45.8867L97.1831 50.9501L92.0865 45.8867H102.26Z" fill="#E8913E"/>
<path d="M86.9923 50.9501H76.8186L81.894 45.8867L86.9923 50.9501Z" fill="#98BD50"/>
<path d="M66.6542 50.9501H56.4575L61.554 45.8867L66.6542 50.9501Z" fill="#4EAE82"/>
<path d="M61.5558 45.8867L56.4593 50.9501L51.3591 45.8867H61.5558Z" fill="#48AE92"/>
<path d="M76.8211 50.9501H66.6244L71.7209 45.8867L76.8211 50.9501Z" fill="#7EB24F"/>
<path d="M81.918 45.8867L76.8215 50.9501L71.7213 45.8867H81.918Z" fill="#71B25A"/>
<path d="M71.7241 45.8867L66.6276 50.9501L61.5504 45.8867H71.7241Z" fill="#80B550"/>
<path d="M81.8923 45.8867H92.089V50.9519H81.8923V45.8867Z" fill="#10283F"/>
<path d="M97.1863 50.9501H86.9896L92.0861 45.8867L97.1863 50.9501Z" fill="#EA993C"/>
<path d="M117.528 50.9501H107.355L112.451 45.8867L117.528 50.9501Z" fill="#E78565"/>
<path d="M107.357 50.9501H97.1608L102.257 45.8867L107.357 50.9501Z" fill="#EB9C3F"/>
<path d="M127.722 50.9501H117.526L122.622 45.8867L127.722 50.9501Z" fill="#B2699E"/>
<path d="M122.623 45.8867H132.82V50.9519H122.623V45.8867Z" fill="#10283F"/>
<path d="M122.626 45.8867L117.529 50.9501L112.452 45.8867H122.626Z" fill="#CB6A9B"/>
<path d="M137.894 50.9501H127.72L132.795 45.8867L137.894 50.9501Z" fill="#8E619B"/>
<path d="M142.986 45.8867L137.89 50.9501L132.79 45.8867H142.986Z" fill="#835E9B"/>
<path d="M148.085 50.9501H137.888L142.985 45.8867L148.085 50.9501Z" fill="#856AA1"/>
<path d="M148.826 43.4201L148.849 43.4657L153.877 48.4638L158.907 43.4657L158.953 43.4201L158.907 43.3973L153.877 38.4023L148.849 43.3986L148.826 43.4201Z" fill="#AC92BA"/>
<path d="M148.826 43.4647H159L153.923 38.4014L148.826 43.4647Z" fill="#997BAD"/>
<path d="M107.357 40.8193L102.261 45.8827L97.1608 40.8193H107.357Z" fill="#E07A3E"/>
<path d="M86.9923 40.8193L81.8958 45.8827L76.8186 40.8193H86.9923Z" fill="#71B158"/>
<path d="M66.6542 40.8193L61.5577 45.8827L56.4575 40.8193H66.6542Z" fill="#3EA670"/>
<path d="M56.4575 40.8193L51.361 45.8827L46.2838 40.8193H56.4575Z" fill="#0EA587"/>
<path d="M76.8211 40.8193L71.7246 45.8827L66.6244 40.8193H76.8211Z" fill="#57A751"/>
<path d="M97.1863 40.8193L92.0861 45.8827L86.9896 40.8193H97.1863Z" fill="#E68340"/>
<path d="M117.528 40.8193L112.451 45.8827L107.355 40.8193H117.528Z" fill="#DE5F6D"/>
<path d="M127.722 40.8193L122.626 45.8827L117.526 40.8193H127.722Z" fill="#A94E8C"/>
<path d="M137.894 40.8193L132.797 45.8827L127.72 40.8193H137.894Z" fill="#874F90"/>
<path d="M112.454 45.8827H102.258L107.354 40.8193L112.454 45.8827Z" fill="#E5813E"/>
<path d="M102.26 45.8827H92.0865L97.1831 40.8193L102.26 45.8827Z" fill="#E5813E"/>
<path d="M61.5558 45.8827H51.3591L56.4556 40.8193L61.5558 45.8827Z" fill="#1BA685"/>
<path d="M71.7241 45.8827H61.5504L66.6258 40.8193L71.7241 45.8827Z" fill="#62AB54"/>
<path d="M81.918 45.8827H71.7213L76.8178 40.8193L81.918 45.8827Z" fill="#66AD55"/>
<path d="M81.8923 40.8193H92.089V45.8845H81.8923V40.8193Z" fill="#10283F"/>
<path d="M122.623 40.8193H132.82V45.8845H122.623V40.8193Z" fill="#10283F"/>
<path d="M122.626 45.8827H112.452L117.527 40.8193L122.626 45.8827Z" fill="#C06196"/>
<path d="M142.986 45.8827H132.79L137.886 40.8193L142.986 45.8827Z" fill="#7E5696"/>
<path d="M148.085 40.8193L142.988 45.8827L137.888 40.8193H148.085Z" fill="#7A5595"/>
<path d="M107.357 40.8163H97.1608L102.257 35.7529L107.357 40.8163Z" fill="#E06F3E"/>
<path d="M66.6542 40.8163H56.4575L61.554 35.7529L66.6542 40.8163Z" fill="#21A163"/>
<path d="M86.9923 40.8163H76.8186L81.894 35.7529L86.9923 40.8163Z" fill="#64AB53"/>
<path d="M127.722 40.8163H117.526L122.622 35.7529L127.722 40.8163Z" fill="#A44789"/>
<path d="M61.5559 35.7529L56.4594 40.8163L51.3822 35.7529H61.5559Z" fill="#1FA36D"/>
<path d="M56.4575 40.8163H46.2838L51.3592 35.7529L56.4575 40.8163Z" fill="#0D9F7C"/>
<path d="M76.8211 40.8163H66.6244L71.7209 35.7529L76.8211 40.8163Z" fill="#33A258"/>
<path d="M71.7241 35.7529L66.6276 40.8163L61.5504 35.7529H71.7241Z" fill="#239F5A"/>
<path d="M81.918 35.7529L76.8215 40.8163L71.7213 35.7529H81.918Z" fill="#53A756"/>
<path d="M97.1863 40.8163H86.9896L92.0861 35.7529L97.1863 40.8163Z" fill="#E2763F"/>
<path d="M102.26 35.7529L97.1831 40.8163L92.0865 35.7529H102.26Z" fill="#DE683E"/>
<path d="M112.454 35.7529L107.358 40.8163L102.258 35.7529H112.454Z" fill="#DC5A57"/>
<path d="M117.528 40.8163H107.355L112.451 35.7529L117.528 40.8163Z" fill="#D34D64"/>
<path d="M122.625 35.7529L117.529 40.8163L112.429 35.7529H122.625Z" fill="#C14B79"/>
<path d="M132.819 35.7529L127.723 40.8163L122.623 35.7529H132.819Z" fill="#843F86"/>
<path d="M92.089 35.7529L86.9888 40.8163L81.8923 35.7529H92.089Z" fill="#7BB459"/>
<path d="M137.894 40.8163H127.72L132.795 35.7529L137.894 40.8163Z" fill="#80478C"/>
<path d="M142.986 35.7529L137.89 40.8163L132.79 35.7529H142.986Z" fill="#704288"/>
<path d="M148.085 40.8163H137.888L142.985 35.7529L148.085 40.8163Z" fill="#724B8E"/>
<path d="M80.4124 41.765C80.4329 41.6258 80.405 41.4838 80.3334 41.3624C80.2618 41.241 80.1507 41.1475 80.0185 41.0972C78.8134 40.7888 77.5766 40.6189 76.3325 40.5908H75.4055C74.1618 40.619 72.9255 40.7889 71.7209 41.0972C71.466 41.166 71.3269 41.3964 71.3269 41.765V50.9515H74.1773V42.9391C74.717 42.7723 75.2808 42.6952 75.8458 42.711C76.4237 42.677 77.0032 42.7387 77.5607 42.8935V50.952H80.4345V41.765H80.4124Z" fill="#FBFCFF"/>
<path d="M90.9535 43.2379C90.9535 42.6855 90.9076 41.8795 89.6096 41.235C88.6132 40.7286 87.1068 40.6826 86.2261 40.7286C85.0764 40.8226 83.9413 41.0466 82.8427 41.3964C82.6342 41.4653 82.4488 41.5333 82.4488 41.5333L82.8891 43.3752C82.9728 43.3479 83.0578 43.3249 83.1439 43.3064C83.4915 43.2151 84.3721 43.0299 84.9516 42.9378C85.702 42.816 86.4646 42.7854 87.2225 42.8466C87.6628 42.8922 88.1031 43.0997 88.1031 43.5604V44.5275C87.2913 44.5063 86.4789 44.5293 85.6697 44.5964C84.8789 44.6365 84.1016 44.8159 83.3739 45.126C82.5626 45.5406 81.9139 46.208 81.8909 47.7046C81.8283 48.2341 81.9247 48.7702 82.168 49.2455C82.4113 49.7207 82.7906 50.1138 83.2582 50.3754C84.2545 50.853 85.3503 51.0896 86.4562 51.066C87.4955 51.0944 88.5352 51.025 89.5614 50.8589C90.0345 50.7977 90.5002 50.6897 90.9516 50.5364V43.2379H90.9535ZM88.1261 48.9016C87.5995 49.0029 87.0616 49.0336 86.5269 48.9928C85.6462 48.97 84.6035 48.8779 84.6729 47.6576C84.6835 47.3954 84.7869 47.1454 84.965 46.9516C85.1431 46.7578 85.3844 46.6327 85.6462 46.5984C86.4748 46.4775 87.315 46.4544 88.149 46.5296V48.9016H88.1261Z" fill="#FBFCFF"/>
<path d="M129.506 40.7511C128.843 40.6897 128.175 40.6897 127.512 40.7511C126.214 40.9122 123.735 41.2807 123.735 44.8953V46.8983C123.735 50.5129 126.214 50.8582 127.512 51.0425C128.175 51.1039 128.843 51.1039 129.506 51.0425C130.804 50.8815 133.283 50.5129 133.283 46.8983V44.8953C133.283 41.2807 130.78 40.9122 129.506 40.7511ZM130.363 45.8624V47.0826C130.363 47.9347 130.247 49.0856 128.88 49.1549C128.834 49.1549 128.601 49.1777 128.509 49.1777C128.385 49.184 128.26 49.1764 128.138 49.1549C126.77 49.086 126.655 47.9114 126.655 47.0826V44.6878C126.655 43.8361 126.77 42.6848 128.138 42.6154C128.184 42.6154 128.416 42.5926 128.509 42.5926C128.633 42.5863 128.757 42.594 128.88 42.6154C130.247 42.6843 130.363 43.8589 130.363 44.6878V45.8624Z" fill="#FBFCFF"/>
<path d="M118.663 40.7505C118 40.6891 117.333 40.6891 116.67 40.7505C116.318 40.7836 115.969 40.8446 115.627 40.933C115.65 39.9659 115.835 39.4596 116.693 39.0221C117.945 38.3543 120.494 38.1933 121.907 38.0784L121.861 35.752C118.547 36.0512 116.161 36.3504 114.677 37.2714C113.611 37.962 112.893 39.1822 112.893 41.5999V46.8954C112.893 50.51 115.372 50.8553 116.67 51.0396C117.001 51.0777 117.334 51.093 117.667 51.0852C117.999 51.093 118.332 51.0777 118.663 51.0396C119.937 50.8786 122.44 50.51 122.44 46.8954V44.8924C122.44 41.2778 119.961 40.9093 118.663 40.7482V40.7505ZM119.521 45.8595V47.0797C119.521 47.9313 119.405 49.0827 118.038 49.152C117.992 49.152 117.759 49.1748 117.667 49.1748C117.542 49.1811 117.418 49.1735 117.296 49.152C115.928 49.0831 115.813 47.9085 115.813 47.0797V44.6849C115.813 43.8328 115.928 42.6819 117.296 42.6125C117.341 42.6125 117.574 42.5897 117.667 42.5897C117.791 42.5834 117.915 42.5911 118.038 42.6125C119.405 42.6814 119.521 43.856 119.521 44.6849V45.8595Z" fill="#FBFCFF"/>
<path d="M111.018 41.0274C110.95 40.9565 110.867 40.9029 110.774 40.8711C110.681 40.8393 110.582 40.8304 110.485 40.8449H109.117C108.891 40.8232 108.662 40.8466 108.445 40.9138C108.307 40.9827 108.098 41.3513 108.005 41.4662C107.611 42.1569 107.263 42.7558 106.985 43.2621C106.707 43.7684 106.429 44.2059 106.22 44.5745C106.151 44.7113 106.082 44.8276 106.012 44.9431C105.941 45.0585 105.85 45.1962 105.757 45.3805C105.665 45.5415 105.27 46.1633 105.038 46.5779H104.969V40.8203H102.096V50.099C102.096 50.3982 102.096 50.6053 102.233 50.7435C102.301 50.8144 102.384 50.8681 102.477 50.8998C102.57 50.9316 102.669 50.9406 102.766 50.926H104.11C104.352 50.9511 104.596 50.9277 104.829 50.8571C104.967 50.7882 105.084 50.5579 105.246 50.3047C105.547 49.8445 106.613 47.9783 106.891 47.519L107.656 46.2066C107.911 45.7692 107.957 45.677 108.236 45.2396H108.282V50.9493H111.155V41.8562C111.178 41.4416 111.178 41.1884 111.018 41.0274Z" fill="#FBFCFF"/>
<path d="M100.012 48.7179C99.257 48.92 98.4776 49.0206 97.6952 49.0171C96.7916 48.9943 95.5165 48.7179 95.3315 47.3362C95.2707 46.8704 95.24 46.4013 95.2397 45.9317V45.8404C95.2393 45.3708 95.27 44.9016 95.3315 44.4359C95.5152 43.2157 96.8146 42.7783 97.6952 42.755C98.4769 42.7614 99.255 42.8619 100.012 43.0542C100.115 43.0785 100.215 43.1089 100.314 43.1455L100.685 41.3268C100.012 41.1022 99.3225 40.9329 98.6222 40.8204C97.3629 40.625 96.0746 40.7357 94.8678 41.1429C92.6891 41.9718 92.365 44.1818 92.365 45.9326C92.365 47.6824 92.5734 49.7775 94.8678 50.7222C96.0496 51.2057 97.579 51.1597 98.6452 51.0447C99.3454 50.9323 100.035 50.7629 100.708 50.5384L100.337 48.7197C100.291 48.6285 100.107 48.6969 100.012 48.7197" fill="#FBFCFF"/>
<path d="M69.2442 48.7179C68.4887 48.92 67.7093 49.0206 66.9269 49.0171C66.0233 48.9943 64.7253 48.6025 64.5632 47.3362C64.5024 46.8704 64.4717 46.4013 64.4714 45.9317V45.8404C64.4594 45.3705 64.4901 44.9004 64.5632 44.4359C64.7928 43.1925 66.0233 42.7783 66.9269 42.755C67.7086 42.7614 68.4867 42.8619 69.2442 43.0542C69.3464 43.0785 69.447 43.1089 69.5454 43.1455L69.9164 41.3268C69.244 41.1022 68.5542 40.9329 67.8539 40.8204C66.5946 40.625 65.3063 40.7357 64.0995 41.1429C61.9213 41.9718 61.5967 44.1818 61.5967 45.9326C61.5967 47.6824 61.8051 49.7775 64.0995 50.7222C65.2813 51.2057 66.8107 51.1597 67.8768 51.0447C68.5771 50.9323 69.2669 50.7629 69.9393 50.5384L69.5683 48.7197C69.5224 48.6285 69.3388 48.6969 69.2437 48.7197" fill="#FBFCFF"/>
<path d="M71.7241 35.7513H61.5504L66.6469 30.709L71.7241 35.7513Z" fill="#10283F"/>
<path d="M66.6542 30.709L61.5577 35.7513L56.4575 30.709H66.6542Z" fill="#10283F"/>
<path d="M81.918 35.7513H71.7213L76.8178 30.709L81.918 35.7513Z" fill="#10283F"/>
<path d="M102.26 35.7513H92.0865L97.1619 30.709L102.26 35.7513Z" fill="#10283F"/>
<path d="M107.357 30.709L102.261 35.7513L97.1608 30.709H107.357Z" fill="#10283F"/>
<path d="M112.454 35.7513H102.258L107.354 30.709L112.454 35.7513Z" fill="#10283F"/>
<path d="M127.722 30.709L122.626 35.7513L117.526 30.709H127.722Z" fill="#10283F"/>
<path d="M132.819 35.7513H122.623L127.719 30.709L132.819 35.7513Z" fill="#10283F"/>
<path d="M122.625 35.7513H112.429L117.525 30.709L122.625 35.7513Z" fill="#10283F"/>
<path d="M142.986 35.7513H132.79L137.886 30.709L142.986 35.7513Z" fill="#10283F"/>
<path d="M61.5559 35.7513H51.3822L56.4576 30.709L61.5559 35.7513Z" fill="#10283F"/>
<path d="M41 31.3944H51.1737L46.0965 26.3311L41 31.3944Z" fill="#10283F"/>
<path d="M77.3307 27.0897H67.134L72.2305 22.0264L77.3307 27.0897Z" fill="#10283F"/>
<path d="M105.826 20L110.922 25.0633L115.998 20H105.826Z" fill="#10283F"/>
<path d="M41 31.4004L46.0965 36.4637L51.1737 31.4004H41Z" fill="#10283F"/>
<path d="M72.7668 60.6055L67.6896 65.6688L62.5931 60.6055H72.7668Z" fill="#10283F"/>
<path d="M85.1127 66.9344L90.2092 61.8711L95.3057 66.9344H85.1127Z" fill="#10283F"/>
<path d="M85.1127 66.9365L90.2092 71.9999L95.3057 66.9365H85.1127Z" fill="#10283F"/>
<path d="M132.797 56.0195L127.719 61.0619L122.623 56.0195H132.797Z" fill="#10283F"/>
<path d="M61.5558 56.0195L56.4593 61.0619L51.3591 56.0195H61.5558Z" fill="#10283F"/>
<path d="M81.918 56.0195L76.8215 61.0619L71.7213 56.0195H81.918Z" fill="#10283F"/>
<path d="M86.9923 61.0619H76.8186L81.9151 56.0195L86.9923 61.0619Z" fill="#10283F"/>
<path d="M107.357 61.0619H97.1608L102.257 56.0195L107.357 61.0619Z" fill="#10283F"/>
<path d="M102.26 56.0195L97.1638 61.0619L92.0865 56.0195H102.26Z" fill="#10283F"/>
<path d="M122.626 56.0195L117.529 61.0619L112.452 56.0195H122.626Z" fill="#10283F"/>
<path d="M137.894 61.0619H127.72L132.795 56.0195L137.894 61.0619Z" fill="#10283F"/>
<path d="M142.986 56.0195L137.89 61.0619L132.79 56.0195H142.986Z" fill="#10283F"/>
<path d="M46.2838 50.9531H56.4575L51.3803 56.0165L46.2838 50.9531Z" fill="#10283F"/>
<path d="M86.9923 50.9531L81.8958 56.0165L76.8186 50.9531H86.9923Z" fill="#10283F"/>
<path d="M61.5558 56.0165H51.3591L56.4556 50.9531L61.5558 56.0165Z" fill="#10283F"/>
<path d="M66.6542 50.9531L61.5577 56.0165L56.4575 50.9531H66.6542Z" fill="#10283F"/>
<path d="M71.7241 56.0165H61.5504L66.6258 50.9531L71.7241 56.0165Z" fill="#10283F"/>
<path d="M76.8211 50.9531L71.7246 56.0165L66.6244 50.9531H76.8211Z" fill="#10283F"/>
<path d="M81.918 56.0165H71.7213L76.8178 50.9531L81.918 56.0165Z" fill="#10283F"/>
<path d="M97.1863 50.9531L92.0861 56.0165L86.9896 50.9531H97.1863Z" fill="#10283F"/>
<path d="M107.357 50.9531L102.261 56.0165L97.1608 50.9531H107.357Z" fill="#10283F"/>
<path d="M112.454 56.0165H102.258L107.354 50.9531L112.454 56.0165Z" fill="#10283F"/>
<path d="M102.26 56.0165H92.0865L97.1831 50.9531L102.26 56.0165Z" fill="#10283F"/>
<path d="M117.528 50.9531L112.451 56.0165L107.355 50.9531H117.528Z" fill="#10283F"/>
<path d="M122.626 56.0165H112.452L117.527 50.9531L122.626 56.0165Z" fill="#10283F"/>
<path d="M127.722 50.9531L122.626 56.0165L117.526 50.9531H127.722Z" fill="#10283F"/>
<path d="M132.819 56.0165H122.623L127.719 50.9531L132.819 56.0165Z" fill="#10283F"/>
<path d="M137.894 50.9531L132.797 56.0165L127.72 50.9531H137.894Z" fill="#10283F"/>
<path d="M142.986 56.0165H132.79L137.886 50.9531L142.986 56.0165Z" fill="#10283F"/>
<path d="M148.085 50.9531L142.988 56.0165L137.888 50.9531H148.085Z" fill="#10283F"/>
<path d="M56.4575 50.9501H46.2838L51.3592 45.8867L56.4575 50.9501Z" fill="#10283F"/>
<path d="M112.454 45.8867L107.358 50.9501L102.258 45.8867H112.454Z" fill="#10283F"/>
<path d="M102.26 45.8867L97.1831 50.9501L92.0865 45.8867H102.26Z" fill="#10283F"/>
<path d="M86.9923 50.9501H76.8186L81.894 45.8867L86.9923 50.9501Z" fill="#10283F"/>
<path d="M66.6542 50.9501H56.4575L61.554 45.8867L66.6542 50.9501Z" fill="#10283F"/>
<path d="M61.5558 45.8867L56.4593 50.9501L51.3591 45.8867H61.5558Z" fill="#10283F"/>
<path d="M76.8211 50.9501H66.6244L71.7209 45.8867L76.8211 50.9501Z" fill="#10283F"/>
<path d="M81.918 45.8867L76.8215 50.9501L71.7213 45.8867H81.918Z" fill="#10283F"/>
<path d="M71.7241 45.8867L66.6276 50.9501L61.5504 45.8867H71.7241Z" fill="#10283F"/>
<path d="M97.1863 50.9501H86.9896L92.0861 45.8867L97.1863 50.9501Z" fill="#10283F"/>
<path d="M117.528 50.9501H107.355L112.451 45.8867L117.528 50.9501Z" fill="#10283F"/>
<path d="M107.357 50.9501H97.1608L102.257 45.8867L107.357 50.9501Z" fill="#10283F"/>
<path d="M127.722 50.9501H117.526L122.622 45.8867L127.722 50.9501Z" fill="#10283F"/>
<path d="M122.626 45.8867L117.529 50.9501L112.452 45.8867H122.626Z" fill="#10283F"/>
<path d="M137.894 50.9501H127.72L132.795 45.8867L137.894 50.9501Z" fill="#10283F"/>
<path d="M142.986 45.8867L137.89 50.9501L132.79 45.8867H142.986Z" fill="#10283F"/>
<path d="M148.085 50.9501H137.888L142.985 45.8867L148.085 50.9501Z" fill="#10283F"/>
<path d="M148.826 43.4201L148.849 43.4657L153.877 48.4638L158.907 43.4657L158.953 43.4201L158.907 43.3973L153.877 38.4023L148.849 43.3986L148.826 43.4201Z" fill="#10283F"/>
<path d="M148.826 43.4647H159L153.923 38.4014L148.826 43.4647Z" fill="#10283F"/>
<path d="M107.357 40.8193L102.261 45.8827L97.1608 40.8193H107.357Z" fill="#10283F"/>
<path d="M86.9923 40.8193L81.8958 45.8827L76.8186 40.8193H86.9923Z" fill="#10283F"/>
<path d="M66.6542 40.8193L61.5577 45.8827L56.4575 40.8193H66.6542Z" fill="#10283F"/>
<path d="M56.4575 40.8193L51.361 45.8827L46.2838 40.8193H56.4575Z" fill="#10283F"/>
<path d="M76.8211 40.8193L71.7246 45.8827L66.6244 40.8193H76.8211Z" fill="#10283F"/>
<path d="M97.1863 40.8193L92.0861 45.8827L86.9896 40.8193H97.1863Z" fill="#10283F"/>
<path d="M117.528 40.8193L112.451 45.8827L107.355 40.8193H117.528Z" fill="#10283F"/>
<path d="M127.722 40.8193L122.626 45.8827L117.526 40.8193H127.722Z" fill="#10283F"/>
<path d="M137.894 40.8193L132.797 45.8827L127.72 40.8193H137.894Z" fill="#10283F"/>
<path d="M112.454 45.8827H102.258L107.354 40.8193L112.454 45.8827Z" fill="#10283F"/>
<path d="M102.26 45.8827H92.0865L97.1831 40.8193L102.26 45.8827Z" fill="#10283F"/>
<path d="M61.5558 45.8827H51.3591L56.4556 40.8193L61.5558 45.8827Z" fill="#10283F"/>
<path d="M71.7241 45.8827H61.5504L66.6258 40.8193L71.7241 45.8827Z" fill="#10283F"/>
<path d="M81.918 45.8827H71.7213L76.8178 40.8193L81.918 45.8827Z" fill="#10283F"/>
<path d="M122.626 45.8827H112.452L117.527 40.8193L122.626 45.8827Z" fill="#10283F"/>
<path d="M142.986 45.8827H132.79L137.886 40.8193L142.986 45.8827Z" fill="#10283F"/>
<path d="M148.085 40.8193L142.988 45.8827L137.888 40.8193H148.085Z" fill="#10283F"/>
<path d="M107.357 40.8163H97.1608L102.257 35.7529L107.357 40.8163Z" fill="#10283F"/>
<path d="M66.6542 40.8163H56.4575L61.554 35.7529L66.6542 40.8163Z" fill="#10283F"/>
<path d="M86.9923 40.8163H76.8186L81.894 35.7529L86.9923 40.8163Z" fill="#10283F"/>
<path d="M127.722 40.8163H117.526L122.622 35.7529L127.722 40.8163Z" fill="#10283F"/>
<path d="M61.5559 35.7529L56.4594 40.8163L51.3822 35.7529H61.5559Z" fill="#10283F"/>
<path d="M56.4575 40.8163H46.2838L51.3592 35.7529L56.4575 40.8163Z" fill="#10283F"/>
<path d="M76.8211 40.8163H66.6244L71.7209 35.7529L76.8211 40.8163Z" fill="#10283F"/>
<path d="M71.7241 35.7529L66.6276 40.8163L61.5504 35.7529H71.7241Z" fill="#10283F"/>
<path d="M81.918 35.7529L76.8215 40.8163L71.7213 35.7529H81.918Z" fill="#10283F"/>
<path d="M97.1863 40.8163H86.9896L92.0861 35.7529L97.1863 40.8163Z" fill="#10283F"/>
<path d="M102.26 35.7529L97.1831 40.8163L92.0865 35.7529H102.26Z" fill="#10283F"/>
<path d="M112.454 35.7529L107.358 40.8163L102.258 35.7529H112.454Z" fill="#10283F"/>
<path d="M117.528 40.8163H107.355L112.451 35.7529L117.528 40.8163Z" fill="#10283F"/>
<path d="M122.625 35.7529L117.529 40.8163L112.429 35.7529H122.625Z" fill="#10283F"/>
<path d="M132.819 35.7529L127.723 40.8163L122.623 35.7529H132.819Z" fill="#10283F"/>
<path d="M92.089 35.7529L86.9888 40.8163L81.8923 35.7529H92.089Z" fill="#10283F"/>
<path d="M137.894 40.8163H127.72L132.795 35.7529L137.894 40.8163Z" fill="#10283F"/>
<path d="M142.986 35.7529L137.89 40.8163L132.79 35.7529H142.986Z" fill="#10283F"/>
<path d="M148.085 40.8163H137.888L142.985 35.7529L148.085 40.8163Z" fill="#10283F"/>
<path d="M80.4123 41.765C80.4327 41.6258 80.4049 41.4838 80.3333 41.3624C80.2617 41.241 80.1506 41.1475 80.0184 41.0972C78.8133 40.7888 77.5765 40.6189 76.3324 40.5908H75.4054C74.1617 40.619 72.9254 40.7889 71.7207 41.0972C71.4659 41.166 71.3268 41.3964 71.3268 41.765V50.9515H74.1771V42.9391C74.7169 42.7723 75.2807 42.6952 75.8457 42.711C76.4235 42.677 77.0031 42.7387 77.5606 42.8935V50.952H80.4344V41.765H80.4123Z" fill="#FBFCFF"/>
<path d="M90.9535 43.2379C90.9535 42.6855 90.9076 41.8795 89.6096 41.235C88.6132 40.7286 87.1068 40.6826 86.2261 40.7286C85.0764 40.8226 83.9413 41.0466 82.8427 41.3964C82.6342 41.4653 82.4488 41.5333 82.4488 41.5333L82.8891 43.3752C82.9728 43.3479 83.0578 43.3249 83.1439 43.3064C83.4915 43.2151 84.3721 43.0299 84.9516 42.9378C85.702 42.816 86.4646 42.7854 87.2225 42.8466C87.6628 42.8922 88.1031 43.0997 88.1031 43.5604V44.5275C87.2913 44.5063 86.4789 44.5293 85.6697 44.5964C84.8789 44.6365 84.1016 44.8159 83.3739 45.126C82.5626 45.5406 81.9139 46.208 81.8909 47.7046C81.8283 48.2341 81.9247 48.7702 82.168 49.2455C82.4113 49.7207 82.7906 50.1138 83.2582 50.3754C84.2545 50.853 85.3503 51.0896 86.4562 51.066C87.4955 51.0944 88.5352 51.025 89.5614 50.8589C90.0345 50.7977 90.5002 50.6897 90.9516 50.5364V43.2379H90.9535ZM88.1261 48.9016C87.5995 49.0029 87.0616 49.0336 86.5269 48.9928C85.6462 48.97 84.6035 48.8779 84.6729 47.6576C84.6835 47.3954 84.7869 47.1454 84.965 46.9516C85.1431 46.7578 85.3844 46.6327 85.6462 46.5984C86.4748 46.4775 87.315 46.4544 88.149 46.5296V48.9016H88.1261Z" fill="#FBFCFF"/>
<path d="M129.505 40.7511C128.842 40.6897 128.175 40.6897 127.512 40.7511C126.214 40.9122 123.735 41.2807 123.735 44.8953V46.8983C123.735 50.5129 126.214 50.8582 127.512 51.0425C128.175 51.1039 128.842 51.1039 129.505 51.0425C130.803 50.8815 133.283 50.5129 133.283 46.8983V44.8953C133.283 41.2807 130.78 40.9122 129.505 40.7511ZM130.363 45.8624V47.0826C130.363 47.9347 130.247 49.0856 128.88 49.1549C128.834 49.1549 128.601 49.1777 128.509 49.1777C128.384 49.184 128.26 49.1764 128.138 49.1549C126.77 49.086 126.655 47.9114 126.655 47.0826V44.6878C126.655 43.8361 126.77 42.6848 128.138 42.6154C128.184 42.6154 128.416 42.5926 128.509 42.5926C128.633 42.5863 128.757 42.594 128.88 42.6154C130.247 42.6843 130.363 43.8589 130.363 44.6878V45.8624Z" fill="#FBFCFF"/>
<path d="M118.663 40.7505C118 40.6891 117.333 40.6891 116.67 40.7505C116.318 40.7836 115.969 40.8446 115.627 40.933C115.65 39.9659 115.835 39.4596 116.693 39.0221C117.945 38.3543 120.494 38.1933 121.907 38.0784L121.861 35.752C118.547 36.0512 116.161 36.3504 114.677 37.2714C113.611 37.962 112.893 39.1822 112.893 41.5999V46.8954C112.893 50.51 115.372 50.8553 116.67 51.0396C117.001 51.0777 117.334 51.093 117.667 51.0852C117.999 51.093 118.332 51.0777 118.663 51.0396C119.937 50.8786 122.44 50.51 122.44 46.8954V44.8924C122.44 41.2778 119.961 40.9093 118.663 40.7482V40.7505ZM119.521 45.8595V47.0797C119.521 47.9313 119.405 49.0827 118.038 49.152C117.992 49.152 117.759 49.1748 117.667 49.1748C117.542 49.1811 117.418 49.1735 117.296 49.152C115.928 49.0831 115.813 47.9085 115.813 47.0797V44.6849C115.813 43.8328 115.928 42.6819 117.296 42.6125C117.341 42.6125 117.574 42.5897 117.667 42.5897C117.791 42.5834 117.915 42.5911 118.038 42.6125C119.405 42.6814 119.521 43.856 119.521 44.6849V45.8595Z" fill="#FBFCFF"/>
<path d="M111.018 41.0274C110.95 40.9565 110.867 40.9029 110.774 40.8711C110.681 40.8393 110.582 40.8304 110.485 40.8449H109.117C108.891 40.8232 108.662 40.8466 108.445 40.9138C108.307 40.9827 108.098 41.3513 108.005 41.4662C107.611 42.1569 107.263 42.7558 106.985 43.2621C106.707 43.7684 106.429 44.2059 106.22 44.5745C106.151 44.7113 106.082 44.8276 106.012 44.9431C105.941 45.0585 105.85 45.1962 105.757 45.3805C105.665 45.5415 105.27 46.1633 105.038 46.5779H104.969V40.8203H102.096V50.099C102.096 50.3982 102.096 50.6053 102.233 50.7435C102.301 50.8144 102.384 50.8681 102.477 50.8998C102.57 50.9316 102.669 50.9406 102.766 50.926H104.11C104.352 50.9511 104.596 50.9277 104.829 50.8571C104.967 50.7882 105.084 50.5579 105.246 50.3047C105.547 49.8445 106.613 47.9783 106.891 47.519L107.656 46.2066C107.911 45.7692 107.957 45.677 108.236 45.2396H108.282V50.9493H111.155V41.8562C111.178 41.4416 111.178 41.1884 111.018 41.0274Z" fill="#FBFCFF"/>
<path d="M100.012 48.7179C99.257 48.92 98.4776 49.0206 97.6952 49.0171C96.7916 48.9943 95.5165 48.7179 95.3315 47.3362C95.2707 46.8704 95.24 46.4013 95.2397 45.9317V45.8404C95.2393 45.3708 95.27 44.9016 95.3315 44.4359C95.5152 43.2157 96.8146 42.7783 97.6952 42.755C98.4769 42.7614 99.255 42.8619 100.012 43.0542C100.115 43.0785 100.215 43.1089 100.314 43.1455L100.685 41.3268C100.012 41.1022 99.3225 40.9329 98.6222 40.8204C97.3629 40.625 96.0746 40.7357 94.8678 41.1429C92.6891 41.9718 92.365 44.1818 92.365 45.9326C92.365 47.6824 92.5734 49.7775 94.8678 50.7222C96.0496 51.2057 97.579 51.1597 98.6452 51.0447C99.3454 50.9323 100.035 50.7629 100.708 50.5384L100.337 48.7197C100.291 48.6285 100.107 48.6969 100.012 48.7197" fill="#FBFCFF"/>
<path d="M69.2442 48.7179C68.4887 48.92 67.7093 49.0206 66.9269 49.0171C66.0233 48.9943 64.7253 48.6025 64.5632 47.3362C64.5024 46.8704 64.4717 46.4013 64.4714 45.9317V45.8404C64.4594 45.3705 64.4901 44.9004 64.5632 44.4359C64.7928 43.1925 66.0233 42.7783 66.9269 42.755C67.7086 42.7614 68.4867 42.8619 69.2442 43.0542C69.3464 43.0785 69.447 43.1089 69.5454 43.1455L69.9164 41.3268C69.244 41.1022 68.5542 40.9329 67.8539 40.8204C66.5946 40.625 65.3063 40.7357 64.0995 41.1429C61.9213 41.9718 61.5967 44.1818 61.5967 45.9326C61.5967 47.6824 61.8051 49.7775 64.0995 50.7222C65.2813 51.2057 66.8107 51.1597 67.8768 51.0447C68.5771 50.9323 69.2669 50.7629 69.9393 50.5384L69.5683 48.7197C69.5224 48.6285 69.3388 48.6969 69.2437 48.7197" fill="#FBFCFF"/>
</g>
<defs>
<linearGradient id="paint0_linear_1:267" x1="-114.485" y1="15.0361" x2="-114.139" y2="15.0361" gradientUnits="userSpaceOnUse">
<stop stop-color="#B5C849"/>
<stop offset="1" stop-color="#F1B947"/>
</linearGradient>
<linearGradient id="paint1_linear_1:267" x1="-114.485" y1="15.0905" x2="-114.139" y2="15.0905" gradientUnits="userSpaceOnUse">
<stop stop-color="#8DB650"/>
<stop offset="1" stop-color="#EA9C3E"/>
</linearGradient>
<linearGradient id="paint2_linear_1:267" x1="-114.052" y1="15.0905" x2="-113.705" y2="15.0905" gradientUnits="userSpaceOnUse">
<stop stop-color="#A45D96"/>
<stop offset="1" stop-color="#965F99"/>
</linearGradient>
<linearGradient id="paint3_linear_1:267" x1="-114.485" y1="15.1491" x2="-114.139" y2="15.1491" gradientUnits="userSpaceOnUse">
<stop stop-color="#72AF52"/>
<stop offset="1" stop-color="#E78C3E"/>
</linearGradient>
<linearGradient id="paint4_linear_1:267" x1="-114.052" y1="15.144" x2="-113.705" y2="15.144" gradientUnits="userSpaceOnUse">
<stop stop-color="#A54E8D"/>
<stop offset="0.914" stop-color="#8D5794"/>
<stop offset="0.917" stop-color="#8D5794"/>
<stop offset="1" stop-color="#8D5794"/>
</linearGradient>
</defs>
</svg>
