<svg width="200" height="93" viewBox="0 0 200 93" fill="none" xmlns="http://www.w3.org/2000/svg">
<g opacity="0.8">
<path d="M64.5987 37.4254C64.7711 37.4083 64.9091 37.374 65.0471 37.374C68.6688 37.4254 72.2906 37.2884 75.8951 37.5623C79.9998 37.8875 81.6899 40.7799 80.8103 44.2542C80.4654 45.6063 79.5341 46.5134 78.1544 47.1466C78.6373 47.4205 79.0167 47.6259 79.3961 47.8483C82.742 49.8337 82.7247 54.9339 79.3961 56.9364C78.0509 57.7408 76.585 58.1344 75.05 58.1515C71.687 58.22 68.3239 58.22 64.9781 58.2371C64.8746 58.2371 64.7539 58.2029 64.5814 58.1686C64.5987 51.2713 64.5987 44.3569 64.5987 37.4254ZM69.1 54.4205C71.1868 54.4205 73.1874 54.4889 75.188 54.3862C76.4815 54.3178 77.2231 53.3765 77.2921 52.0928C77.3611 50.7065 76.7057 49.6112 75.3777 49.4743C73.3081 49.2518 71.2213 49.2518 69.1 49.1662C69.1 51.0146 69.1 52.6919 69.1 54.4205ZM69.169 45.6919C70.9971 45.6919 72.739 45.7774 74.4809 45.6576C75.7226 45.5721 76.4642 44.6136 76.4987 43.4669C76.5332 42.3373 75.8951 41.4987 74.6534 41.2591C73.7393 41.088 72.7735 41.088 71.8249 41.0537C70.9454 41.0195 70.083 41.0537 69.169 41.0537C69.169 42.6796 69.169 44.1515 69.169 45.6919Z" fill="#10283F"/>
<path d="M156.781 58.1686C156.781 51.2371 156.781 44.3569 156.781 37.374C157.367 37.374 157.902 37.374 158.437 37.374C161.593 37.4254 164.766 37.4083 167.922 37.5281C171.889 37.6821 174.321 41.3105 172.734 44.7848C172.303 45.7432 171.354 46.462 170.613 47.3349C170.63 47.3349 170.82 47.4718 171.027 47.5745C172.958 48.4816 173.89 50.0219 173.993 52.1271C174.079 54.2664 173.372 56.0635 171.372 57.0048C170.199 57.5696 168.888 58.066 167.612 58.1173C164.042 58.2542 160.455 58.1686 156.781 58.1686ZM161.265 49.3887C161.265 51.0146 161.265 52.709 161.265 54.4034C163.317 54.4034 165.318 54.4889 167.319 54.3691C168.647 54.2836 169.405 53.2909 169.44 51.9902C169.492 50.6552 168.733 49.5427 167.319 49.4229C165.335 49.2689 163.317 49.3887 161.265 49.3887ZM161.265 45.6405C163.128 45.6405 164.939 45.7261 166.715 45.6063C167.871 45.5378 168.578 44.6136 168.629 43.5354C168.681 42.3887 168.043 41.4131 166.853 41.2762C165.025 41.0708 163.162 41.0708 161.248 40.9682C161.265 42.6454 161.265 44.1344 161.265 45.6405Z" fill="#10283F"/>
<path d="M62.9085 58.2196C61.2356 58.2196 59.7524 58.2538 58.252 58.2025C57.9933 58.1854 57.6656 57.9115 57.4932 57.6548C55.8375 55.2587 54.2163 52.8455 52.6124 50.4152C52.3192 49.9531 51.9915 49.7306 51.4396 49.7648C50.6463 49.8162 49.8357 49.782 48.9217 49.782C48.9217 52.6059 48.9217 55.3785 48.9217 58.2025C47.335 58.2025 45.8518 58.2025 44.3341 58.2025C44.3341 51.271 44.3341 44.3908 44.3341 37.4421C45.8173 37.4421 47.3005 37.4421 48.8527 37.4421C48.8527 40.112 48.8527 42.782 48.8527 45.5888C49.9565 45.5888 50.974 45.623 51.9915 45.5546C52.1985 45.5375 52.4227 45.2123 52.5607 44.9898C54.0439 42.6964 55.5443 40.3859 56.993 38.0582C57.3207 37.5277 57.6829 37.3394 58.3037 37.3565C59.649 37.4079 60.9769 37.3736 62.5291 37.3736C62.2532 37.8357 62.0807 38.1096 61.9082 38.3834C60.0111 41.2074 58.1313 44.0313 56.2169 46.8382C55.872 47.3345 55.872 47.6768 56.2169 48.1903C58.2692 51.1854 60.2698 54.1976 62.2877 57.2269C62.4601 57.5008 62.6326 57.7746 62.9085 58.2196Z" fill="#10283F"/>
<path d="M155.625 58.2205C154.177 58.2205 152.745 58.2376 151.314 58.2033C151.124 58.2033 150.865 57.8953 150.779 57.6899C150.4 56.8341 150.055 55.9442 149.744 55.0713C149.589 54.6263 149.382 54.4381 148.882 54.4552C146.088 54.4723 143.311 54.4723 140.518 54.4552C140.035 54.4552 139.793 54.5921 139.638 55.0371C139.31 55.9442 138.965 56.8513 138.569 57.7412C138.482 57.9466 138.207 58.2205 138 58.2205C136.603 58.2547 135.188 58.2376 133.653 58.2376C133.947 57.5187 134.188 56.9026 134.447 56.2693C136.93 50.2278 139.414 44.2033 141.863 38.1618C142.104 37.5627 142.397 37.3403 143.053 37.3745C144.226 37.4429 145.416 37.3916 146.588 37.4601C146.864 37.4772 147.261 37.6997 147.347 37.9393C150.107 44.597 152.832 51.2718 155.556 57.9295C155.625 57.9808 155.608 58.0835 155.625 58.2205ZM148.002 50.553C146.881 47.6777 145.812 44.9564 144.691 42.0469C143.57 44.9735 142.501 47.7119 141.414 50.553C143.674 50.553 145.76 50.553 148.002 50.553Z" fill="#10283F"/>
<path d="M108.094 25C109.577 26.5232 110.992 27.9609 112.44 29.4499C109.474 32.3765 106.439 35.3545 103.403 38.3325C106.559 41.4132 109.595 44.3912 112.63 47.3863C111.026 48.9438 109.56 50.3472 108.163 51.7164C103.731 47.3007 99.2296 42.7995 94.7455 38.3325C99.0743 34.0024 103.541 29.5355 108.094 25Z" fill="#10283F"/>
<path d="M40.6089 42.8342C38.8153 41.6875 37.0734 41.1227 35.2108 41.02C34.1415 40.9687 33.0377 41.1056 31.9857 41.2768C31.2613 41.3966 30.7612 41.91 30.675 42.6802C30.606 43.4161 30.9854 43.9809 31.6063 44.289C32.7445 44.8367 33.9345 45.2645 35.0728 45.7609C36.6077 46.4455 38.2634 46.976 39.6604 47.8831C42.3853 49.6631 42.9544 53.7022 40.9711 56.201C39.7638 57.7242 38.0392 58.2548 36.2111 58.5115C32.8825 59.0078 29.6919 58.443 26.622 57.091C26.1564 56.8856 25.9839 56.646 26.0012 56.1325C26.0357 54.9687 26.0184 53.8049 26.0184 52.4528C26.4668 52.7095 26.7255 52.8465 26.9842 52.9834C29.6747 54.421 32.5376 54.9516 35.5557 54.4553C36.418 54.3183 37.1769 53.9932 37.3666 53.0176C37.539 52.0249 37.0389 51.3575 36.1766 50.9638C34.9003 50.3819 33.5896 49.8856 32.2961 49.3379C31.0716 48.8073 29.7781 48.3281 28.6399 47.6606C26.5875 46.4112 25.777 44.4944 26.0529 42.1154C26.3116 39.8562 27.6913 38.5213 29.7092 37.6484C31.3303 36.9467 33.0032 36.9638 34.7106 37.0323C36.5732 37.0836 38.3669 37.4259 40.0225 38.2988C40.2985 38.4357 40.5744 38.8636 40.5917 39.1716C40.6434 40.3183 40.6089 41.4821 40.6089 42.8342Z" fill="#10283F"/>
<path d="M87.5193 62.5502C90.4512 59.6749 93.4866 56.6969 96.5909 53.6504C93.5555 50.6895 90.5547 47.7629 87.5538 44.8362C89.0887 43.313 90.5202 41.8925 91.7964 40.626C96.2805 44.9903 100.782 49.3717 105.335 53.8216C100.816 58.2372 96.315 62.6186 91.8137 67.0001C90.4684 65.5966 89.0715 64.159 87.5193 62.5502Z" fill="#10283F"/>
<path d="M123.047 54.2155C126.565 54.2155 129.911 54.2155 133.343 54.2155C133.343 55.5505 133.343 56.817 133.343 58.1691C128.445 58.1691 123.513 58.1691 118.528 58.1691C118.528 51.2889 118.528 44.3916 118.528 37.4258C120.012 37.4258 121.495 37.4258 123.064 37.4258C123.047 43.0052 123.047 48.5505 123.047 54.2155Z" fill="#10283F"/>
</g>
</svg>
