<svg width="28" height="28" viewBox="0 0 28 28" fill="none" xmlns="http://www.w3.org/2000/svg">
<path d="M22.7425 18.1562V6.07031C22.7425 4.8642 21.7798 3.88281 20.5963 3.88281H13.8419V11.7031C13.8419 13.5125 12.3979 14.9844 10.6227 14.9844C8.84748 14.9844 7.40343 13.5125 7.40343 11.7031V7C7.40343 6.39587 7.8838 5.90625 8.47651 5.90625C9.06923 5.90625 9.5496 6.39587 9.5496 7V11.7031C9.5496 12.3062 10.031 12.7969 10.6227 12.7969C11.2144 12.7969 11.6958 12.3062 11.6958 11.7031V3.28125C11.6958 2.67819 11.2144 2.1875 10.6227 2.1875C10.1274 2.1875 9.68751 2.54361 9.57685 3.03409C9.45654 3.56793 8.97135 3.9187 8.45136 3.87854C8.42433 3.88068 8.39708 3.88281 8.36921 3.88281H7.40343C6.2201 3.88281 5.25726 4.8642 5.25726 6.07031V23.625C5.25726 24.8311 6.2201 25.8125 7.40343 25.8125H20.5965C21.7798 25.8125 22.7427 24.8311 22.7427 23.625C22.7427 23.4065 22.7425 21.5833 22.7425 21.5833C22.7425 21.5833 23.3539 21.5833 23.7322 21.5833C24.1105 21.5833 24.8887 21.5833 24.8887 21.5833C24.8887 21.5833 24.8889 23.4065 24.8889 23.625C24.8889 26.0374 22.9632 28 20.5965 28H7.40343C5.03656 28 3.11108 26.0374 3.11108 23.625V6.07031C3.11108 3.65787 5.03656 1.69531 7.40343 1.69531H7.80206C8.35495 0.665863 9.41882 0 10.6227 0C11.8337 0 12.8902 0.685303 13.4397 1.69531H20.5963C22.9632 1.69531 24.8887 3.65787 24.8887 6.07031V18.1562C24.8887 18.4247 24.8887 21.5833 24.8887 21.5833C24.8887 21.5833 24.0616 21.5833 23.7322 21.5833C23.403 21.5833 22.7425 21.5833 22.7425 21.5833C22.7425 21.5833 22.7425 18.4247 22.7425 18.1562ZM8.47651 21.4375C7.8838 21.4375 7.40343 21.9271 7.40343 22.5312C7.40343 23.1354 7.8838 23.625 8.47651 23.625H16.2564C16.8491 23.625 17.3295 23.1354 17.3295 22.5312C17.3295 21.9271 16.8491 21.4375 16.2564 21.4375H8.47651ZM20.5487 18.2109C20.5487 17.6068 20.0684 17.1172 19.4756 17.1172H8.47651C7.8838 17.1172 7.40343 17.6068 7.40343 18.2109C7.40343 18.8151 7.8838 19.3047 8.47651 19.3047H19.4756C20.0684 19.3047 20.5487 18.8151 20.5487 18.2109ZM19.4756 12.8516H17.0075C16.4148 12.8516 15.9345 13.3412 15.9345 13.9453C15.9345 14.5494 16.4148 15.0391 17.0075 15.0391H19.4756C20.0684 15.0391 20.5487 14.5494 20.5487 13.9453C20.5487 13.3412 20.0684 12.8516 19.4756 12.8516ZM19.4756 8.53125H17.0075C16.4148 8.53125 15.9345 9.02087 15.9345 9.625C15.9345 10.2291 16.4148 10.7188 17.0075 10.7188H19.4756C20.0684 10.7188 20.5487 10.2291 20.5487 9.625C20.5487 9.02087 20.0684 8.53125 19.4756 8.53125Z" fill="white"/>
</svg>
