<svg width="723" height="433" viewBox="0 0 723 433" fill="none" xmlns="http://www.w3.org/2000/svg">
<g filter="url(#filter0_d_409_80)">
<rect x="20" y="30" width="683" height="355" rx="10" fill="white"/>
</g>
<g filter="url(#filter1_d_409_80)">
<path d="M64 14C64 7.37259 69.3726 2 76 2H647C653.627 2 659 7.37258 659 14V72.2C659 78.8274 653.627 84.2 647 84.2H76C69.3726 84.2 64 78.8274 64 72.2V14Z" fill="url(#paint0_linear_409_80)"/>
</g>
<ellipse cx="104.3" cy="41.9172" rx="17.4859" ry="17.0837" stroke="#B5C2ED" stroke-width="4" stroke-linecap="round" stroke-linejoin="round"/>
<path d="M116.462 54.686L123.317 61.3664" stroke="#B5C2ED" stroke-width="4" stroke-linecap="round" stroke-linejoin="round"/>
<rect x="157.995" y="38.5332" width="273.773" height="9.13333" rx="4.56667" fill="#B5C2ED"/>
<g filter="url(#filter2_d_409_80)">
<g filter="url(#filter3_d_409_80)">
<rect x="609.72" y="193.8" width="452.638" height="82.2" rx="6" transform="rotate(-180 609.72 193.8)" fill="url(#paint1_linear_409_80)"/>
</g>
<rect x="179.897" y="134.434" width="407.009" height="9.13333" rx="4.56667" fill="white"/>
<rect x="224.613" y="134.434" width="155.138" height="9.13333" rx="4.56667" fill="#B5C2ED"/>
<rect x="179.897" y="161.833" width="268.298" height="9.13333" rx="4.56667" fill="white"/>
</g>
<g filter="url(#filter4_d_409_80)">
<g filter="url(#filter5_d_409_80)">
<rect x="609.721" y="303.4" width="315.752" height="82.2" rx="6" transform="rotate(-180 609.721 303.4)" fill="url(#paint2_linear_409_80)"/>
</g>
<rect x="316.784" y="244.033" width="270.123" height="9.13333" rx="4.56667" fill="white"/>
<rect x="429.031" y="244.033" width="103.121" height="9.13333" rx="4.56667" fill="#B5C2ED"/>
<rect x="316.784" y="271.433" width="177.952" height="9.13333" rx="4.56667" fill="white"/>
</g>
<g filter="url(#filter6_d_409_80)">
<g filter="url(#filter7_d_409_80)">
<rect x="609.721" y="413" width="385.107" height="82.2" rx="6" transform="rotate(-180 609.721 413)" fill="url(#paint3_linear_409_80)"/>
</g>
<rect x="247.428" y="353.634" width="339.479" height="9.13333" rx="4.56667" fill="white"/>
<rect x="247.428" y="381.034" width="223.581" height="9.13333" rx="4.56667" fill="white"/>
<rect x="341.423" y="381.034" width="129.586" height="9.13333" rx="4.56667" fill="#B5C2ED"/>
</g>
<g filter="url(#filter8_d_409_80)">
<rect x="171.684" y="330.8" width="43.8037" height="43.84" rx="6" fill="#FFCAB9"/>
<ellipse cx="193.178" cy="347.93" rx="4.63284" ry="4.50031" stroke="#F48432" stroke-width="1.5" stroke-linecap="round" stroke-linejoin="round"/>
<path fill-rule="evenodd" clip-rule="evenodd" d="M185.829 358.689C185.828 358.373 185.901 358.06 186.042 357.775C186.486 356.913 187.737 356.456 188.776 356.25C189.525 356.094 190.284 355.991 191.048 355.939C192.462 355.818 193.885 355.818 195.299 355.939C196.063 355.991 196.822 356.095 197.571 356.25C198.609 356.456 199.861 356.87 200.305 357.775C200.589 358.356 200.589 359.031 200.305 359.612C199.861 360.517 198.609 360.931 197.571 361.129C196.823 361.291 196.063 361.397 195.299 361.448C194.148 361.543 192.991 361.56 191.838 361.5C191.571 361.5 191.314 361.5 191.048 361.448C190.286 361.398 189.529 361.291 188.785 361.129C187.737 360.931 186.495 360.517 186.042 359.612C185.901 359.324 185.829 359.008 185.829 358.689Z" stroke="#F48432" stroke-width="1.5" stroke-linecap="round" stroke-linejoin="round"/>
</g>
<g filter="url(#filter9_d_409_80)">
<rect x="241.04" y="221.2" width="43.8037" height="43.84" rx="6" fill="#B9FFD9"/>
<ellipse cx="262.533" cy="238.061" rx="4.63284" ry="4.77306" stroke="#28E7A2" stroke-width="1.5" stroke-linecap="round" stroke-linejoin="round"/>
<path fill-rule="evenodd" clip-rule="evenodd" d="M255.185 249.472C255.184 249.137 255.256 248.805 255.398 248.503C255.842 247.589 257.093 247.104 258.131 246.885C258.88 246.72 259.64 246.61 260.403 246.555C261.818 246.427 263.24 246.427 264.655 246.555C265.418 246.611 266.178 246.721 266.927 246.885C267.965 247.104 269.216 247.543 269.66 248.503C269.945 249.119 269.945 249.835 269.66 250.451C269.216 251.411 267.965 251.85 266.927 252.06C266.179 252.232 265.419 252.345 264.655 252.398C263.503 252.499 262.347 252.517 261.193 252.453C260.927 252.453 260.67 252.453 260.403 252.398C259.642 252.345 258.885 252.232 258.14 252.06C257.093 251.85 255.85 251.411 255.398 250.451C255.257 250.145 255.184 249.811 255.185 249.472Z" stroke="#28E7A2" stroke-width="1.5" stroke-linecap="round" stroke-linejoin="round"/>
</g>
<g filter="url(#filter10_d_409_80)">
<rect x="104.153" y="111.6" width="43.8037" height="43.84" rx="6" fill="#E8E2FD"/>
<ellipse cx="125.647" cy="128.938" rx="4.63284" ry="4.63668" stroke="#6C3EF8" stroke-width="1.5" stroke-linecap="round" stroke-linejoin="round"/>
<path fill-rule="evenodd" clip-rule="evenodd" d="M118.298 140.023C118.297 139.698 118.37 139.376 118.511 139.082C118.955 138.194 120.206 137.723 121.245 137.51C121.993 137.35 122.753 137.243 123.517 137.19C124.931 137.066 126.353 137.066 127.768 137.19C128.532 137.244 129.291 137.35 130.04 137.51C131.078 137.723 132.33 138.149 132.773 139.082C133.058 139.68 133.058 140.375 132.773 140.974C132.33 141.907 131.078 142.333 130.04 142.537C129.292 142.704 128.532 142.814 127.768 142.866C126.617 142.964 125.46 142.981 124.306 142.919C124.04 142.919 123.783 142.919 123.517 142.866C122.755 142.814 121.998 142.704 121.253 142.537C120.206 142.333 118.964 141.907 118.511 140.974C118.37 140.677 118.298 140.352 118.298 140.023Z" stroke="#6C3EF8" stroke-width="1.5" stroke-linecap="round" stroke-linejoin="round"/>
</g>
<defs>
<filter id="filter0_d_409_80" x="0" y="14" width="723" height="395" filterUnits="userSpaceOnUse" color-interpolation-filters="sRGB">
<feFlood flood-opacity="0" result="BackgroundImageFix"/>
<feColorMatrix in="SourceAlpha" type="matrix" values="0 0 0 0 0 0 0 0 0 0 0 0 0 0 0 0 0 0 127 0" result="hardAlpha"/>
<feOffset dy="4"/>
<feGaussianBlur stdDeviation="10"/>
<feColorMatrix type="matrix" values="0 0 0 0 0 0 0 0 0 0 0 0 0 0 0 0 0 0 0.1 0"/>
<feBlend mode="normal" in2="BackgroundImageFix" result="effect1_dropShadow_409_80"/>
<feBlend mode="normal" in="SourceGraphic" in2="effect1_dropShadow_409_80" result="shape"/>
</filter>
<filter id="filter1_d_409_80" x="58" y="0" width="607" height="94.2002" filterUnits="userSpaceOnUse" color-interpolation-filters="sRGB">
<feFlood flood-opacity="0" result="BackgroundImageFix"/>
<feColorMatrix in="SourceAlpha" type="matrix" values="0 0 0 0 0 0 0 0 0 0 0 0 0 0 0 0 0 0 127 0" result="hardAlpha"/>
<feOffset dy="4"/>
<feGaussianBlur stdDeviation="3"/>
<feColorMatrix type="matrix" values="0 0 0 0 0 0 0 0 0 0 0 0 0 0 0 0 0 0 0.07 0"/>
<feBlend mode="normal" in2="BackgroundImageFix" result="effect1_dropShadow_409_80"/>
<feBlend mode="normal" in="SourceGraphic" in2="effect1_dropShadow_409_80" result="shape"/>
</filter>
<filter id="filter2_d_409_80" x="151.082" y="109.6" width="464.638" height="94.2002" filterUnits="userSpaceOnUse" color-interpolation-filters="sRGB">
<feFlood flood-opacity="0" result="BackgroundImageFix"/>
<feColorMatrix in="SourceAlpha" type="matrix" values="0 0 0 0 0 0 0 0 0 0 0 0 0 0 0 0 0 0 127 0" result="hardAlpha"/>
<feOffset dy="4"/>
<feGaussianBlur stdDeviation="3"/>
<feColorMatrix type="matrix" values="0 0 0 0 0 0 0 0 0 0 0 0 0 0 0 0 0 0 0.07 0"/>
<feBlend mode="normal" in2="BackgroundImageFix" result="effect1_dropShadow_409_80"/>
<feBlend mode="normal" in="SourceGraphic" in2="effect1_dropShadow_409_80" result="shape"/>
</filter>
<filter id="filter3_d_409_80" x="141.082" y="99.6001" width="484.638" height="114.2" filterUnits="userSpaceOnUse" color-interpolation-filters="sRGB">
<feFlood flood-opacity="0" result="BackgroundImageFix"/>
<feColorMatrix in="SourceAlpha" type="matrix" values="0 0 0 0 0 0 0 0 0 0 0 0 0 0 0 0 0 0 127 0" result="hardAlpha"/>
<feOffset dy="4"/>
<feGaussianBlur stdDeviation="8"/>
<feColorMatrix type="matrix" values="0 0 0 0 0.150075 0 0 0 0 0.10125 0 0 0 0 0.45 0 0 0 0.08 0"/>
<feBlend mode="normal" in2="BackgroundImageFix" result="effect1_dropShadow_409_80"/>
<feBlend mode="normal" in="SourceGraphic" in2="effect1_dropShadow_409_80" result="shape"/>
</filter>
<filter id="filter4_d_409_80" x="287.969" y="219.2" width="327.751" height="94.2002" filterUnits="userSpaceOnUse" color-interpolation-filters="sRGB">
<feFlood flood-opacity="0" result="BackgroundImageFix"/>
<feColorMatrix in="SourceAlpha" type="matrix" values="0 0 0 0 0 0 0 0 0 0 0 0 0 0 0 0 0 0 127 0" result="hardAlpha"/>
<feOffset dy="4"/>
<feGaussianBlur stdDeviation="3"/>
<feColorMatrix type="matrix" values="0 0 0 0 0 0 0 0 0 0 0 0 0 0 0 0 0 0 0.07 0"/>
<feBlend mode="normal" in2="BackgroundImageFix" result="effect1_dropShadow_409_80"/>
<feBlend mode="normal" in="SourceGraphic" in2="effect1_dropShadow_409_80" result="shape"/>
</filter>
<filter id="filter5_d_409_80" x="277.969" y="209.2" width="347.751" height="114.2" filterUnits="userSpaceOnUse" color-interpolation-filters="sRGB">
<feFlood flood-opacity="0" result="BackgroundImageFix"/>
<feColorMatrix in="SourceAlpha" type="matrix" values="0 0 0 0 0 0 0 0 0 0 0 0 0 0 0 0 0 0 127 0" result="hardAlpha"/>
<feOffset dy="4"/>
<feGaussianBlur stdDeviation="8"/>
<feColorMatrix type="matrix" values="0 0 0 0 0.150075 0 0 0 0 0.10125 0 0 0 0 0.45 0 0 0 0.08 0"/>
<feBlend mode="normal" in2="BackgroundImageFix" result="effect1_dropShadow_409_80"/>
<feBlend mode="normal" in="SourceGraphic" in2="effect1_dropShadow_409_80" result="shape"/>
</filter>
<filter id="filter6_d_409_80" x="218.614" y="328.8" width="397.107" height="94.2002" filterUnits="userSpaceOnUse" color-interpolation-filters="sRGB">
<feFlood flood-opacity="0" result="BackgroundImageFix"/>
<feColorMatrix in="SourceAlpha" type="matrix" values="0 0 0 0 0 0 0 0 0 0 0 0 0 0 0 0 0 0 127 0" result="hardAlpha"/>
<feOffset dy="4"/>
<feGaussianBlur stdDeviation="3"/>
<feColorMatrix type="matrix" values="0 0 0 0 0 0 0 0 0 0 0 0 0 0 0 0 0 0 0.07 0"/>
<feBlend mode="normal" in2="BackgroundImageFix" result="effect1_dropShadow_409_80"/>
<feBlend mode="normal" in="SourceGraphic" in2="effect1_dropShadow_409_80" result="shape"/>
</filter>
<filter id="filter7_d_409_80" x="208.614" y="318.8" width="417.107" height="114.2" filterUnits="userSpaceOnUse" color-interpolation-filters="sRGB">
<feFlood flood-opacity="0" result="BackgroundImageFix"/>
<feColorMatrix in="SourceAlpha" type="matrix" values="0 0 0 0 0 0 0 0 0 0 0 0 0 0 0 0 0 0 127 0" result="hardAlpha"/>
<feOffset dy="4"/>
<feGaussianBlur stdDeviation="8"/>
<feColorMatrix type="matrix" values="0 0 0 0 0.150075 0 0 0 0 0.10125 0 0 0 0 0.45 0 0 0 0.08 0"/>
<feBlend mode="normal" in2="BackgroundImageFix" result="effect1_dropShadow_409_80"/>
<feBlend mode="normal" in="SourceGraphic" in2="effect1_dropShadow_409_80" result="shape"/>
</filter>
<filter id="filter8_d_409_80" x="162.684" y="325.8" width="61.8037" height="61.8398" filterUnits="userSpaceOnUse" color-interpolation-filters="sRGB">
<feFlood flood-opacity="0" result="BackgroundImageFix"/>
<feColorMatrix in="SourceAlpha" type="matrix" values="0 0 0 0 0 0 0 0 0 0 0 0 0 0 0 0 0 0 127 0" result="hardAlpha"/>
<feOffset dy="4"/>
<feGaussianBlur stdDeviation="4.5"/>
<feColorMatrix type="matrix" values="0 0 0 0 0.4 0 0 0 0 0.127667 0 0 0 0 0.0416667 0 0 0 0.09 0"/>
<feBlend mode="normal" in2="BackgroundImageFix" result="effect1_dropShadow_409_80"/>
<feBlend mode="normal" in="SourceGraphic" in2="effect1_dropShadow_409_80" result="shape"/>
</filter>
<filter id="filter9_d_409_80" x="237.04" y="221.2" width="51.8037" height="51.8398" filterUnits="userSpaceOnUse" color-interpolation-filters="sRGB">
<feFlood flood-opacity="0" result="BackgroundImageFix"/>
<feColorMatrix in="SourceAlpha" type="matrix" values="0 0 0 0 0 0 0 0 0 0 0 0 0 0 0 0 0 0 127 0" result="hardAlpha"/>
<feOffset dy="4"/>
<feGaussianBlur stdDeviation="2"/>
<feColorMatrix type="matrix" values="0 0 0 0 0.024375 0 0 0 0 0.45 0 0 0 0 0.092475 0 0 0 0.09 0"/>
<feBlend mode="normal" in2="BackgroundImageFix" result="effect1_dropShadow_409_80"/>
<feBlend mode="normal" in="SourceGraphic" in2="effect1_dropShadow_409_80" result="shape"/>
</filter>
<filter id="filter10_d_409_80" x="100.153" y="111.6" width="51.8037" height="51.8398" filterUnits="userSpaceOnUse" color-interpolation-filters="sRGB">
<feFlood flood-opacity="0" result="BackgroundImageFix"/>
<feColorMatrix in="SourceAlpha" type="matrix" values="0 0 0 0 0 0 0 0 0 0 0 0 0 0 0 0 0 0 127 0" result="hardAlpha"/>
<feOffset dy="4"/>
<feGaussianBlur stdDeviation="2"/>
<feColorMatrix type="matrix" values="0 0 0 0 0.406288 0 0 0 0 0.357118 0 0 0 0 0.708333 0 0 0 0.09 0"/>
<feBlend mode="normal" in2="BackgroundImageFix" result="effect1_dropShadow_409_80"/>
<feBlend mode="normal" in="SourceGraphic" in2="effect1_dropShadow_409_80" result="shape"/>
</filter>
<linearGradient id="paint0_linear_409_80" x1="361.5" y1="2" x2="361.5" y2="84.2" gradientUnits="userSpaceOnUse">
<stop stop-color="#EEF8FF"/>
<stop offset="1" stop-color="#F3F4FF"/>
</linearGradient>
<linearGradient id="paint1_linear_409_80" x1="836.039" y1="193.8" x2="836.039" y2="276" gradientUnits="userSpaceOnUse">
<stop stop-color="#EEF8FF"/>
<stop offset="1" stop-color="#F3F4FF"/>
</linearGradient>
<linearGradient id="paint2_linear_409_80" x1="767.596" y1="303.4" x2="767.596" y2="385.6" gradientUnits="userSpaceOnUse">
<stop stop-color="#EEF8FF"/>
<stop offset="1" stop-color="#F3F4FF"/>
</linearGradient>
<linearGradient id="paint3_linear_409_80" x1="802.275" y1="413" x2="802.275" y2="495.2" gradientUnits="userSpaceOnUse">
<stop stop-color="#EEF8FF"/>
<stop offset="1" stop-color="#F3F4FF"/>
</linearGradient>
</defs>
</svg>
