<svg width="723" height="428" viewBox="0 0 723 428" fill="none" xmlns="http://www.w3.org/2000/svg">
<g filter="url(#filter0_d_408_77)">
<rect x="20" y="18" width="683" height="355" rx="10" fill="white"/>
</g>
<path d="M64.0001 12C64.0001 5.37259 69.3727 0 76.0001 0H647C653.628 0 659 5.37258 659 12V82.2H64.0001V12Z" fill="url(#paint0_linear_408_77)"/>
<g filter="url(#filter1_d_408_77)">
<path d="M64.0001 82.2002H659V369.034C659 374.556 654.523 379.034 649 379.034H74.0001C68.4773 379.034 64.0001 374.556 64.0001 369.034V82.2002Z" fill="white"/>
</g>
<rect x="77.6888" y="18.2666" width="270.123" height="45.6667" rx="6" fill="white"/>
<path d="M180.949 45.7683H173.283L171.772 49.3193H168.837L175.736 33.9753H178.539L185.46 49.3193H182.482L180.949 45.7683ZM180.007 43.5324L177.116 36.8249L174.247 43.5324H180.007Z" fill="#8C879E"/>
<path d="M187.147 33.0547H189.885V49.3193H187.147V33.0547Z" fill="#8C879E"/>
<path d="M193.478 33.0547H196.216V49.3193H193.478V33.0547Z" fill="#8C879E"/>
<path d="M211.228 49.4728C210.016 49.4728 208.929 49.217 207.965 48.7056C207.001 48.1941 206.249 47.4854 205.709 46.5793C205.169 45.6587 204.899 44.6211 204.899 43.4667C204.899 42.3122 205.169 41.282 205.709 40.376C206.249 39.4699 206.994 38.7612 207.943 38.2497C208.907 37.7383 210.002 37.4825 211.228 37.4825C212.382 37.4825 213.389 37.7163 214.251 38.184C215.127 38.6516 215.784 39.3238 216.222 40.2006L214.119 41.4281C213.783 40.8874 213.36 40.4856 212.849 40.2225C212.353 39.9449 211.805 39.806 211.206 39.806C210.184 39.806 209.337 40.1422 208.666 40.8144C207.994 41.472 207.658 42.3561 207.658 43.4667C207.658 44.5773 207.987 45.4687 208.644 46.1409C209.316 46.7985 210.17 47.1273 211.206 47.1273C211.805 47.1273 212.353 46.9958 212.849 46.7328C213.36 46.4551 213.783 46.0459 214.119 45.5052L216.222 46.7328C215.769 47.6096 215.105 48.2891 214.229 48.7713C213.367 49.239 212.367 49.4728 211.228 49.4728Z" fill="#8C879E"/>
<path d="M225.118 37.4825C226.593 37.4825 227.775 37.9136 228.666 38.7758C229.557 39.638 230.002 40.9167 230.002 42.6118V49.3193H227.264V42.9625C227.264 41.9396 227.023 41.1724 226.541 40.6609C226.06 40.1348 225.373 39.8718 224.483 39.8718C223.475 39.8718 222.679 40.1787 222.095 40.7924C221.511 41.3916 221.219 42.2611 221.219 43.4009V49.3193H218.482V33.0547H221.219V38.9731C221.672 38.4908 222.227 38.1255 222.884 37.8771C223.555 37.614 224.3 37.4825 225.118 37.4825Z" fill="#8C879E"/>
<path d="M237.943 37.4825C239.666 37.4825 240.98 37.899 241.885 38.732C242.805 39.5503 243.265 40.7924 243.265 42.4584V49.3193H240.681V47.8945C240.345 48.406 239.863 48.8006 239.235 49.0782C238.622 49.3412 237.877 49.4728 237.001 49.4728C236.125 49.4728 235.358 49.3266 234.701 49.0344C234.044 48.7275 233.533 48.311 233.168 47.7849C232.818 47.2442 232.643 46.6378 232.643 45.9656C232.643 44.9134 233.03 44.0731 233.803 43.4448C234.592 42.8018 235.826 42.4803 237.505 42.4803H240.527V42.3049C240.527 41.4866 240.279 40.8582 239.783 40.4198C239.301 39.9814 238.578 39.7622 237.614 39.7622C236.957 39.7622 236.308 39.8645 235.665 40.0691C235.037 40.2737 234.504 40.5586 234.066 40.924L232.993 38.9292C233.606 38.4616 234.344 38.1036 235.205 37.8552C236.067 37.6067 236.979 37.4825 237.943 37.4825ZM237.571 47.478C238.257 47.478 238.863 47.3246 239.388 47.0177C239.929 46.6962 240.308 46.2432 240.527 45.6587V44.2996H237.702C236.125 44.2996 235.337 44.8184 235.337 45.856C235.337 46.3528 235.534 46.7474 235.928 47.0396C236.322 47.3319 236.87 47.478 237.571 47.478Z" fill="#8C879E"/>
<path d="M253.809 48.6836C253.488 48.9467 253.094 49.144 252.626 49.2755C252.174 49.407 251.692 49.4728 251.181 49.4728C249.896 49.4728 248.903 49.1367 248.202 48.4644C247.501 47.7922 247.151 46.8131 247.151 45.5272V39.8937H245.224V37.7017H247.151V35.0275H249.889V37.7017H253.021V39.8937H249.889V45.4614C249.889 46.0313 250.027 46.4697 250.305 46.7766C250.582 47.0689 250.984 47.215 251.509 47.215C252.123 47.215 252.634 47.0543 253.042 46.7328L253.809 48.6836Z" fill="#8C879E"/>
<path d="M259.675 49.4728C258.726 49.4728 257.799 49.3486 256.893 49.1001C255.988 48.8517 255.265 48.5375 254.725 48.1576L255.776 46.0752C256.302 46.4259 256.93 46.7108 257.66 46.93C258.405 47.1346 259.135 47.2369 259.85 47.2369C261.486 47.2369 262.303 46.8058 262.303 45.9436C262.303 45.5345 262.091 45.2495 261.668 45.0888C261.259 44.928 260.595 44.7746 259.675 44.6284C258.711 44.4823 257.923 44.3143 257.31 44.1243C256.711 43.9343 256.185 43.6055 255.733 43.1379C255.295 42.6556 255.076 41.9907 255.076 41.1432C255.076 40.0326 255.536 39.1484 256.455 38.4908C257.39 37.8186 258.646 37.4825 260.223 37.4825C261.026 37.4825 261.829 37.5775 262.632 37.7675C263.435 37.9428 264.092 38.184 264.603 38.4908L263.552 40.5732C262.559 39.9887 261.442 39.6964 260.201 39.6964C259.398 39.6964 258.784 39.8207 258.361 40.0691C257.952 40.3029 257.748 40.6171 257.748 41.0116C257.748 41.45 257.967 41.7642 258.405 41.9542C258.857 42.1296 259.551 42.2976 260.485 42.4584C261.42 42.6045 262.186 42.7726 262.785 42.9625C263.384 43.1525 263.895 43.474 264.318 43.927C264.756 44.38 264.975 45.023 264.975 45.856C264.975 46.952 264.501 47.8288 263.552 48.4864C262.603 49.144 261.31 49.4728 259.675 49.4728Z" fill="#8C879E"/>
<path d="M465.687 33.9757C467.016 33.9757 468.169 34.1949 469.147 34.6333C470.14 35.0717 470.9 35.7001 471.425 36.5184C471.951 37.3368 472.214 38.3086 472.214 39.4338C472.214 40.5444 471.951 41.5162 471.425 42.3491C470.9 43.1675 470.14 43.7959 469.147 44.2343C468.169 44.6727 467.016 44.8919 465.687 44.8919H462.226V49.3197H459.379V33.9757H465.687ZM465.555 42.4807C466.797 42.4807 467.738 42.2176 468.381 41.6915C469.023 41.1655 469.344 40.4129 469.344 39.4338C469.344 38.4547 469.023 37.7021 468.381 37.176C467.738 36.6499 466.797 36.3869 465.555 36.3869H462.226V42.4807H465.555Z" fill="#8C879E"/>
<path d="M477.293 39.3242C478.082 38.0967 479.469 37.4829 481.455 37.4829V40.0914C481.221 40.0475 481.009 40.0256 480.82 40.0256C479.754 40.0256 478.922 40.3398 478.323 40.9682C477.724 41.5819 477.425 42.4734 477.425 43.6424V49.3197H474.687V37.6144H477.293V39.3242Z" fill="#8C879E"/>
<path d="M483.777 37.6144H486.515V49.3197H483.777V37.6144ZM485.157 35.6855C484.661 35.6855 484.245 35.532 483.909 35.2251C483.573 34.9036 483.405 34.5091 483.405 34.0415C483.405 33.5738 483.573 33.1866 483.909 32.8797C484.245 32.5582 484.661 32.3975 485.157 32.3975C485.654 32.3975 486.07 32.5509 486.406 32.8578C486.741 33.15 486.909 33.5227 486.909 33.9757C486.909 34.4579 486.741 34.8671 486.406 35.2032C486.084 35.5247 485.668 35.6855 485.157 35.6855Z" fill="#8C879E"/>
<path d="M501.059 37.6144L496.044 49.3197H493.218L488.203 37.6144H491.05L494.686 46.2947L498.431 37.6144H501.059Z" fill="#8C879E"/>
<path d="M506.875 37.4829C508.598 37.4829 509.912 37.8994 510.817 38.7323C511.737 39.5507 512.197 40.7928 512.197 42.4587V49.3197H509.612V47.8949C509.277 48.4064 508.795 48.8009 508.167 49.0786C507.554 49.3416 506.809 49.4731 505.933 49.4731C505.057 49.4731 504.29 49.327 503.633 49.0347C502.976 48.7279 502.465 48.3114 502.1 47.7853C501.75 47.2446 501.574 46.6382 501.574 45.9659C501.574 44.9138 501.961 44.0735 502.735 43.4451C503.524 42.8022 504.757 42.4807 506.437 42.4807H509.459V42.3053C509.459 41.487 509.211 40.8586 508.714 40.4202C508.233 39.9818 507.51 39.7626 506.546 39.7626C505.889 39.7626 505.239 39.8649 504.597 40.0695C503.969 40.274 503.436 40.559 502.998 40.9243L501.925 38.9296C502.538 38.462 503.275 38.104 504.137 37.8555C504.998 37.6071 505.911 37.4829 506.875 37.4829ZM506.502 47.4784C507.189 47.4784 507.795 47.325 508.32 47.0181C508.86 46.6966 509.24 46.2436 509.459 45.6591V44.3H506.634C505.057 44.3 504.268 44.8188 504.268 45.8563C504.268 46.3532 504.465 46.7478 504.86 47.04C505.254 47.3323 505.801 47.4784 506.502 47.4784Z" fill="#8C879E"/>
<path d="M522.741 48.684C522.42 48.9471 522.025 49.1443 521.558 49.2759C521.105 49.4074 520.624 49.4731 520.113 49.4731C518.828 49.4731 517.835 49.137 517.134 48.4648C516.433 47.7926 516.083 46.8135 516.083 45.5275V39.8941H514.155V37.7021H516.083V35.0279H518.82V37.7021H521.952V39.8941H518.82V45.4618C518.82 46.0317 518.959 46.4701 519.237 46.777C519.514 47.0692 519.915 47.2154 520.441 47.2154C521.054 47.2154 521.565 47.0546 521.974 46.7331L522.741 48.684Z" fill="#8C879E"/>
<path d="M535.603 43.5328C535.603 43.7228 535.588 43.9931 535.559 44.3439H526.382C526.543 45.206 526.959 45.8929 527.63 46.4043C528.317 46.9012 529.164 47.1496 530.171 47.1496C531.456 47.1496 532.515 46.7258 533.347 45.8783L534.814 47.5661C534.289 48.1945 533.624 48.6694 532.821 48.9909C532.018 49.3124 531.113 49.4731 530.105 49.4731C528.82 49.4731 527.689 49.2174 526.711 48.7059C525.732 48.1945 524.973 47.4857 524.433 46.5797C523.907 45.6591 523.644 44.6215 523.644 43.4671C523.644 42.3272 523.9 41.3043 524.411 40.3983C524.936 39.4776 525.659 38.7616 526.579 38.2501C527.499 37.7386 528.536 37.4829 529.689 37.4829C530.828 37.4829 531.843 37.7386 532.734 38.2501C533.639 38.747 534.34 39.4557 534.836 40.3763C535.347 41.2824 535.603 42.3345 535.603 43.5328ZM529.689 39.6749C528.813 39.6749 528.068 39.9379 527.455 40.464C526.857 40.9755 526.492 41.6623 526.36 42.5245H532.996C532.88 41.6769 532.522 40.9901 531.923 40.464C531.325 39.9379 530.58 39.6749 529.689 39.6749Z" fill="#8C879E"/>
<path d="M541.846 49.4731C540.897 49.4731 539.97 49.3489 539.065 49.1005C538.159 48.8521 537.437 48.5379 536.896 48.1579L537.948 46.0755C538.473 46.4263 539.101 46.7112 539.831 46.9304C540.576 47.135 541.306 47.2373 542.021 47.2373C543.657 47.2373 544.474 46.8062 544.474 45.944C544.474 45.5348 544.263 45.2499 543.839 45.0891C543.43 44.9284 542.766 44.775 541.846 44.6288C540.883 44.4827 540.094 44.3146 539.481 44.1247C538.882 43.9347 538.357 43.6059 537.904 43.1383C537.466 42.656 537.247 41.9911 537.247 41.1435C537.247 40.0329 537.707 39.1488 538.627 38.4912C539.561 37.819 540.817 37.4829 542.394 37.4829C543.197 37.4829 544 37.5779 544.803 37.7679C545.606 37.9432 546.263 38.1843 546.774 38.4912L545.723 40.5736C544.73 39.9891 543.613 39.6968 542.372 39.6968C541.569 39.6968 540.956 39.821 540.532 40.0695C540.123 40.3033 539.919 40.6175 539.919 41.012C539.919 41.4504 540.138 41.7646 540.576 41.9546C541.029 42.1299 541.722 42.298 542.657 42.4587C543.591 42.6049 544.358 42.7729 544.956 42.9629C545.555 43.1529 546.066 43.4744 546.489 43.9274C546.927 44.3804 547.146 45.0234 547.146 45.8563C547.146 46.9523 546.672 47.8291 545.723 48.4867C544.774 49.1443 543.482 49.4731 541.846 49.4731Z" fill="#8C879E"/>
<line x1="262.529" y1="82.2002" x2="262.529" y2="379.034" stroke="#E8E2FD"/>
<line x1="262.029" y1="142.066" x2="64" y2="142.066" stroke="#E8E2FD"/>
<line x1="262.029" y1="201.434" x2="64" y2="201.434" stroke="#E8E2FD"/>
<line x1="262.029" y1="260.8" x2="64" y2="260.8" stroke="#E8E2FD"/>
<line x1="262.029" y1="320.167" x2="64" y2="320.167" stroke="#E8E2FD"/>
<rect x="77.6888" y="95.9004" width="31.9402" height="31.9667" rx="6" fill="#E8E2FD"/>
<rect x="77.6888" y="155.267" width="31.9402" height="31.9667" rx="6" fill="#FFCAB9"/>
<rect x="77.6888" y="333.367" width="31.9402" height="31.9667" rx="6" fill="#FFCAB9"/>
<rect x="77.6888" y="214.633" width="31.9402" height="31.9667" rx="6" fill="#E8E2FD"/>
<rect x="77.6888" y="274" width="31.9402" height="31.9667" rx="6" fill="#B9FFD9"/>
<rect x="118.755" y="98.6406" width="63.8804" height="5.48" rx="2.74" fill="#E8E2FD"/>
<rect x="118.755" y="158.007" width="63.8804" height="5.48" rx="2.74" fill="#E8E2FD"/>
<rect x="118.755" y="336.106" width="63.8804" height="5.48" rx="2.74" fill="#E8E2FD"/>
<rect x="118.755" y="217.373" width="63.8804" height="5.48" rx="2.74" fill="#E8E2FD"/>
<rect x="118.755" y="276.74" width="63.8804" height="5.48" rx="2.74" fill="#E8E2FD"/>
<rect x="118.755" y="113.254" width="105.859" height="5.48" rx="2.74" fill="#B5C2ED"/>
<rect x="118.755" y="172.62" width="105.859" height="5.48" rx="2.74" fill="#B5C2ED"/>
<rect x="118.755" y="350.72" width="105.859" height="5.48" rx="2.74" fill="#B5C2ED"/>
<rect x="118.755" y="231.986" width="105.859" height="5.48" rx="2.74" fill="#B5C2ED"/>
<rect x="118.755" y="291.354" width="105.859" height="5.48" rx="2.74" fill="#B5C2ED"/>
<ellipse cx="93.2906" cy="107.75" rx="4.17864" ry="4.18211" stroke="#6C3EF8" stroke-linecap="round" stroke-linejoin="round"/>
<path fill-rule="evenodd" clip-rule="evenodd" d="M86.6625 117.749C86.6614 117.455 86.7271 117.165 86.8546 116.9C87.2549 116.099 88.3836 115.674 89.3202 115.482C89.9956 115.338 90.6804 115.241 91.3695 115.193C92.6452 115.081 93.9282 115.081 95.2039 115.193C95.8929 115.242 96.5776 115.338 97.2532 115.482C98.1898 115.674 99.3185 116.059 99.7187 116.9C99.9752 117.44 99.9752 118.067 99.7187 118.606C99.3185 119.448 98.1898 119.832 97.2532 120.017C96.5785 120.167 95.8935 120.266 95.2039 120.313C94.1656 120.401 93.1224 120.417 92.0819 120.361C91.8418 120.361 91.6096 120.361 91.3695 120.313C90.6825 120.266 90 120.167 89.3282 120.017C88.3836 119.832 87.2629 119.448 86.8546 118.606C86.7277 118.339 86.6621 118.046 86.6625 117.749Z" stroke="#6C3EF8" stroke-linecap="round" stroke-linejoin="round"/>
<ellipse cx="93.2906" cy="226.484" rx="4.17864" ry="4.18211" stroke="#6C3EF8" stroke-linecap="round" stroke-linejoin="round"/>
<path fill-rule="evenodd" clip-rule="evenodd" d="M86.6625 236.483C86.6614 236.189 86.7271 235.898 86.8546 235.633C87.2549 234.832 88.3836 234.408 89.3202 234.215C89.9956 234.071 90.6804 233.975 91.3695 233.927C92.6452 233.815 93.9282 233.815 95.2039 233.927C95.8929 233.975 96.5776 234.072 97.2532 234.215C98.1898 234.408 99.3185 234.792 99.7187 235.633C99.9752 236.173 99.9752 236.8 99.7187 237.34C99.3185 238.181 98.1898 238.566 97.2532 238.75C96.5785 238.9 95.8935 238.999 95.2039 239.046C94.1656 239.134 93.1224 239.151 92.0819 239.094C91.8418 239.094 91.6096 239.094 91.3695 239.046C90.6825 239 90 238.901 89.3282 238.75C88.3836 238.566 87.2629 238.181 86.8546 237.34C86.7277 237.072 86.6621 236.779 86.6625 236.483Z" stroke="#6C3EF8" stroke-linecap="round" stroke-linejoin="round"/>
<ellipse cx="93.2906" cy="285.851" rx="4.17864" ry="4.18211" stroke="#28E7A2" stroke-linecap="round" stroke-linejoin="round"/>
<path fill-rule="evenodd" clip-rule="evenodd" d="M86.6625 295.85C86.6614 295.556 86.7271 295.265 86.8546 295.001C87.2549 294.199 88.3836 293.775 89.3202 293.582C89.9956 293.438 90.6804 293.342 91.3695 293.294C92.6452 293.182 93.9282 293.182 95.2039 293.294C95.8929 293.342 96.5776 293.439 97.2532 293.582C98.1898 293.775 99.3185 294.159 99.7187 295.001C99.9752 295.54 99.9752 296.167 99.7187 296.707C99.3185 297.548 98.1898 297.933 97.2532 298.117C96.5785 298.267 95.8935 298.366 95.2039 298.414C94.1656 298.502 93.1224 298.518 92.0819 298.462C91.8418 298.462 91.6096 298.462 91.3695 298.414C90.6825 298.367 90 298.268 89.3282 298.117C88.3836 297.933 87.2629 297.548 86.8546 296.707C86.7277 296.439 86.6621 296.146 86.6625 295.85Z" stroke="#28E7A2" stroke-linecap="round" stroke-linejoin="round"/>
<ellipse cx="93.2906" cy="167.117" rx="4.17864" ry="4.18211" stroke="#F48432" stroke-linecap="round" stroke-linejoin="round"/>
<path fill-rule="evenodd" clip-rule="evenodd" d="M86.6625 177.115C86.6614 176.821 86.7271 176.531 86.8546 176.266C87.2549 175.465 88.3836 175.04 89.3202 174.848C89.9956 174.704 90.6804 174.607 91.3695 174.56C92.6452 174.448 93.9282 174.448 95.2039 174.56C95.8929 174.608 96.5776 174.704 97.2532 174.848C98.1898 175.04 99.3185 175.425 99.7187 176.266C99.9752 176.806 99.9752 177.433 99.7187 177.973C99.3185 178.814 98.1898 179.198 97.2532 179.383C96.5785 179.533 95.8935 179.632 95.2039 179.679C94.1656 179.767 93.1224 179.783 92.0819 179.727C91.8418 179.727 91.6096 179.727 91.3695 179.679C90.6825 179.633 90 179.534 89.3282 179.383C88.3836 179.198 87.2629 178.814 86.8546 177.973C86.7277 177.705 86.6621 177.412 86.6625 177.115Z" stroke="#F48432" stroke-linecap="round" stroke-linejoin="round"/>
<ellipse cx="93.2906" cy="345.217" rx="4.17864" ry="4.18211" stroke="#F48432" stroke-linecap="round" stroke-linejoin="round"/>
<path fill-rule="evenodd" clip-rule="evenodd" d="M86.6625 355.216C86.6614 354.922 86.7271 354.632 86.8546 354.367C87.2549 353.566 88.3836 353.141 89.3202 352.949C89.9956 352.804 90.6804 352.708 91.3695 352.66C92.6452 352.548 93.9282 352.548 95.2039 352.66C95.8929 352.709 96.5776 352.805 97.2532 352.949C98.1898 353.141 99.3185 353.526 99.7187 354.367C99.9752 354.907 99.9752 355.533 99.7187 356.073C99.3185 356.914 98.1898 357.299 97.2532 357.483C96.5785 357.634 95.8935 357.733 95.2039 357.78C94.1656 357.868 93.1224 357.884 92.0819 357.828C91.8418 357.828 91.6096 357.828 91.3695 357.78C90.6825 357.733 90 357.634 89.3282 357.483C88.3836 357.299 87.2629 356.914 86.8546 356.073C86.7277 355.805 86.6621 355.513 86.6625 355.216Z" stroke="#F48432" stroke-linecap="round" stroke-linejoin="round"/>
<g filter="url(#filter2_d_408_77)">
<rect x="289.406" y="122.387" width="175.215" height="84.0267" rx="12" fill="url(#paint1_linear_408_77)"/>
</g>
<g filter="url(#filter3_d_408_77)">
<rect x="289.406" y="326.974" width="175.215" height="84.0267" rx="12" fill="url(#paint2_linear_408_77)"/>
</g>
<g filter="url(#filter4_d_408_77)">
<rect x="638.01" y="308.707" width="173.39" height="84.0267" rx="12" transform="rotate(-180 638.01 308.707)" fill="url(#paint3_linear_408_77)"/>
</g>
<defs>
<filter id="filter0_d_408_77" x="0" y="2" width="723" height="395" filterUnits="userSpaceOnUse" color-interpolation-filters="sRGB">
<feFlood flood-opacity="0" result="BackgroundImageFix"/>
<feColorMatrix in="SourceAlpha" type="matrix" values="0 0 0 0 0 0 0 0 0 0 0 0 0 0 0 0 0 0 127 0" result="hardAlpha"/>
<feOffset dy="4"/>
<feGaussianBlur stdDeviation="10"/>
<feColorMatrix type="matrix" values="0 0 0 0 0 0 0 0 0 0 0 0 0 0 0 0 0 0 0.1 0"/>
<feBlend mode="normal" in2="BackgroundImageFix" result="effect1_dropShadow_408_77"/>
<feBlend mode="normal" in="SourceGraphic" in2="effect1_dropShadow_408_77" result="shape"/>
</filter>
<filter id="filter1_d_408_77" x="58.0001" y="80.2002" width="607" height="308.833" filterUnits="userSpaceOnUse" color-interpolation-filters="sRGB">
<feFlood flood-opacity="0" result="BackgroundImageFix"/>
<feColorMatrix in="SourceAlpha" type="matrix" values="0 0 0 0 0 0 0 0 0 0 0 0 0 0 0 0 0 0 127 0" result="hardAlpha"/>
<feOffset dy="4"/>
<feGaussianBlur stdDeviation="3"/>
<feColorMatrix type="matrix" values="0 0 0 0 0 0 0 0 0 0 0 0 0 0 0 0 0 0 0.1 0"/>
<feBlend mode="normal" in2="BackgroundImageFix" result="effect1_dropShadow_408_77"/>
<feBlend mode="normal" in="SourceGraphic" in2="effect1_dropShadow_408_77" result="shape"/>
</filter>
<filter id="filter2_d_408_77" x="276.406" y="113.387" width="201.215" height="110.026" filterUnits="userSpaceOnUse" color-interpolation-filters="sRGB">
<feFlood flood-opacity="0" result="BackgroundImageFix"/>
<feColorMatrix in="SourceAlpha" type="matrix" values="0 0 0 0 0 0 0 0 0 0 0 0 0 0 0 0 0 0 127 0" result="hardAlpha"/>
<feOffset dy="4"/>
<feGaussianBlur stdDeviation="6.5"/>
<feColorMatrix type="matrix" values="0 0 0 0 0.0746 0 0 0 0 0.0433333 0 0 0 0 0.266667 0 0 0 0.08 0"/>
<feBlend mode="normal" in2="BackgroundImageFix" result="effect1_dropShadow_408_77"/>
<feBlend mode="normal" in="SourceGraphic" in2="effect1_dropShadow_408_77" result="shape"/>
</filter>
<filter id="filter3_d_408_77" x="276.406" y="317.974" width="201.215" height="110.027" filterUnits="userSpaceOnUse" color-interpolation-filters="sRGB">
<feFlood flood-opacity="0" result="BackgroundImageFix"/>
<feColorMatrix in="SourceAlpha" type="matrix" values="0 0 0 0 0 0 0 0 0 0 0 0 0 0 0 0 0 0 127 0" result="hardAlpha"/>
<feOffset dy="4"/>
<feGaussianBlur stdDeviation="6.5"/>
<feColorMatrix type="matrix" values="0 0 0 0 0.0746 0 0 0 0 0.0433333 0 0 0 0 0.266667 0 0 0 0.08 0"/>
<feBlend mode="normal" in2="BackgroundImageFix" result="effect1_dropShadow_408_77"/>
<feBlend mode="normal" in="SourceGraphic" in2="effect1_dropShadow_408_77" result="shape"/>
</filter>
<filter id="filter4_d_408_77" x="451.621" y="215.681" width="199.39" height="110.026" filterUnits="userSpaceOnUse" color-interpolation-filters="sRGB">
<feFlood flood-opacity="0" result="BackgroundImageFix"/>
<feColorMatrix in="SourceAlpha" type="matrix" values="0 0 0 0 0 0 0 0 0 0 0 0 0 0 0 0 0 0 127 0" result="hardAlpha"/>
<feOffset dy="4"/>
<feGaussianBlur stdDeviation="6.5"/>
<feColorMatrix type="matrix" values="0 0 0 0 0.0746 0 0 0 0 0.0433333 0 0 0 0 0.266667 0 0 0 0.08 0"/>
<feBlend mode="normal" in2="BackgroundImageFix" result="effect1_dropShadow_408_77"/>
<feBlend mode="normal" in="SourceGraphic" in2="effect1_dropShadow_408_77" result="shape"/>
</filter>
<linearGradient id="paint0_linear_408_77" x1="361.5" y1="0" x2="361.5" y2="82.2" gradientUnits="userSpaceOnUse">
<stop stop-color="#EEF8FF"/>
<stop offset="1" stop-color="#F3F4FF"/>
</linearGradient>
<linearGradient id="paint1_linear_408_77" x1="377.014" y1="122.387" x2="377.014" y2="206.413" gradientUnits="userSpaceOnUse">
<stop stop-color="#EEF8FF"/>
<stop offset="1" stop-color="#F3F4FF"/>
</linearGradient>
<linearGradient id="paint2_linear_408_77" x1="377.014" y1="326.974" x2="377.014" y2="411" gradientUnits="userSpaceOnUse">
<stop stop-color="#EEF8FF"/>
<stop offset="1" stop-color="#F3F4FF"/>
</linearGradient>
<linearGradient id="paint3_linear_408_77" x1="724.705" y1="308.707" x2="724.705" y2="392.734" gradientUnits="userSpaceOnUse">
<stop stop-color="#EEF8FF"/>
<stop offset="1" stop-color="#F3F4FF"/>
</linearGradient>
</defs>
</svg>
