<svg width="723" height="425" viewBox="0 0 723 425" fill="none" xmlns="http://www.w3.org/2000/svg">
<g filter="url(#filter0_d_409_78)">
<rect x="20" y="31" width="683" height="355" rx="10" fill="white"/>
</g>
<g filter="url(#filter1_d_409_78)">
<rect x="64" y="333.318" width="60.7337" height="60.7483" rx="6" fill="#E8E2FD"/>
<rect x="144.662" y="333.318" width="366.3" height="80.6813" rx="6" fill="url(#paint0_linear_409_78)"/>
<rect x="159.845" y="353.252" width="332.137" height="9.49192" rx="4.74596" fill="#B5C2ED"/>
<rect x="159.845" y="384.575" width="212.568" height="9.49192" rx="4.74596" fill="#B5C2ED"/>
<ellipse cx="93.8005" cy="357.055" rx="6.42342" ry="6.23599" stroke="#6C3EF8" stroke-width="1.5" stroke-linecap="round" stroke-linejoin="round"/>
<path fill-rule="evenodd" clip-rule="evenodd" d="M83.6118 371.965C83.6101 371.526 83.7111 371.093 83.9072 370.698C84.5224 369.504 86.2575 368.871 87.6972 368.584C88.7356 368.369 89.7882 368.225 90.8474 368.154C92.8084 367.987 94.7807 367.987 96.7417 368.154C97.8008 368.226 98.8534 368.37 99.8919 368.584C101.332 368.871 103.067 369.444 103.682 370.698C104.076 371.503 104.076 372.438 103.682 373.243C103.067 374.497 101.332 375.071 99.8919 375.345C98.8548 375.569 97.8017 375.717 96.7417 375.787C95.1456 375.919 93.5421 375.943 91.9426 375.859C91.5734 375.859 91.2166 375.859 90.8474 375.787C89.7914 375.718 88.7423 375.57 87.7095 375.345C86.2575 375.071 84.5347 374.497 83.9072 373.243C83.7121 372.843 83.6112 372.407 83.6118 371.965Z" stroke="#6C3EF8" stroke-width="1.5" stroke-linecap="round" stroke-linejoin="round"/>
</g>
<g filter="url(#filter2_d_409_78)">
<rect x="64" y="223.213" width="60.7337" height="60.7483" rx="6" fill="#FFCAB9"/>
<rect x="144.662" y="223.213" width="273.301" height="80.6813" rx="6" fill="url(#paint1_linear_409_78)"/>
<rect x="159.845" y="243.146" width="239.139" height="9.49192" rx="4.74596" fill="#B5C2ED"/>
<rect x="159.845" y="274.469" width="130.957" height="9.49192" rx="4.74596" fill="#B5C2ED"/>
<ellipse cx="93.8005" cy="246.95" rx="6.42342" ry="6.23599" stroke="#F48432" stroke-width="1.5" stroke-linecap="round" stroke-linejoin="round"/>
<path fill-rule="evenodd" clip-rule="evenodd" d="M83.6118 261.859C83.6101 261.421 83.7111 260.988 83.9072 260.593C84.5224 259.398 86.2575 258.765 87.6972 258.478C88.7356 258.263 89.7882 258.12 90.8474 258.048C92.8084 257.881 94.7807 257.881 96.7417 258.048C97.8008 258.12 98.8534 258.264 99.8919 258.478C101.332 258.765 103.067 259.338 103.682 260.593C104.076 261.398 104.076 262.332 103.682 263.137C103.067 264.392 101.332 264.965 99.8919 265.24C98.8548 265.464 97.8017 265.612 96.7417 265.682C95.1456 265.813 93.5421 265.837 91.9426 265.754C91.5734 265.754 91.2166 265.754 90.8474 265.682C89.7914 265.613 88.7423 265.465 87.7095 265.24C86.2575 264.965 84.5347 264.392 83.9072 263.137C83.7121 262.738 83.6112 262.301 83.6118 261.859Z" stroke="#F48432" stroke-width="1.5" stroke-linecap="round" stroke-linejoin="round"/>
</g>
<g filter="url(#filter3_d_409_78)">
<rect x="64" y="113.106" width="60.7337" height="60.7483" rx="6" fill="#B9FFD9"/>
<rect x="144.662" y="113.106" width="514.338" height="80.6813" rx="6" fill="url(#paint2_linear_409_78)"/>
<rect x="159.845" y="133.039" width="480.175" height="9.49192" rx="4.74596" fill="#B5C2ED"/>
<rect x="159.845" y="164.363" width="245.781" height="9.49192" rx="4.74596" fill="#B5C2ED"/>
<ellipse cx="93.8005" cy="136.47" rx="6.42342" ry="6.61393" stroke="#28E7A2" stroke-width="1.5" stroke-linecap="round" stroke-linejoin="round"/>
<path fill-rule="evenodd" clip-rule="evenodd" d="M83.6118 152.283C83.6101 151.818 83.7111 151.359 83.9072 150.94C84.5224 149.673 86.2575 149.002 87.6972 148.698C88.7356 148.469 89.7882 148.317 90.8474 148.241C92.8084 148.064 94.7807 148.064 96.7417 148.241C97.8008 148.318 98.8534 148.47 99.8919 148.698C101.332 149.002 103.067 149.61 103.682 150.94C104.076 151.794 104.076 152.785 103.682 153.639C103.067 154.969 101.332 155.578 99.8919 155.869C98.8548 156.107 97.8017 156.263 96.7417 156.338C95.1456 156.477 93.5421 156.503 91.9426 156.414C91.5734 156.414 91.2166 156.414 90.8474 156.338C89.7914 156.264 88.7423 156.107 87.7095 155.869C86.2575 155.578 84.5347 154.969 83.9072 153.639C83.7121 153.215 83.6112 152.752 83.6118 152.283Z" stroke="#28E7A2" stroke-width="1.5" stroke-linecap="round" stroke-linejoin="round"/>
</g>
<g filter="url(#filter4_d_409_78)">
<rect x="64" y="3" width="60.7337" height="60.7483" rx="6" fill="#E8E2FD"/>
<rect x="144.899" y="3" width="383.144" height="80.6813" rx="6" fill="url(#paint3_linear_409_78)"/>
<rect x="159.845" y="22.9326" width="349.219" height="9.49192" rx="4.74596" fill="#B5C2ED"/>
<rect x="159.845" y="54.2568" width="183.15" height="9.49192" rx="4.74596" fill="#B5C2ED"/>
<ellipse cx="93.8005" cy="27.0246" rx="6.42342" ry="6.42496" stroke="#6C3EF8" stroke-width="1.5" stroke-linecap="round" stroke-linejoin="round"/>
<path fill-rule="evenodd" clip-rule="evenodd" d="M83.6118 42.3857C83.6101 41.934 83.7111 41.4879 83.9072 41.081C84.5224 39.8501 86.2575 39.1978 87.6972 38.9024C88.7356 38.6808 89.7882 38.5327 90.8474 38.4593C92.8084 38.287 94.7807 38.287 96.7417 38.4593C97.8008 38.5335 98.8534 38.6816 99.8919 38.9024C101.332 39.1978 103.067 39.7886 103.682 41.081C104.076 41.9104 104.076 42.8733 103.682 43.7027C103.067 44.995 101.332 45.5858 99.8919 45.8689C98.8548 46.0998 97.8017 46.252 96.7417 46.3243C95.1456 46.4597 93.5421 46.4844 91.9426 46.3982C91.5734 46.3982 91.2166 46.3982 90.8474 46.3243C89.7914 46.2529 88.7423 46.1006 87.7095 45.8689C86.2575 45.5858 84.5347 44.995 83.9072 43.7027C83.7121 43.2911 83.6112 42.8412 83.6118 42.3857Z" stroke="#6C3EF8" stroke-width="1.5" stroke-linecap="round" stroke-linejoin="round"/>
</g>
<defs>
<filter id="filter0_d_409_78" x="0" y="15" width="723" height="395" filterUnits="userSpaceOnUse" color-interpolation-filters="sRGB">
<feFlood flood-opacity="0" result="BackgroundImageFix"/>
<feColorMatrix in="SourceAlpha" type="matrix" values="0 0 0 0 0 0 0 0 0 0 0 0 0 0 0 0 0 0 127 0" result="hardAlpha"/>
<feOffset dy="4"/>
<feGaussianBlur stdDeviation="10"/>
<feColorMatrix type="matrix" values="0 0 0 0 0 0 0 0 0 0 0 0 0 0 0 0 0 0 0.1 0"/>
<feBlend mode="normal" in2="BackgroundImageFix" result="effect1_dropShadow_409_78"/>
<feBlend mode="normal" in="SourceGraphic" in2="effect1_dropShadow_409_78" result="shape"/>
</filter>
<filter id="filter1_d_409_78" x="57" y="330.318" width="460.962" height="94.6816" filterUnits="userSpaceOnUse" color-interpolation-filters="sRGB">
<feFlood flood-opacity="0" result="BackgroundImageFix"/>
<feColorMatrix in="SourceAlpha" type="matrix" values="0 0 0 0 0 0 0 0 0 0 0 0 0 0 0 0 0 0 127 0" result="hardAlpha"/>
<feOffset dy="4"/>
<feGaussianBlur stdDeviation="3.5"/>
<feColorMatrix type="matrix" values="0 0 0 0 0 0 0 0 0 0 0 0 0 0 0 0 0 0 0.07 0"/>
<feBlend mode="normal" in2="BackgroundImageFix" result="effect1_dropShadow_409_78"/>
<feBlend mode="normal" in="SourceGraphic" in2="effect1_dropShadow_409_78" result="shape"/>
</filter>
<filter id="filter2_d_409_78" x="57" y="220.213" width="367.963" height="94.6816" filterUnits="userSpaceOnUse" color-interpolation-filters="sRGB">
<feFlood flood-opacity="0" result="BackgroundImageFix"/>
<feColorMatrix in="SourceAlpha" type="matrix" values="0 0 0 0 0 0 0 0 0 0 0 0 0 0 0 0 0 0 127 0" result="hardAlpha"/>
<feOffset dy="4"/>
<feGaussianBlur stdDeviation="3.5"/>
<feColorMatrix type="matrix" values="0 0 0 0 0 0 0 0 0 0 0 0 0 0 0 0 0 0 0.07 0"/>
<feBlend mode="normal" in2="BackgroundImageFix" result="effect1_dropShadow_409_78"/>
<feBlend mode="normal" in="SourceGraphic" in2="effect1_dropShadow_409_78" result="shape"/>
</filter>
<filter id="filter3_d_409_78" x="57" y="110.106" width="609" height="94.6816" filterUnits="userSpaceOnUse" color-interpolation-filters="sRGB">
<feFlood flood-opacity="0" result="BackgroundImageFix"/>
<feColorMatrix in="SourceAlpha" type="matrix" values="0 0 0 0 0 0 0 0 0 0 0 0 0 0 0 0 0 0 127 0" result="hardAlpha"/>
<feOffset dy="4"/>
<feGaussianBlur stdDeviation="3.5"/>
<feColorMatrix type="matrix" values="0 0 0 0 0 0 0 0 0 0 0 0 0 0 0 0 0 0 0.07 0"/>
<feBlend mode="normal" in2="BackgroundImageFix" result="effect1_dropShadow_409_78"/>
<feBlend mode="normal" in="SourceGraphic" in2="effect1_dropShadow_409_78" result="shape"/>
</filter>
<filter id="filter4_d_409_78" x="57" y="0" width="478.043" height="94.6816" filterUnits="userSpaceOnUse" color-interpolation-filters="sRGB">
<feFlood flood-opacity="0" result="BackgroundImageFix"/>
<feColorMatrix in="SourceAlpha" type="matrix" values="0 0 0 0 0 0 0 0 0 0 0 0 0 0 0 0 0 0 127 0" result="hardAlpha"/>
<feOffset dy="4"/>
<feGaussianBlur stdDeviation="3.5"/>
<feColorMatrix type="matrix" values="0 0 0 0 0 0 0 0 0 0 0 0 0 0 0 0 0 0 0.07 0"/>
<feBlend mode="normal" in2="BackgroundImageFix" result="effect1_dropShadow_409_78"/>
<feBlend mode="normal" in="SourceGraphic" in2="effect1_dropShadow_409_78" result="shape"/>
</filter>
<linearGradient id="paint0_linear_409_78" x1="327.812" y1="333.318" x2="327.812" y2="414" gradientUnits="userSpaceOnUse">
<stop stop-color="#EEF8FF"/>
<stop offset="1" stop-color="#F3F4FF"/>
</linearGradient>
<linearGradient id="paint1_linear_409_78" x1="281.313" y1="223.213" x2="281.313" y2="303.894" gradientUnits="userSpaceOnUse">
<stop stop-color="#EEF8FF"/>
<stop offset="1" stop-color="#F3F4FF"/>
</linearGradient>
<linearGradient id="paint2_linear_409_78" x1="401.831" y1="113.106" x2="401.831" y2="193.788" gradientUnits="userSpaceOnUse">
<stop stop-color="#EEF8FF"/>
<stop offset="1" stop-color="#F3F4FF"/>
</linearGradient>
<linearGradient id="paint3_linear_409_78" x1="336.471" y1="3" x2="336.471" y2="83.6813" gradientUnits="userSpaceOnUse">
<stop stop-color="#EEF8FF"/>
<stop offset="1" stop-color="#F3F4FF"/>
</linearGradient>
</defs>
</svg>
