<svg width="53" height="37" viewBox="0 0 53 37" fill="none" xmlns="http://www.w3.org/2000/svg">
<path d="M44.0508 0.890034C43.5394 2.07675 43.0707 3.34822 42.6445 4.70447C42.3036 5.97594 42.0905 7.24742 42.0053 8.5189C42.0053 9.70561 42.2184 10.8076 42.6445 11.8247C43.0707 12.7572 43.8377 13.52 44.9457 14.1134C47.1617 15.3001 49.0368 16.8259 50.5709 18.6907C52.1903 20.4708 53 22.6747 53 25.3024C53 26.9129 52.7017 28.4387 52.1051 29.8797C51.5085 31.3207 50.6562 32.5922 49.5482 33.6942C48.5254 34.7113 47.2896 35.5166 45.8406 36.11C44.3917 36.7033 42.8576 37 41.2382 37C37.9995 37 35.2721 35.8557 33.0561 33.567C30.8401 31.2783 29.6469 28.5235 29.4764 25.3024C29.2207 21.9118 29.6469 18.7755 30.7549 15.8935C31.9481 12.9267 33.3118 10.3414 34.8459 8.13746C36.4653 5.93356 38.0421 4.15349 39.5762 2.79725C41.1104 1.35624 42.1757 0.423826 42.7724 0C42.9428 0.0847652 43.1559 0.211913 43.4116 0.381443L43.7951 0.762887C43.8803 0.847652 43.9656 0.890034 44.0508 0.890034ZM14.6463 0.890034C14.1349 2.07675 13.6662 3.34822 13.24 4.70447C12.8991 5.97594 12.686 7.24742 12.6008 8.5189C12.6008 9.70561 12.8139 10.8076 13.24 11.8247C13.6662 12.7572 14.4332 13.52 15.5412 14.1134C17.7572 15.3001 19.6323 16.8259 21.1664 18.6907C22.7858 20.4708 23.5955 22.6747 23.5955 25.3024C23.5955 26.9129 23.2972 28.4387 22.7006 29.8797C22.104 31.3207 21.2517 32.5922 20.1437 33.6942C19.1209 34.7113 17.8851 35.5166 16.4362 36.11C14.9872 36.7033 13.4531 37 11.8337 37C8.59496 37 5.86758 35.8557 3.65159 33.567C1.4356 31.2783 0.242374 28.5235 0.0719132 25.3024C-0.183778 21.9118 0.242374 18.7755 1.35037 15.8935C2.5436 12.9267 3.90728 10.3414 5.44143 8.13746C7.06081 5.93356 8.63757 4.15349 10.1717 2.79725C11.7059 1.35624 12.7712 0.423826 13.3679 0C13.5383 0.0847652 13.7514 0.211913 14.0071 0.381443L14.3906 0.762887C14.4759 0.847652 14.5611 0.890034 14.6463 0.890034Z" fill="#141518"/>
</svg>
