<svg width="52" height="17" viewBox="0 0 52 17" fill="none" xmlns="http://www.w3.org/2000/svg">
<path d="M7.97369 16.3229C8.35696 16.6989 8.97072 16.6989 9.35398 16.3229V16.3229C9.74772 15.9366 9.74772 15.3023 9.35397 14.916L3.80937 9.47618L51.0238 9.47618C51.5629 9.47618 52 9.03912 52 8.49997V8.49997C52 7.96082 51.5629 7.52375 51.0238 7.52375L3.80937 7.52375L9.35397 2.08399C9.74771 1.69768 9.74772 1.06343 9.35398 0.677123V0.677123C8.97072 0.301089 8.35696 0.301081 7.97369 0.677106L0.727583 7.78621C0.328017 8.17822 0.328018 8.82185 0.727585 9.21386L7.97369 16.3229Z" fill="#141518"/>
</svg>
