<svg width="72" height="72" viewBox="0 0 72 72" fill="none" xmlns="http://www.w3.org/2000/svg">
<path d="M36.0479 45C31.0461 45 27.0001 41.0177 27.0001 36.0159C27.0001 31.0142 31.0461 27 36.0479 27C41.0497 27 45.0001 31.0142 45.0001 36.0159C45.0001 41.0177 41.0497 45 36.0479 45Z" fill="#6C3EF8"/>
<path opacity="0.2" d="M63.69 43.11C63.1075 42.21 62.2797 41.31 61.2067 40.74C60.3482 40.32 59.7964 39.63 59.3058 38.82C57.7422 36.24 58.662 32.85 61.268 31.32C64.3339 29.61 65.3149 25.8 63.5367 22.83L61.4826 19.29C59.735 16.32 55.9027 15.27 52.8675 17.01C50.1695 18.45 46.7051 17.49 45.1415 14.94C44.651 14.1 44.375 13.2 44.4363 12.3C44.5283 11.13 44.1604 10.02 43.6086 9.12C42.4742 7.26 40.4201 6 38.1513 6H33.8284C31.5903 6.06 29.5362 7.26 28.4018 9.12C27.8193 10.02 27.4821 11.13 27.5434 12.3C27.6047 13.2 27.3288 14.1 26.8382 14.94C25.2746 17.49 21.8102 18.45 19.1429 17.01C16.077 15.27 12.2754 16.32 10.4971 19.29L8.44301 22.83C6.69546 25.8 7.67654 29.61 10.7118 31.32C13.3177 32.85 14.2375 36.24 12.7046 38.82C12.1834 39.63 11.6315 40.32 10.7731 40.74C9.73068 41.31 8.81092 42.21 8.32038 43.11C7.186 44.97 7.24732 47.31 8.38169 49.26L10.4971 52.86C11.6315 54.78 13.747 55.98 15.9544 55.98C16.9968 55.98 18.2231 55.68 19.2042 55.08C19.9707 54.57 20.8905 54.39 21.9022 54.39C24.9374 54.39 27.4821 56.88 27.5434 59.85C27.5434 63.3 30.364 66 33.9204 66H38.09C41.6157 66 44.4363 63.3 44.4363 59.85C44.5283 56.88 47.073 54.39 50.1082 54.39C51.0893 54.39 52.0091 54.57 52.8062 55.08C53.7873 55.68 54.9829 55.98 56.056 55.98C58.2328 55.98 60.3482 54.78 61.4826 52.86L63.6287 49.26C64.7324 47.25 64.8244 44.97 63.69 43.11Z" fill="#6C3EF8"/>
</svg>
