<svg width="72" height="72" viewBox="0 0 72 72" fill="none" xmlns="http://www.w3.org/2000/svg">
<path opacity="0.2" d="M36.06 6C18.63 6 6 20.2414 6 36.0451C6 41.0926 7.47 46.2904 10.05 51.0376C10.53 51.8187 10.59 52.8102 10.26 53.7416L8.25 60.4717C7.8 62.0941 9.18 63.2959 10.71 62.8152L16.77 61.0125C18.42 60.4717 19.71 61.1627 21.243 62.0941C25.623 64.678 31.08 66 36 66C50.88 66 66 54.4927 66 35.9549C66 19.971 53.1 6 36.06 6Z" fill="#6C3EF8"/>
<path fill-rule="evenodd" clip-rule="evenodd" d="M21.9998 40C19.8123 40 17.9998 38.1875 17.9998 36C17.9998 33.7812 19.781 32 21.9998 32C24.2185 32 25.9998 33.7812 25.9998 36C25.9998 38.1875 24.2185 39.9688 21.9998 40ZM35.9998 40C33.781 39.9688 31.9998 38.1876 31.9998 35.969C31.9998 33.7816 33.8123 31.9691 35.9998 32.0004C38.2185 32.0004 39.9998 33.7816 39.9998 36.0002C39.9998 38.1876 38.2185 40 35.9998 40ZM45.9998 36C45.9998 38.1875 47.781 40 49.9998 40C52.2185 40 53.9998 38.1875 53.9998 36C53.9998 33.7812 52.2185 32 49.9998 32C47.781 32 45.9998 33.7812 45.9998 36Z" fill="#6C3EF8"/>
</svg>
