<svg width="72" height="72" viewBox="0 0 72 72" fill="none" xmlns="http://www.w3.org/2000/svg">
<path d="M36 43C25.695 43 17 44.7552 17 51.5294C17 58.3064 25.7511 60 36 60C46.305 60 55 58.2448 55 51.4706C55 44.6936 46.2489 43 36 43Z" fill="#6C3EF8"/>
<path opacity="0.2" d="M36.5 37C43.4374 37 49 31.2148 49 24C49 16.7824 43.4374 11 36.5 11C29.5626 11 24 16.7824 24 24C24 31.2148 29.5626 37 36.5 37Z" fill="#6C3EF8"/>
<path opacity="0.2" d="M63.6424 27.9117C65.4508 20.5824 60.1488 14 53.3974 14C52.6633 14 51.9614 14.0833 51.2756 14.2249C51.1845 14.2471 51.0827 14.2943 51.0291 14.3776C50.9675 14.4831 51.013 14.6247 51.08 14.7163C53.1081 17.6646 54.2735 21.2543 54.2735 25.1077C54.2735 28.8001 53.2045 32.2426 51.3291 35.0994C51.1362 35.3936 51.3077 35.7906 51.648 35.8517C52.1195 35.9378 52.6017 35.9822 53.0947 35.9961C58.0109 36.1293 62.4234 32.8506 63.6424 27.9117Z" fill="#6C3EF8"/>
<path d="M68.4208 44.1136C67.5071 42.0397 65.3018 40.6176 61.949 39.9195C60.3663 39.5082 56.0835 38.929 52.0998 39.0072C52.04 39.0158 52.0073 39.0593 52.0019 39.0883C51.9937 39.1288 52.01 39.1983 52.0889 39.2418C53.9298 40.2121 61.0462 44.4322 60.1515 53.333C60.1135 53.7183 60.4044 54.0513 60.7661 53.9934C62.5173 53.7269 67.0231 52.6958 68.4208 49.4836C69.1931 47.7863 69.1931 45.8138 68.4208 44.1136Z" fill="#6C3EF8"/>
<path opacity="0.2" d="M21.7231 14.2249C21.0399 14.0805 20.3353 14 19.6012 14C12.8496 14 7.54738 20.5824 9.35854 27.9117C10.5749 32.8506 14.9876 36.1293 19.904 35.9961C20.3969 35.9822 20.8819 35.935 21.3507 35.8517C21.691 35.7906 21.8625 35.3936 21.6696 35.0994C19.7941 32.2398 18.7251 28.8001 18.7251 25.1077C18.7251 21.2515 19.8932 17.6618 21.9214 14.7163C21.9857 14.6247 22.0339 14.4831 21.9696 14.3776C21.916 14.2915 21.8169 14.2471 21.7231 14.2249Z" fill="#6C3EF8"/>
<path d="M11.0506 39.9173C7.69766 40.6155 5.49497 42.0378 4.58127 44.112C3.80624 45.8125 3.80624 47.7853 4.58127 49.4858C5.97902 52.6956 10.485 53.7298 12.2363 53.9934C12.598 54.0513 12.8862 53.7211 12.8481 53.3329C11.9535 44.4336 19.0701 40.2128 20.9138 39.2423C20.9899 39.196 21.0063 39.1293 20.9981 39.0859C20.9927 39.0569 20.9627 39.0135 20.9029 39.0077C16.9163 38.9266 12.636 39.5059 11.0506 39.9173Z" fill="#6C3EF8"/>
</svg>
