<svg width="72" height="72" viewBox="0 0 72 72" fill="none" xmlns="http://www.w3.org/2000/svg">
<path opacity="0.2" d="M47.7988 6H58.2012C62.5092 6 66 9.49079 66 13.7988V24.2012C66 28.5092 62.5092 32 58.2012 32H47.7988C43.4908 32 40 28.5092 40 24.2012V13.7988C40 9.49079 43.4908 6 47.7988 6Z" fill="#6C3EF8"/>
<path fill-rule="evenodd" clip-rule="evenodd" d="M13.7988 6H24.2012C28.5092 6 32 9.49079 32 13.7988V24.2012C32 28.5092 28.5092 32 24.2012 32H13.7988C9.49079 32 6 28.5092 6 24.2012V13.7988C6 9.49079 9.49079 6 13.7988 6ZM13.7988 40H24.2012C28.5092 40 32 43.4908 32 47.7988V58.2012C32 62.5063 28.5092 66 24.2012 66H13.7988C9.49079 66 6 62.5063 6 58.2012V47.7988C6 43.4908 9.49079 40 13.7988 40ZM58.2012 40H47.7988C43.4908 40 40 43.4908 40 47.7988V58.2012C40 62.5063 43.4908 66 47.7988 66H58.2012C62.5092 66 66 62.5063 66 58.2012V47.7988C66 43.4908 62.5092 40 58.2012 40Z" fill="#6C3EF8"/>
</svg>
