<svg width="149" height="34" viewBox="0 0 149 34" fill="none" xmlns="http://www.w3.org/2000/svg">
<path d="M9.264 9.2C10.752 9.2 12.04 9.448 13.128 9.944C14.232 10.44 15.08 11.144 15.672 12.056C16.264 12.968 16.56 14.048 16.56 15.296C16.56 16.528 16.264 17.608 15.672 18.536C15.08 19.448 14.232 20.152 13.128 20.648C12.04 21.128 10.752 21.368 9.264 21.368H5.88V26H1.992V9.2H9.264ZM9.048 18.2C10.216 18.2 11.104 17.952 11.712 17.456C12.32 16.944 12.624 16.224 12.624 15.296C12.624 14.352 12.32 13.632 11.712 13.136C11.104 12.624 10.216 12.368 9.048 12.368H5.88V18.2H9.048ZM27.7061 26.288C25.9621 26.288 24.3861 25.912 22.9781 25.16C21.5861 24.408 20.4901 23.376 19.6901 22.064C18.9061 20.736 18.5141 19.248 18.5141 17.6C18.5141 15.952 18.9061 14.472 19.6901 13.16C20.4901 11.832 21.5861 10.792 22.9781 10.04C24.3861 9.288 25.9621 8.912 27.7061 8.912C29.4501 8.912 31.0181 9.288 32.4101 10.04C33.8021 10.792 34.8981 11.832 35.6981 13.16C36.4981 14.472 36.8981 15.952 36.8981 17.6C36.8981 19.248 36.4981 20.736 35.6981 22.064C34.8981 23.376 33.8021 24.408 32.4101 25.16C31.0181 25.912 29.4501 26.288 27.7061 26.288ZM27.7061 22.976C28.6981 22.976 29.5941 22.752 30.3941 22.304C31.1941 21.84 31.8181 21.2 32.2661 20.384C32.7301 19.568 32.9621 18.64 32.9621 17.6C32.9621 16.56 32.7301 15.632 32.2661 14.816C31.8181 14 31.1941 13.368 30.3941 12.92C29.5941 12.456 28.6981 12.224 27.7061 12.224C26.7141 12.224 25.8181 12.456 25.0181 12.92C24.2181 13.368 23.5861 14 23.1221 14.816C22.6741 15.632 22.4501 16.56 22.4501 17.6C22.4501 18.64 22.6741 19.568 23.1221 20.384C23.5861 21.2 24.2181 21.84 25.0181 22.304C25.8181 22.752 26.7141 22.976 27.7061 22.976ZM64.6496 9.2L59.1536 26H54.9776L51.2816 14.624L47.4656 26H43.3136L37.7936 9.2H41.8256L45.6176 21.008L49.5776 9.2H53.1776L57.0176 21.104L60.9296 9.2H64.6496ZM65.7949 17.744H72.5869V20.744H65.7949V17.744ZM100.556 9.2L95.0599 26H90.8839L87.1879 14.624L83.3719 26H79.2199L73.6999 9.2H77.7319L81.5239 21.008L85.4839 9.2H89.0839L92.9239 21.104L96.8359 9.2H100.556ZM110.651 26.288C108.907 26.288 107.331 25.912 105.923 25.16C104.531 24.408 103.435 23.376 102.635 22.064C101.851 20.736 101.459 19.248 101.459 17.6C101.459 15.952 101.851 14.472 102.635 13.16C103.435 11.832 104.531 10.792 105.923 10.04C107.331 9.288 108.907 8.912 110.651 8.912C112.395 8.912 113.963 9.288 115.355 10.04C116.747 10.792 117.843 11.832 118.643 13.16C119.443 14.472 119.843 15.952 119.843 17.6C119.843 19.248 119.443 20.736 118.643 22.064C117.843 23.376 116.747 24.408 115.355 25.16C113.963 25.912 112.395 26.288 110.651 26.288ZM110.651 22.976C111.643 22.976 112.539 22.752 113.339 22.304C114.139 21.84 114.763 21.2 115.211 20.384C115.675 19.568 115.907 18.64 115.907 17.6C115.907 16.56 115.675 15.632 115.211 14.816C114.763 14 114.139 13.368 113.339 12.92C112.539 12.456 111.643 12.224 110.651 12.224C109.659 12.224 108.763 12.456 107.963 12.92C107.163 13.368 106.531 14 106.067 14.816C105.619 15.632 105.395 16.56 105.395 17.6C105.395 18.64 105.619 19.568 106.067 20.384C106.531 21.2 107.163 21.84 107.963 22.304C108.763 22.752 109.659 22.976 110.651 22.976ZM147.595 9.2L142.099 26H137.923L134.227 14.624L130.411 26H126.259L120.739 9.2H124.771L128.563 21.008L132.523 9.2H136.123L139.963 21.104L143.875 9.2H147.595Z" fill="#141518"/>
</svg>
